<svg width="0" height="0" style="position:absolute"><symbol viewBox="0 0 84.8 112.9" id="icon--bracket"><path d="M35 111c-40 0-8.4-54.5-33-54.5C26.6 56.5-5 2 35 2m14.7 0c40 0 8.5 54.5 33 54.5-24.5 0 7 54.4-33 54.4" fill="none" stroke="#333" stroke-width="4" stroke-linecap="round" stroke-linejoin="round" stroke-miterlimit="10"/></symbol><symbol viewBox="0 0 59 26" id="icon--bupa"><title>bupa</title><path d="M29.853 13.8c1.484 0 2.28-.651 2.762-1.397l-.026.113c-.14.698.444 1.127.994 1.127h.478l1.328-7.501h-1.643l-.219 1.145c-.297-.592-1.135-1.3-2.488-1.3-2.388 0-3.805 1.955-4.041 4.038-.272 2.382 1.275 3.776 2.855 3.776zm1.423-6.59c2.753.151 1.857 5.379-.942 5.224-2.53-.139-1.744-5.373.942-5.225zM8.627 5.634c0-1.696-1.096-2.485-3.02-2.485-1.186 0-3.05-.004-3.728-.004L0 13.643l3.412-.002c.78 0 1.522-.025 1.94-.112 1.915-.402 2.693-1.786 2.847-2.801.213-1.405-.68-2.334-1.694-2.558.761-.165 2.122-.944 2.122-2.535zm-4.003 6.718c-.213.053-.555.08-1.27.08H2.112l.628-3.519H4.58c2.43 0 2.21 2.905.043 3.439zm.723-4.784c-.235.077-.546.099-1.113.099h-1.27l.596-3.36h1.663c1.996 0 1.84 2.7.124 3.26zm10.534-1.42h-.492s-.724 4.122-.805 4.591c-.175 1.01-.665 1.7-2.041 1.7-.781 0-1.545-.47-1.366-1.522.07-.406.59-3.401.634-3.642.144-.81-.55-1.126-1.123-1.126h-.434c-.107.625-.582 3.26-.764 4.293-.074.415-.1.837-.069 1.11.163 1.399 1.4 2.253 2.93 2.253 2.64 0 3.633-1.372 3.949-3 .103-.538.604-3.257.643-3.53.115-.81-.558-1.126-1.062-1.126zm2.715 10.453l.766-4.137c.298.59 1.147 1.341 2.5 1.341 2.437 0 3.945-1.89 4.097-4.104.16-2.352-1.23-3.706-2.843-3.706-1.4 0-2.352.676-2.838 1.38l.021-.1c.152-.724-.469-1.126-.995-1.126h-.522s-1.42 8.07-1.616 9.043c-.23 1.143.704 1.409 1 1.409h.43zm3.973-9.26c2.53.14 1.742 5.388-.944 5.24-2.752-.15-1.856-5.395.944-5.24zm35.395 9.457c-.705 0-1.664-.04-2.238-.234-.675-.23-1.27-.686-1.902-1.17-.317-.241-.644-.492-.997-.725-.43-.284-.789-.417-1.132-.417-.46 0-.909.248-1.452.807-.737.754-1.912 2.464-2.38 3.164-.032.043-.07.092-.13.092-.116 0-.118-.15-.118-.2-.024-1.957-.332-12.64-.547-15.83C46.972.877 46.532 0 45.916 0c-.493 0-1.233.653-1.697 2.493-1.179 4.686-3.694 15.1-4.775 20.39-.033.146-.196.146-.228 0-.12-.54-.227-1.154-.329-1.67-.322-1.632-.601-3.042-1.153-3.817-.629-.88-1.559-.936-2.685-.194a7.85 7.85 0 0 0-.742.587c-.723.618-1.54 1.32-2.899 1.32H18.135l-.326 1.749h13.968c1.427 0 2.753-.818 3.544-1.382.4-.286.68-.452.902-.452.306 0 .443.31.557.775.057.228.125.543.203.908.265 1.208.662 3.112 1.166 4.378.235.59.583.915.983.915.61 0 1.233-.717 1.584-1.827.471-1.48 3.295-13.641 4.487-18.734.049-.21.076-.326.08-.336.02-.09.08-.149.15-.149.062 0 .132.053.135.168v.019c.091 5.153.349 14.205.735 15.135.213.513.54.786.947.786.47 0 1.035-.378 1.436-.96.203-.292.46-.674.734-1.078.674-.996 1.439-2.123 1.663-2.365.338-.354.724-.354 1.274.017.079.054.175.123.286.203.586.422 1.566 1.003 2.667 1.305.73.198 1.67.24 2.329.24.426 0 .878-.016 1.01-.024l.302-1.621c-.159.008-.588.02-.987.02z" fill-rule="evenodd"/></symbol><symbol viewBox="0 0 41.551 41.551" id="icon--close"><path fill="none" stroke="#fff" stroke-width="4" stroke-linecap="round" stroke-linejoin="round" stroke-miterlimit="10" d="M2 39.6L39.6 2M2 2l37.6 37.6"/></symbol><symbol viewBox="-1 11 80 80" id="icon--github"><path d="M39 11C17 11-1 29.4-1 52c0 18 11.5 33.5 27.4 39 2 .3 2.7-1 2.7-2v-7.7c-11 2.5-13.4-4.8-13.4-4.8-2-4.8-4.5-6-4.5-6-3.5-2.6.4-2.5.4-2.5 4 .3 6 4.2 6 4.2 3.7 6.3 9.5 4.5 11.8 3.4.3-2.6 1.4-4.4 2.5-5.5-9-1-18.2-4.4-18.2-20 0-4.6 1.5-8.3 4-11-.3-1.2-1.7-5.3.5-11 0 0 3.3-1 11 4.2 3.2-1 6.6-1.3 10-1.4 3.4 0 6.8.5 10 1.4C56.6 27 60 28 60 28c2.2 5.7.8 9.8.4 11 2.6 2.7 4 6.4 4 11 0 15.6-9.2 19-18.2 20 1.5 1.4 2.8 4 2.8 7.7V89c0 1 .6 2.3 2.7 2C67.5 85.4 79 70 79 52c0-22.6-18-41-40-41z"/></symbol><symbol viewBox="-1 11 80 80" id="icon--linkedin"><path d="M73.08 11.06H4.9c-3.26 0-5.9 2.58-5.9 5.76V85.3c0 3.17 2.64 5.76 5.9 5.76h68.18c3.26 0 5.92-2.6 5.92-5.77V16.8c0-3.18-2.66-5.76-5.92-5.76zM22.73 79.23H10.86V41.05h11.87v38.18zm-5.93-43.4c-3.8 0-6.9-3.08-6.9-6.88s3.1-6.88 6.9-6.88c3.8 0 6.87 3.1 6.87 6.88 0 3.8-3.08 6.88-6.88 6.88zm50.37 43.4H55.3V60.66c0-4.43-.07-10.12-6.15-10.12-6.18 0-7.13 4.82-7.13 9.8v18.9H30.17v-38.2h11.38v5.23h.16c1.6-3 5.46-6.17 11.24-6.17 12 0 14.23 7.9 14.23 18.2v20.93z"/></symbol><symbol viewBox="0 0 78 102" id="icon--note"><path d="M2 2h74v98H2zm15 29h44M17 45h44M17 58h44M17 71h25" fill="none" stroke="#333" stroke-width="4" stroke-linecap="round" stroke-linejoin="round" stroke-miterlimit="10"/></symbol><symbol viewBox="0 0 36.8 53" id="icon--pb"><path d="M17.2 0H0v39.2L14 53V40h3.2c10.8 0 19.6-9.2 19.6-20S28 0 17.2 0zm.8 28h-7V12.4l5-5.7V12h2c4.4 0 8 3.6 8 8s-3.6 8-8 8z"/></symbol><symbol viewBox="11.751 0 51.998 214.1" id="icon--pencil"><path fill="#333" d="M61.75 0c-1.1 0-2 .9-2 2v182.8c0 3.2-2.8 6-6 6-3.25 0-6-2.75-6-6V122c0-1.1-.9-2-2-2s-2 .9-2 2v62.8c0 3.3-2.7 6-6 6s-6-2.7-6-6V84c0-1.1-.9-2-2-2s-2 .9-2 2v100.8c0 3.3-2.7 6-6 6-1.6 0-3.05-.63-4.13-1.65l-.06-.07c-.02 0-.03-.02-.05-.04a6.048 6.048 0 0 1-1.75-4.24V99c0-1.1-.9-2-2-2s-2 .9-2 2v85.8c0 2.8 1.15 5.3 3 7.13l21.6 21.5a1.992 1.992 0 0 0 2.8-.01l21.5-21.4c.12-.1.2-.24.3-.36 1.72-1.8 2.8-4.23 2.8-6.86V2c0-1.1-.9-2-2-2zm-24 209.18l-3-3c1.9-1.08 4.2-1.1 6.06-.05l-3.05 3.05zm5.97-5.94c-3.52-2.54-8.3-2.52-11.9.05l-8.63-8.62c2.66-.38 5-1.82 6.55-3.9a9.952 9.952 0 0 0 8 4.02c3.3 0 6.2-1.6 8.03-4.04 1.56 2.06 3.9 3.52 6.53 3.92l-8.58 8.56z"/></symbol><symbol viewBox="0 0 47 14" id="icon--rbs"><g transform="translate(.748 .133)" fill-rule="evenodd"><path d="M12.399 6.62h-2.163c-.46 0-.886-.272-1.022-.68-.392-1.141-1.517-1.55-1.517-1.55a1.092 1.092 0 0 1-.714-1.02V1.207c0-.594.493-1.07 1.09-1.07.595 0 1.072.442 1.072 1.07L9.13 2.944l2.504-2.5a1.08 1.08 0 0 1 1.532 0 1.097 1.097 0 0 1 0 1.547l-2.47 2.45H12.4c.596 0 1.09.494 1.09 1.09 0 .596-.494 1.089-1.09 1.089m-.017 2.62l-1.737-.017 2.503 2.501a1.077 1.077 0 0 1 0 1.531 1.078 1.078 0 0 1-1.532 0l-2.47-2.467v1.703c0 .646-.494 1.088-1.09 1.088-.597 0-1.09-.493-1.09-1.088v-2.162c0-.46.289-.885.698-1.021 1.141-.392 1.533-1.514 1.533-1.514a1.11 1.11 0 0 1 1.022-.714h2.163c.596 0 1.09.493 1.09 1.089 0 .594-.443 1.07-1.09 1.07m-6.965 4.323c-.596 0-1.074-.391-1.057-1.071l.017-1.737-2.503 2.501c-.426.427-1.124.427-1.533 0-.426-.424-.426-1.123 0-1.53l2.453-2.468H1.107c-.613 0-1.09-.494-1.09-1.088 0-.596.477-1.09 1.09-1.09H3.27c.46 0 .87.273 1.022.681.392 1.156 1.5 1.548 1.5 1.548.426.153.715.544.715 1.02v2.163c0 .595-.477 1.071-1.09 1.071m.391-9.155c-1.14.409-1.533 1.515-1.533 1.515a1.112 1.112 0 0 1-1.022.715H1.09C.494 6.637 0 6.144 0 5.547c0-.595.409-1.071 1.09-1.071l1.737.017L.324 1.99a1.077 1.077 0 0 1 0-1.53 1.08 1.08 0 0 1 1.532 0l2.47 2.466V1.225c0-.594.478-1.087 1.09-1.087.597 0 1.074.493 1.074 1.087v2.161c0 .46-.272.886-.682 1.021M40.993 13.647c-1.159 0-2.623-.187-3.355-.408l.58-2.383c.527.239 1.702.613 2.775.613 1.294 0 2.265-.562 2.265-1.702 0-.97-.596-1.479-2.265-2.126-1.703-.663-3.116-1.48-3.116-3.897 0-2.365 1.872-3.675 4.717-3.675 1.21 0 2.436.239 3.168.477L45.2 2.859c-.494-.272-1.448-.613-2.606-.613-1.38 0-1.993.528-1.993 1.43 0 .919.681 1.26 2.163 1.906 2.045.868 3.322 1.736 3.322 4.015 0 2.519-2.01 4.05-5.093 4.05m-9.146-5.954h-1.565v3.81h1.65c1.295 0 2.3-.51 2.3-1.924 0-1.29-.937-1.886-2.385-1.886m.017-5.43h-1.582v3.455h1.463c1.107 0 2.06-.595 2.06-1.787 0-1.123-.68-1.668-1.941-1.668M32 13.528h-4.29V.24h4.512c2.59 0 4.292 1.257 4.292 3.47 0 1.566-1.039 2.45-2.027 2.842 1.363.358 2.47 1.293 2.47 3.045 0 2.314-1.789 3.931-4.957 3.931M21.136 2.28h-1.312v3.795h1.022c1.38 0 2.383-.595 2.383-1.889 0-1.14-.732-1.906-2.093-1.906m2.468 11.248c-.8-1.617-2.246-4.17-3.098-5.495h-.682v5.495H17.27V.24h4.207c2.775 0 4.428 1.325 4.428 3.98 0 1.821-1.312 2.945-2.691 3.404.885 1.207 2.589 4.168 3.44 5.904h-3.05"/></g></symbol><symbol viewBox="0 0 115 20" id="icon--vodafone"><title>vodafone</title><g fill-rule="evenodd"><path d="M13.537.864A9.535 9.535 0 0 0 9.562 0C4.277 0 0 4.303 0 9.62c0 5.36 4.277 9.662 9.562 9.662 5.285 0 9.602-4.303 9.602-9.661A9.63 9.63 0 0 0 13.62.903l.062-.03a9.284 9.284 0 0 0-.146-.01zm0 0l.084.039c-1.665.835-2.796 2.369-2.854 4.137 2.475.425 4.366 2.527 4.366 5.06 0 2.863-2.378 5.162-5.29 5.162-3.22 0-5.415-2.834-5.359-6.01 0-4.642 3.851-8.4 8.61-8.4.149 0 .296.004.443.012zM73.844 15.944h3.07V7.696h2.804V4.851h-2.803v-.437c0-1.66 1.917-1.474 3.19-1.224V.52c-4.29-.936-6.224.39-6.26 3.539v11.885zM24.506 4.814h3.29l2.788 6.942 2.789-6.942h3.288L32.23 15.85l-.016.04h-3.258l-.016-.04-4.433-11.035zm85.14 2.426c1.016 0 1.887.804 2.253 1.944h-4.507c.366-1.14 1.237-1.944 2.253-1.944zm-.222-2.597c2.884 0 5.222 2.572 5.222 5.742 0 .404-.038.797-.11 1.176h-7.151c.18.392.326.747.526 1.052.966.936 1.701 1.098 3.105 1.098 1.218 0 2.112-.167 2.78-.456l.359-.07.01 2.041c-1.439 1.068-3.466.93-4.74.93-2.884 0-5.222-2.6-5.222-5.77 0-3.171 2.338-5.743 5.221-5.743zM92.5 15.935v.07h2.962v-.07h.069V7.866a8.76 8.76 0 0 1 2.176-.292c1.605.068 2.383 1.017 2.333 2.714v5.717h3.138v-5.823c.115-3.465-1.7-5.268-5.443-5.406-1.732.022-3.49.22-5.235.77v10.389zm-6.85-8.683c1.347 0 2.439 1.403 2.439 3.133s-1.092 3.134-2.438 3.134-2.438-1.404-2.438-3.134 1.092-3.133 2.438-3.133zm0-2.609c3.152 0 5.708 2.571 5.708 5.742s-2.556 5.743-5.707 5.743c-3.15 0-5.707-2.572-5.707-5.743 0-3.17 2.556-5.742 5.707-5.742zm-16.74 2.97v4.795c-.006.338-.733 1.098-2.051 1.085-1.319-.013-2.35-1.29-2.35-3.02 0-2.21 2.073-3.748 4.4-2.86zm.214 8.392h2.803V5.404c-1.732-.406-3-.673-5.09-.673-3.15 0-5.706 2.572-5.706 5.742 0 3.171 2.473 5.668 4.795 5.668 2.321 0 2.547-.73 3.19-.982l.008.846zm-12.166-2.842V7.608a3.156 3.156 0 0 0-1.46-.356 3.143 3.143 0 0 0-3.152 3.133 3.143 3.143 0 0 0 3.152 3.134c.527 0 1.023-.13 1.46-.356zm0-12.691h3.018v15.212a27.75 27.75 0 0 1-5.09.444c-3.151 0-5.707-2.572-5.707-5.743 0-3.17 2.556-5.742 5.707-5.742.73 0 1.43.138 2.072.39V.472zm-14.662 6.78c1.346 0 2.438 1.403 2.438 3.133s-1.092 3.134-2.438 3.134-2.438-1.404-2.438-3.134 1.092-3.133 2.438-3.133zm0-2.609c3.152 0 5.707 2.571 5.707 5.742s-2.555 5.743-5.707 5.743c-3.15 0-5.707-2.572-5.707-5.743 0-3.17 2.556-5.742 5.707-5.742z"/></g></symbol></svg>