<svg width="0" height="0" style="position:absolute"><symbol viewBox="0 0 300 86.219" id="icon--bbc" xmlns="http://www.w3.org/2000/svg"><g fill="#fff"><path d="M162.5 55.573c0 9.26-11.521 8.71-11.521 8.71h-11.523V47.55h11.523c11.865-.069 11.522 8.024 11.522 8.024m-23.045-33.538h8.78c9.121.48 8.778 7.27 8.778 7.27 0 8.436-10.082 8.573-10.082 8.573h-7.476V22.035zm20.92 19.135s7.886-3.36 7.818-12.277c0 0 1.199-14.608-18.159-16.391h-21.484v61.246h24.623s20.575.069 20.575-17.284c0 0 .48-11.796-13.374-15.294M104.784.5h90.432v85.22h-90.432V.5zM58.217 55.573c0 9.26-11.522 8.71-11.522 8.71H35.172V47.55h11.523c11.865-.069 11.522 8.024 11.522 8.024M35.172 22.035h8.78c9.121.48 8.778 7.27 8.778 7.27 0 8.436-10.082 8.573-10.082 8.573h-7.476V22.035zm20.92 19.135s7.886-3.36 7.818-12.277c0 0 1.199-14.608-18.159-16.391H24.267v61.246H48.89s20.575.069 20.575-17.284c0 0 .48-11.796-13.374-15.294M.5.5h90.432v85.22H.5V.5zM281.05 16.892V28.21s-11.042-6.79-23.25-6.928c0 0-22.77-.444-23.799 21.829 0 0-.823 20.489 23.525 21.655 0 0 10.22 1.234 24.073-7.613V68.88s-18.586 11.042-40.122 2.537c0 0-18.107-6.617-18.793-28.307 0 0-.755-22.308 23.388-29.716 0 0 6.447-2.469 18.038-1.372 0 0 6.927.687 16.94 4.87M209.068 85.72H299.5V.5h-90.432v85.22z"/></g></symbol><symbol viewBox="22.994 -210.616 767.01 150" preserveAspectRatio="xMinYMin meet" id="icon--bower" xmlns="http://www.w3.org/2000/svg"><path d="M154.833-135.215v-.4c0-41.25 32.52-75 77.27-75 44.75 0 76.86 33.35 76.86 74.6v.4c0 41.23-32.52 75-77.27 75s-76.9-33.38-76.9-74.6h.04zm120.781 0v-.4c0-24.88-18.25-45.6-43.92-45.6-25.68 0-43.5 20.321-43.5 45.2v.4c0 24.88 18.23 45.6 43.899 45.6 25.7 0 43.5-20.32 43.5-45.199h.021v-.001zm30-72.901h34.2l30.029 98.2 32.52-98.64h27.381l32.5 98.629 30.049-98.189h33.4l-49.6 146.04h-27.75l-32.721-94.899-32.75 94.899h-27.75l-49.5-146.06v.02h-.008zm231.9 0h109.4v28.38h-77.701v29.399h68.381v28.381h-68.381v30.47h78.73v28.37h-110.43v-145zm127.14 0h66.299c18.441 0 32.75 5.16 42.25 14.7 8.1 8.08 12.461 19.46 12.461 33.14v.42c0 23.43-12.65 38.131-31.08 44.971l35.42 51.77h-37.301l-31.08-46.38h-25.049v46.38h-31.9v-145h-.02zm64.229 70.42c15.541 0 24.451-8.279 24.451-20.5v-.42c0-13.68-9.52-20.7-25.061-20.7h-31.699v41.601h32.299v.02h.01zm-608.999-1.23c10.37-5.819 19.35-14.949 19.35-31.299v-.39c0-9.96-3.6-18.04-10.23-24.68-7.3-7.3-18.45-11.92-32.3-12.87l-27.91 27.55h17.25c13.47 0 20.7 5.84 20.7 15.38v.399c0 10.781-8.68 15.471-22.75 15.471h-29.75v-16.58l-31.25 31.08v71.75h69.5c32.73 0 54.25-13.25 54.25-39.75v-.42c0-19.5-10.07-29.23-26.85-35.63l-.01-.011zm-4.4 32.1c0 10.76-8.93 16.2-23 16.2h-38.24v-32.49h37.2c16.38 0 24.05 6.15 24.05 15.88v.42l-.01-.01z"/></symbol><symbol id="icon--bp" viewBox="0 0 225.74 300" xmlns="http://www.w3.org/2000/svg"><defs><style>.ccls-1{fill-rule:evenodd}</style></defs><path class="ccls-1" d="M174.57 35.36c0 6.54-2.32 15.57-11.58 15.57-11.17 0-11.17-12.54-11.17-15.17s0-16 11.49-16c10.46 0 11.26 11.57 11.26 15.57zM152 .39h-7.51v48.22l-.16 7.19h7.26l.16-6.07a12.87 12.87 0 0 0 3.92 4.07 15.81 15.81 0 0 0 8.94 2.56 16.94 16.94 0 0 0 14-6.87c2-2.64 3.83-6.87 3.83-14.62 0-8.78-2.71-12.77-4.71-15.08-3.67-4.16-8.7-5.11-12.69-5.11-9.1 0-12.06 5-13.09 6.86V.39zM195.41 37c0-3.59 0-16.29 12-16.29 8.86 0 11 7.51 11 14.7 0 2.87-.4 8.62-3.27 12.53-2.56 3.51-6.56 3.91-8.47 3.91-10.53 0-11.25-10-11.25-14.85zm-7.18 34.2h7.42V51.32c2.15 3.52 6.46 6 12.29 6 9.59 0 18.28-6.55 18.28-21.47S218 15.08 209.38 15.08c-3.27 0-9.9 1-13.65 7.26l-.16-6.62H188c.17 3.83.25 4.79.25 6.54V71.2zM113.32 71.21a162.24 162.24 0 0 1 13.79 25.08 111.85 111.85 0 0 0-13.79 18.51 111.14 111.14 0 0 0-13.77-18.51 163.76 163.76 0 0 1 13.77-25.08zM113.32 256.8a112.21 112.21 0 0 0 13.79 18.5 160 160 0 0 1-13.79 25.09 162.49 162.49 0 0 1-13.77-25.09 110.52 110.52 0 0 0 13.77-18.5zM74.14 78.12A162.53 162.53 0 0 1 95.67 97a110.89 110.89 0 0 0-6.62 22.09 111.86 111.86 0 0 0-19.28-12.67 161.66 161.66 0 0 1 4.37-28.29zM137.62 252.53a112.35 112.35 0 0 0 19.27 12.67 161.18 161.18 0 0 1-4.37 28.29A165.19 165.19 0 0 1 131 274.62a111.58 111.58 0 0 0 6.64-22.09zM39.67 98a162.12 162.12 0 0 1 26.69 10.37c-.07 1.77-.14 3.54-.14 5.28a107.05 107.05 0 0 0 1.45 17.73 111.43 111.43 0 0 0-22.43-5.3A163.33 163.33 0 0 1 39.67 98zM160.44 258a108.59 108.59 0 0 0-1.44-17.8 110.66 110.66 0 0 0 22.42 5.3 162.53 162.53 0 0 1 5.58 28.08 160.83 160.83 0 0 1-26.68-10.36c.07-1.77.13-3.54.13-5.27zM42.71 129.13a112.47 112.47 0 0 0 9.11 21.14A110.8 110.8 0 0 0 28.94 153a160.68 160.68 0 0 1-14.84-24.5 161.21 161.21 0 0 1 28.61.63zM197.73 218.61a162.51 162.51 0 0 1 14.84 24.49 163.06 163.06 0 0 1-28.62-.62 111.36 111.36 0 0 0-9.11-21.15 109.69 109.69 0 0 0 22.89-2.72zM27.59 156.68a110.5 110.5 0 0 0 15.81 16.79 111 111 0 0 0-20.6 10.36A161.69 161.69 0 0 1 .48 165.9a162.59 162.59 0 0 1 27.11-9.22zM203.87 187.77a162 162 0 0 1 22.31 17.93 161.51 161.51 0 0 1-27.11 9.21 110.32 110.32 0 0 0-15.82-16.77 112.2 112.2 0 0 0 20.62-10.37zM22.8 187.77a111.74 111.74 0 0 0 20.6 10.37 110.75 110.75 0 0 0-15.81 16.77A161.84 161.84 0 0 1 .48 205.7a161.69 161.69 0 0 1 22.32-17.93zM199.07 156.68a162.26 162.26 0 0 1 27.11 9.22 163.49 163.49 0 0 1-22.31 17.93 111.51 111.51 0 0 0-20.62-10.36 109.57 109.57 0 0 0 15.82-16.79zM28.94 218.61a109.45 109.45 0 0 0 22.88 2.72 112 112 0 0 0-9.11 21.15 163 163 0 0 1-28.61.62 162 162 0 0 1 14.84-24.49zM212.57 128.5a161.51 161.51 0 0 1-14.84 24.5 111.13 111.13 0 0 0-22.89-2.72 111.64 111.64 0 0 0 9.16-21.16 162.07 162.07 0 0 1 28.62-.62zM67.67 240.2a107.48 107.48 0 0 0-1.45 17.8c0 1.73.07 3.5.14 5.27a161.87 161.87 0 0 1-26.69 10.36 163.51 163.51 0 0 1 5.57-28.08 111.08 111.08 0 0 0 22.43-5.3zM187 98a162.35 162.35 0 0 1-5.57 28.08A110.82 110.82 0 0 0 159 131.4a108.29 108.29 0 0 0 1.44-17.74c0-1.74-.06-3.5-.14-5.27A161.44 161.44 0 0 1 187 98zM89 252.53a112 112 0 0 0 6.63 22.09 163.29 163.29 0 0 1-21.53 18.87 162.31 162.31 0 0 1-4.37-28.29A112.35 112.35 0 0 0 89 252.53zM152.52 78.11a161.8 161.8 0 0 1 4.37 28.3 111.76 111.76 0 0 0-19.27 12.67A111.65 111.65 0 0 0 131 97a164.67 164.67 0 0 1 21.54-18.88zM98.15 99.75a104.59 104.59 0 0 1 13.29 18.37 77.42 77.42 0 0 0-6.9 17.8A77.94 77.94 0 0 0 92 121.56a104.76 104.76 0 0 1 6.19-21.81zM122.13 235.69A77.19 77.19 0 0 0 134.71 250a105.68 105.68 0 0 1-6.2 21.82 104.87 104.87 0 0 1-13.29-18.38 78.31 78.31 0 0 0 6.91-17.79zM69.54 113.67c0-1.17.06-2.36.09-3.55a105.16 105.16 0 0 1 18.78 12.73 81.39 81.39 0 0 0-.86 11.43 74 74 0 0 0 .45 7.65 78 78 0 0 0-16.73-9.2 101.64 101.64 0 0 1-1.73-19.06zM139.11 237.32a74.48 74.48 0 0 0-.45-7.66 77.23 77.23 0 0 0 16.74 9.21 102.66 102.66 0 0 1 1.71 19.13c0 1.16-.05 2.35-.07 3.53a105.31 105.31 0 0 1-18.8-12.72 80.3 80.3 0 0 0 .87-11.44zM46.39 129.64a106.71 106.71 0 0 1 22 5.52 77.55 77.55 0 0 0 6.15 18.09 77.39 77.39 0 0 0-18.87-2.93 105.41 105.41 0 0 1-9.27-20.68zM152.12 218.35a77.88 77.88 0 0 0 18.88 2.94 104.88 104.88 0 0 1 9.27 20.71 104.82 104.82 0 0 1-22-5.54 77.18 77.18 0 0 0-6.16-18.08zM53.76 153.58a78 78 0 0 0 12 14.9 78.13 78.13 0 0 0-18.76 3.7 104.63 104.63 0 0 1-15.79-16.27 106.35 106.35 0 0 1 22.55-2.33zM179.66 199.41a105.29 105.29 0 0 1 15.8 16.29 106.35 106.35 0 0 1-22.55 2.3 79.23 79.23 0 0 0-12-14.91 77.58 77.58 0 0 0 18.73-3.71zM46.35 175.91a77.42 77.42 0 0 0 16.33 9.9 76.74 76.74 0 0 0-16.33 9.88A105 105 0 0 1 26 185.81a104 104 0 0 1 20.4-9.9zM180.31 175.91a104.19 104.19 0 0 1 20.4 9.89 104.74 104.74 0 0 1-20.4 9.89 76.74 76.74 0 0 0-16.31-9.88 77.67 77.67 0 0 0 16.33-9.9zM47 199.41a77.58 77.58 0 0 0 18.73 3.71 78 78 0 0 0-12 14.91 106.22 106.22 0 0 1-22.55-2.33A105.25 105.25 0 0 1 47 199.41zM195.46 155.91a105.12 105.12 0 0 1-15.8 16.27 78 78 0 0 0-18.73-3.7 79.16 79.16 0 0 0 12-14.9 106.35 106.35 0 0 1 22.55 2.33zM74.53 218.35a77.62 77.62 0 0 0-6.15 18.08 105 105 0 0 1-22 5.54 104.88 104.88 0 0 1 9.27-20.68 77.88 77.88 0 0 0 18.87-2.94zM180.27 129.63a105.24 105.24 0 0 1-9.27 20.69 77.4 77.4 0 0 0-18.88 2.93 77.1 77.1 0 0 0 6.16-18.09 105 105 0 0 1 22-5.53zM104.54 235.69a77.35 77.35 0 0 0 6.9 17.79 104.65 104.65 0 0 1-13.29 18.38A104.67 104.67 0 0 1 92 250a77.88 77.88 0 0 0 12.58-14.35zM88 229.66a74.68 74.68 0 0 0-.45 7.67 83.23 83.23 0 0 0 .85 11.43 105 105 0 0 1-18.77 12.72c0-1.18-.09-2.37-.09-3.54a101.75 101.75 0 0 1 1.73-19.07A77.15 77.15 0 0 0 88 229.66zM128.5 99.74a105.2 105.2 0 0 1 6.21 21.81 77.94 77.94 0 0 0-12.58 14.37 78.09 78.09 0 0 0-6.91-17.8 105.32 105.32 0 0 1 13.28-18.38zM157 110.12c0 1.19.09 2.37.09 3.54a102.55 102.55 0 0 1-1.71 19.07 78.08 78.08 0 0 0-16.74 9.21 74.15 74.15 0 0 0 .45-7.66 80.3 80.3 0 0 0-.87-11.44A106.39 106.39 0 0 1 157 110.12zM90.88 134.28a77.94 77.94 0 0 1 .55-8.67 72.17 72.17 0 0 1 12.11 14.87 64.34 64.34 0 0 0-1 11.33c0 1.64.11 3.29.23 4.92a65.51 65.51 0 0 0-11-11.94 67.07 67.07 0 0 1-.82-10.51zM124.15 219.79c0-1.65-.12-3.28-.25-4.93a66 66 0 0 0 11.06 12 66.64 66.64 0 0 1 .83 10.5 77.83 77.83 0 0 1-.56 8.67 72.29 72.29 0 0 1-12.12-14.87 64.45 64.45 0 0 0 1-11.33zM72.16 136.74a71.53 71.53 0 0 1 16.47 9.82 65.74 65.74 0 0 0 4.82 15.56A64.42 64.42 0 0 0 79 154.67a72.45 72.45 0 0 1-6.81-17.93zM133.2 209.48a64.53 64.53 0 0 0 14.49 7.46 72.39 72.39 0 0 1 6.82 17.92A71.25 71.25 0 0 1 138 225a65.33 65.33 0 0 0-4.84-15.56zM57.86 153.78a72.12 72.12 0 0 1 18.83 3.59 65.75 65.75 0 0 0 9.86 13 64.89 64.89 0 0 0-16.19-2.09 72.15 72.15 0 0 1-12.5-14.48zM140.1 201.26a65.38 65.38 0 0 0 16.21 2.08 71.94 71.94 0 0 1 12.49 14.49 72.36 72.36 0 0 1-18.84-3.6 64.28 64.28 0 0 0-9.86-13zM69.18 171.61a65 65 0 0 0 13.66 8.8A65.66 65.66 0 0 0 67 184a71.71 71.71 0 0 1-16.74-9.35 72.23 72.23 0 0 1 18.93-3.07zM159.66 187.56a71.76 71.76 0 0 1 16.74 9.37 71.72 71.72 0 0 1-18.92 3.07 65 65 0 0 0-13.68-8.8 64.76 64.76 0 0 0 15.86-3.63zM67 187.56a65.67 65.67 0 0 0 15.86 3.64 65 65 0 0 0-13.68 8.8 71.73 71.73 0 0 1-18.93-3.06A72.16 72.16 0 0 1 67 187.56zM157.48 171.61a72.16 72.16 0 0 1 18.92 3.07 71.31 71.31 0 0 1-16.74 9.32 65.31 65.31 0 0 0-15.86-3.62 64.36 64.36 0 0 0 13.68-8.8zM86.56 201.26a65.07 65.07 0 0 0-9.87 13 72.12 72.12 0 0 1-18.83 3.6 71.94 71.94 0 0 1 12.5-14.49 65.49 65.49 0 0 0 16.2-2.08zM168.8 153.78a72.43 72.43 0 0 1-12.49 14.48 64.92 64.92 0 0 0-16.21 2.09 65 65 0 0 0 9.86-13 72.35 72.35 0 0 1 18.84-3.59zM113.32 216.73a65.9 65.9 0 0 0 6.31 15 71.59 71.59 0 0 1-6.31 18.11 72.34 72.34 0 0 1-6.3-18.11 64.56 64.56 0 0 0 6.3-15zM102.75 214.86c-.12 1.65-.23 3.28-.23 4.93a64.34 64.34 0 0 0 1 11.33A72.17 72.17 0 0 1 91.43 246a75.43 75.43 0 0 1-.55-8.66 66.88 66.88 0 0 1 .82-10.51 66 66 0 0 0 11-12zM93.45 209.48A65.74 65.74 0 0 0 88.63 225a71.46 71.46 0 0 1-16.47 9.82A72.07 72.07 0 0 1 79 216.94a64.46 64.46 0 0 0 14.48-7.46zM113.32 121.76a72 72 0 0 1 6.32 18.1 65.38 65.38 0 0 0-6.32 15 64.88 64.88 0 0 0-6.3-15 72.27 72.27 0 0 1 6.3-18.1zM135.23 125.61a78 78 0 0 1 .56 8.67 68.2 68.2 0 0 1-.82 10.51 65.94 65.94 0 0 0-11.07 11.94c.13-1.63.25-3.28.25-4.92a64.36 64.36 0 0 0-1-11.33 72.56 72.56 0 0 1 12.12-14.87zM154.51 136.74a72.46 72.46 0 0 1-6.82 17.93 64.49 64.49 0 0 0-14.49 7.45 65.33 65.33 0 0 0 4.8-15.56 70.9 70.9 0 0 1 16.47-9.82z" transform="translate(-.48 -.39)"/></symbol><symbol viewBox="0 0 84.8 112.9" id="icon--bracket" xmlns="http://www.w3.org/2000/svg"><path d="M35 111c-40 0-8.4-54.5-33-54.5C26.6 56.5-5 2 35 2m14.7 0c40 0 8.5 54.5 33 54.5-24.5 0 7 54.4-33 54.4" fill="none" stroke="#333" stroke-width="4" stroke-linecap="round" stroke-linejoin="round" stroke-miterlimit="10"/></symbol><symbol viewBox="0 0 59 26" id="icon--bupa" xmlns="http://www.w3.org/2000/svg"><path d="M29.853 13.8c1.484 0 2.28-.651 2.762-1.397l-.026.113c-.14.698.444 1.127.994 1.127h.478l1.328-7.501h-1.643l-.219 1.145c-.297-.592-1.135-1.3-2.488-1.3-2.388 0-3.805 1.955-4.041 4.038-.272 2.382 1.275 3.776 2.855 3.776zm1.423-6.59c2.753.151 1.857 5.379-.942 5.224-2.53-.139-1.744-5.373.942-5.225zM8.627 5.634c0-1.696-1.096-2.485-3.02-2.485-1.186 0-3.05-.004-3.728-.004L0 13.643l3.412-.002c.78 0 1.522-.025 1.94-.112 1.915-.402 2.693-1.786 2.847-2.801.213-1.405-.68-2.334-1.694-2.558.761-.165 2.122-.944 2.122-2.535zm-4.003 6.718c-.213.053-.555.08-1.27.08H2.112l.628-3.519H4.58c2.43 0 2.21 2.905.043 3.439zm.723-4.784c-.235.077-.546.099-1.113.099h-1.27l.596-3.36h1.663c1.996 0 1.84 2.7.124 3.26zm10.534-1.42h-.492s-.724 4.122-.805 4.591c-.175 1.01-.665 1.7-2.041 1.7-.781 0-1.545-.47-1.366-1.522.07-.406.59-3.401.634-3.642.144-.81-.55-1.126-1.123-1.126h-.434c-.107.625-.582 3.26-.764 4.293-.074.415-.1.837-.069 1.11.163 1.399 1.4 2.253 2.93 2.253 2.64 0 3.633-1.372 3.949-3 .103-.538.604-3.257.643-3.53.115-.81-.558-1.126-1.062-1.126zm2.715 10.453l.766-4.137c.298.59 1.147 1.341 2.5 1.341 2.437 0 3.945-1.89 4.097-4.104.16-2.352-1.23-3.706-2.843-3.706-1.4 0-2.352.676-2.838 1.38l.021-.1c.152-.724-.469-1.126-.995-1.126h-.522s-1.42 8.07-1.616 9.043c-.23 1.143.704 1.409 1 1.409h.43zm3.973-9.26c2.53.14 1.742 5.388-.944 5.24-2.752-.15-1.856-5.395.944-5.24zm35.395 9.457c-.705 0-1.664-.04-2.238-.234-.675-.23-1.27-.686-1.902-1.17-.317-.241-.644-.492-.997-.725-.43-.284-.789-.417-1.132-.417-.46 0-.909.248-1.452.807-.737.754-1.912 2.464-2.38 3.164-.032.043-.07.092-.13.092-.116 0-.118-.15-.118-.2-.024-1.957-.332-12.64-.547-15.83C46.972.877 46.532 0 45.916 0c-.493 0-1.233.653-1.697 2.493-1.179 4.686-3.694 15.1-4.775 20.39-.033.146-.196.146-.228 0-.12-.54-.227-1.154-.329-1.67-.322-1.632-.601-3.042-1.153-3.817-.629-.88-1.559-.936-2.685-.194a7.85 7.85 0 0 0-.742.587c-.723.618-1.54 1.32-2.899 1.32H18.135l-.326 1.749h13.968c1.427 0 2.753-.818 3.544-1.382.4-.286.68-.452.902-.452.306 0 .443.31.557.775.057.228.125.543.203.908.265 1.208.662 3.112 1.166 4.378.235.59.583.915.983.915.61 0 1.233-.717 1.584-1.827.471-1.48 3.295-13.641 4.487-18.734.049-.21.076-.326.08-.336.02-.09.08-.149.15-.149.062 0 .132.053.135.168v.019c.091 5.153.349 14.205.735 15.135.213.513.54.786.947.786.47 0 1.035-.378 1.436-.96.203-.292.46-.674.734-1.078.674-.996 1.439-2.123 1.663-2.365.338-.354.724-.354 1.274.017.079.054.175.123.286.203.586.422 1.566 1.003 2.667 1.305.73.198 1.67.24 2.329.24.426 0 .878-.016 1.01-.024l.302-1.621c-.159.008-.588.02-.987.02z" fill-rule="evenodd"/></symbol><symbol viewBox="0 0 41.551 41.551" id="icon--close" xmlns="http://www.w3.org/2000/svg"><path fill="none" stroke="#fff" stroke-width="4" stroke-linecap="round" stroke-linejoin="round" stroke-miterlimit="10" d="M2 39.6L39.6 2M2 2l37.6 37.6"/></symbol><symbol viewBox="50 40 300 20" id="icon--fifa" xmlns="http://www.w3.org/2000/svg"><path fill-rule="evenodd" d="M81.363 12.92v80.696h25.488V64.48h17.71l6.89-17.64h-24.6V30.47h29.94l6.53-17.548H81.36m69.748-.002l-.046 80.696h25.192V12.92H151.11m124.01 54.338l9.705-33.6 10.053 33.6H275.12zm23.194-54.338h-26.158l-29.004 80.704h24.35l3.133-10.852h28.383l3.282 10.852h25.094l-29.08-80.704m-104.662 0v80.696h25.473V64.48h17.69l6.935-17.64h-24.625V30.47h29.947l6.578-17.548h-61.998" fill="#fff"/></symbol><symbol viewBox="-1 11 80 80" id="icon--github" xmlns="http://www.w3.org/2000/svg"><path d="M39 11C17 11-1 29.4-1 52c0 18 11.5 33.5 27.4 39 2 .3 2.7-1 2.7-2v-7.7c-11 2.5-13.4-4.8-13.4-4.8-2-4.8-4.5-6-4.5-6-3.5-2.6.4-2.5.4-2.5 4 .3 6 4.2 6 4.2 3.7 6.3 9.5 4.5 11.8 3.4.3-2.6 1.4-4.4 2.5-5.5-9-1-18.2-4.4-18.2-20 0-4.6 1.5-8.3 4-11-.3-1.2-1.7-5.3.5-11 0 0 3.3-1 11 4.2 3.2-1 6.6-1.3 10-1.4 3.4 0 6.8.5 10 1.4C56.6 27 60 28 60 28c2.2 5.7.8 9.8.4 11 2.6 2.7 4 6.4 4 11 0 15.6-9.2 19-18.2 20 1.5 1.4 2.8 4 2.8 7.7V89c0 1 .6 2.3 2.7 2C67.5 85.4 79 70 79 52c0-22.6-18-41-40-41z"/></symbol><symbol viewBox="0 0 500 129.78" id="icon--greygoose" xmlns="http://www.w3.org/2000/svg"><g data-name="Layer 2"><g data-name="Layer 1"><path d="M114.59 127.56l1.38 1.43h28.7l5.84-13.68-2.57 1.03-4.75 11.22h-28.6zm11.85-9.27v-14.37h2.25a14.64 14.64 0 0 1 3.43.76c1 .46 4.78 2 4.78 2l5.8-9.82h2.58l-6.72 11.25-4.93-2a10.86 10.86 0 0 0-3.82-.68H128v12.81zm0-23.55V80.87h2a22 22 0 0 1 2.66.2 14.88 14.88 0 0 1 2.9.93c.77.38 5.09 2.64 5.09 2.64l5.63-10.56 1.47 1.81L140.73 86l-5-2.5a6.23 6.23 0 0 0-1.92-.69 19.44 19.44 0 0 0-3.06-.36c-1.15-.06-2.74 0-2.74 0v12.29zm337.64 32.82l1.37 1.43h28.72l5.83-13.68-2.58 1.03-4.75 11.22h-28.59zm11.84-9.27v-14.37h2.25a14.53 14.53 0 0 1 3.43.76c1 .46 4.78 2 4.78 2l5.8-9.82h2.59l-6.77 11.3-4.92-2a11 11 0 0 0-3.83-.68h-1.83v12.81zm0-23.55V80.87h2a21.85 21.85 0 0 1 2.65.2 15.22 15.22 0 0 1 2.84.9c.77.38 5.09 2.64 5.09 2.64l5.64-10.56 1.45 1.81L490.21 86l-5-2.5a6.23 6.23 0 0 0-1.91-.69 19.72 19.72 0 0 0-3.06-.36c-1.15-.06-2.75 0-2.75 0v12.29zM77.09 98l-1.52.43V80.87a29.07 29.07 0 0 1 3.09.84 11.15 11.15 0 0 1 3.58 2.19s-2-.83-3.21-1.2a12.43 12.43 0 0 0-1.94-.4V98zm10.1 5.57s5.23-2.62 7.26-6.91c4.43-9.38-.43-16.2-.43-16.2s6.63 6.44 2.26 17.14c-2 5-7.92 7.75-7.92 7.75l-1.17-1.78zm-23.65 25.59l.57-1.49h13.6l-1.31-3.43a12.15 12.15 0 0 1-.63-2.23c-.11-.92-.22-2.18-.22-2.18v-11.84l1.45 1.77v11.56a6.27 6.27 0 0 0 .23 2.24c.35.91 1.89 5.6 1.89 5.6zm30.51-1.6l1.51 1.43h9.21l-1.37-1.43h-9.35zM14.5 111.14S10 107 13 94.65c1.78-7.32 7.56-11.65 15.23-11.78A32.35 32.35 0 0 1 47 88.7V75.77h-.12l-1.37-.34v11.44S36 81.38 28.12 81.15c-6-.18-13.85 1.72-16.7 12.13-3.49 12.72 3.08 17.86 3.08 17.86zm-6.06 11.22s6.63 6 19.45 5.94a56.77 56.77 0 0 0 22-4.52 13.47 13.47 0 0 1-.92-2.69 19.14 19.14 0 0 1-.45-4.81v-9.73a11.67 11.67 0 0 1 .51-3.31 20.16 20.16 0 0 1 1.2-3.32h2s-1.31 1.89-1.94 6.24c-.33 2.34-.17 12.42-.17 12.42a15.63 15.63 0 0 0 .45 4.17 18.13 18.13 0 0 1 .75 2.81s-1.38 1.19-9.72 2.92c-22.65 4.69-33.12-6.12-33.12-6.12zm163.43 5.16H185l-1-2.62a14.09 14.09 0 0 1-.65-1.9 10.41 10.41 0 0 1-.25-2v-18.68l16-28.18h2.5l-17 29.86.05 18.26a7.58 7.58 0 0 0 .12 1.51c.13.82.28 1.63.28 1.63l1.55 3.6h-15l.27-1.48zm5.28-37.9l-.19.46-7.41-13.23a1.7 1.7 0 0 1-.23-.55 4.27 4.27 0 0 1 0-1c0-.24.09-1.12.09-1.12h1.73s-.24 1.88-.28 2.35-.05 1.2-.05 1.2a5 5 0 0 0 .15.84c.08.22 6.22 11.1 6.22 11.1zM241 111.14s-4.46-4.13-1.48-16.49C241.25 87.33 247 83 254.7 82.87a32.33 32.33 0 0 1 18.75 5.83V75.77h-.11l-1.34-.34v11.44s-9.49-5.49-17.38-5.72c-6-.18-13.84 1.72-16.7 12.13C234.4 106 241 111.14 241 111.14zm-6.09 11.22s6.63 6 19.43 5.94a56.88 56.88 0 0 0 22-4.52 12.71 12.71 0 0 1-.92-2.69 19.14 19.14 0 0 1-.45-4.81v-9.73a11.67 11.67 0 0 1 .51-3.31 19.09 19.09 0 0 1 1.2-3.32h2s-1.32 1.89-2 6.24c-.33 2.34-.16 12.42-.16 12.42a14.94 14.94 0 0 0 .46 4.17 18.7 18.7 0 0 1 .74 2.81s-1.38 1.19-9.73 2.92c-22.65 4.69-33.11-6.12-33.11-6.12zm156.2-37.49s-6.93-6.59-16.14-3.16c-5.88 2.21-10.14 8.19-10.81 14.72-1.09 10.48 4.87 16.31 4.87 16.31s-6-8.94-2.46-18.49c2.51-6.79 5.91-9.37 10.41-11.1 7.14-2.75 14.13 1.72 14.13 1.72zm14.75-1.38s6 8.88 4.74 18.77c-1.08 8.49-5.6 18.14-17.83 23.64-16 7.2-28.83-2.92-28.83-2.92a29.8 29.8 0 0 0 15.27 6.63c7 .73 14.8-.9 20.53-5a28.54 28.54 0 0 0 12.18-23.57 29.41 29.41 0 0 0-6.06-17.58zm26.27 7.31a5.25 5.25 0 0 1-1.77-5.41c.32-1.77 2.26-3.93 6.12-3.79 4.46.17 8.21 3.67 8.21 3.67a13.05 13.05 0 0 0-5.84-2.12c-3.55-.25-5.86 1-6.77 3.43a5.38 5.38 0 0 0 .05 4.22zm17.62-1.01l-1.46-1.46v-11.5l1.43 1.22.03 11.74zm-27.57 37.66v-.89a37.57 37.57 0 0 0 9.63 1.74c3.29.07 9.58-.79 13.9-4.52s4.67-7.24 5.06-11.35c.48-4.85-2.37-10-2.37-10a19.74 19.74 0 0 1 3.83 9.1c.8 7.43-3 19-20.7 18.07a37.14 37.14 0 0 1-9.35-2.16zM306.18.2a16.89 16.89 0 0 0-1.63 10.4s-1.55-1.27-3.13-5.78c0 0-.12-.31-.2-.07a17.28 17.28 0 0 0 .27 8s-.54.6-.54 3.12a17.43 17.43 0 0 0 1.63 8.09 7.45 7.45 0 0 0-.48 2.86c0 5.33 4.13 11.88 4.63 12.5 0 0-.07.77-.07 1.64 0 9.55 10.63 14.37 12.37 29.29a21.71 21.71 0 0 0 5.44 5.1s-.41.45-3.47 4.21-5.44 6.41-7.82 6.87c-.13 0-.12.13 0 .2s1 1.06 4 1.09a5.22 5.22 0 0 1-2.11.68c-.13 0-.09.08.07.14s3.17 1.83 9.18 1.83c22.17-1.13 31.39-18 42.82-21.41a10.63 10.63 0 0 0 7.48-3.81 26.14 26.14 0 0 1 4.08-1.7c.81-.24 1.22-.72 1.22-.95s0-.61-.95-.61 0 .07-1.9.07c-3.35 0-5.86-1-7.41-1-3.76 0-5.16 3.06-6.32 4.08a12.07 12.07 0 0 1-5 1.9c-1.55.31-8.28 1.4-10.19 2.24A10.51 10.51 0 0 1 350.5 64c2-2.68 6.75-7.53 8.63-11.29 1.75-4.14 2.92-7.36 3.6-9.31s1.09-6 4-10.26c.16-.19.44-.9-.2-.55s-4.61 3.94-5 6.19a3.37 3.37 0 0 1 .34-3c.09-.13.19-.53-.27-.21s-1.1.6-3 3.27a54.3 54.3 0 0 1-3.2 5c-1.1 1.5-2.72 3.68-4.35 5.64a92.45 92.45 0 0 1-9 9.51c-2.93 2.64-4.21 3.67-4.21 3.67a59.44 59.44 0 0 1-5.51-6.66c-2.66-3.78-6.37-9.59-7.34-11.35s-5.74-10.09-9-17.33a152.11 152.11 0 0 1-7.55-19.51c-1.81-6.25-1.93-7.29-2-7.61s-.08-.29-.26 0z" class="icls-1"/><path d="M124.49 120.24V102h3.25a14.22 14.22 0 0 1 5.32 1c1.73.77 3 1.26 3 1.26l4.52-7.55h-16.09v-17.8h4.12a16.15 16.15 0 0 1 5.6 1c1.37.58 4 2 4 2l4.35-8.12h-28.83s.69 1.37 1.43 3.36a14.66 14.66 0 0 1 .74 4.41l.07 36.69a15.78 15.78 0 0 1-.4 3.78 21.27 21.27 0 0 1-1.26 3.49h27.5l3.9-9.16a95.15 95.15 0 0 1-9.26 3.2c-3.19.9-11.96.68-11.96.68zm61.76-46.3a12.21 12.21 0 0 1 .11 1.88 4.53 4.53 0 0 1-.45 2.06L177 94.08s-8.75-15.34-9.43-16.82a8.88 8.88 0 0 1-.11-3.32h-12a19.78 19.78 0 0 0 2.51 2.75 10.66 10.66 0 0 1 2.19 3.09l12.58 22.09v19.51a6.34 6.34 0 0 1-.23 2.23c-.35 1-.63 2-.63 2h10.41a20.74 20.74 0 0 1-.68-2 19.5 19.5 0 0 1-.35-2.12l-.06-19.69L197 73.94zM48.14 99.69H34.81a32.47 32.47 0 0 1 2 2.86 13.68 13.68 0 0 1 1.37 4.93l.46 10.41a22.26 22.26 0 0 1-10 2.06c-7.19-.35-19.78-5.61-20.12-18.31-.23-8.37 1.94-19.23 14.52-22 7.84-1.7 15.89 2 20.36 4.17V75.2S3.3 62.72.09 100.72c-1.48 17.57 15.44 25.76 27.45 25.52 12.58-.24 19.91-3.55 19.91-3.55a14.21 14.21 0 0 1-.86-4.45l-.11-11.85s.39-3 .63-4a23.25 23.25 0 0 1 1.03-2.7zm36.21 2.97s10.22-3.2 10-14.19C94 74.4 76.92 74.05 76.92 74.05h-13a31.82 31.82 0 0 0 .92 3.1 12 12 0 0 1 .46 2.73V120a12.3 12.3 0 0 1-.18 2.29 18.13 18.13 0 0 1-1 3.43H75s-.74-2.23-1.09-3.15a14.11 14.11 0 0 1-.34-3.26v-17.44S77.81 108 83 114c4.92 5.73 10.75 11.57 10.75 11.57h8.58s-5.26-6-11.9-14a66.36 66.36 0 0 1-6.08-8.91zm-10.75-1.88V78.64s12.52.36 12.52 10.17c0 11.19-12.52 11.97-12.52 11.97zm412.21 18.82c-3.18.86-11.95.64-11.95.64V102h3.26a14.25 14.25 0 0 1 5.32 1c1.72.77 3 1.26 3 1.26l4.52-7.55h-16.1v-17.8H478a16.19 16.19 0 0 1 5.61 1c1.36.58 4 2 4 2l4.36-8.12H463.1s.68 1.37 1.44 3.36a15 15 0 0 1 .74 4.41l.05 36.69a16.08 16.08 0 0 1-.39 3.78 21.86 21.86 0 0 1-1.27 3.49h27.52l3.89-9.16a94.72 94.72 0 0 1-9.27 3.24zM274.6 99.69h-13.33a31 31 0 0 1 2 2.86 13.45 13.45 0 0 1 1.39 4.93l.46 10.41a22.26 22.26 0 0 1-10 2.06c-7.2-.35-19.79-5.61-20.13-18.31-.22-8.37 1.94-19.23 14.53-22 7.84-1.7 15.88 2 20.36 4.17V75.2s-40.15-12.48-43.36 25.52c-1.44 17.57 15.48 25.76 27.48 25.52 12.58-.24 19.9-3.55 19.9-3.55a14.41 14.41 0 0 1-.85-4.45l-.12-11.85s.4-3 .63-4a23.25 23.25 0 0 1 1.04-2.7zm168.4.12c-3-2.09-9.83-5.5-10.88-6.53s-4.22-2.4-3.77-7.66a7.12 7.12 0 0 1 7.21-6 15 15 0 0 1 10.76 4.47v-8.21a24 24 0 0 0-10.58-2.62c-5.16 0-15.61 3.19-16 14.41-.31 10.07 5.83 11.57 11 15.11 4 2.79 9.27 5 9.27 9.84 0 3.67-2.47 7.78-9.21 7.1-3.59-.36-8.81-6-8.81-6v10.68s6.75 2.31 12.06 1.84c5.69-.48 12.55-3.83 14-9.14 1.67-6.48.75-13.3-5.05-17.29zm-66.38-26.4c-15 2.64-25.08 16.53-22.52 31s16.77 24.1 31.76 21.45 25.07-16.54 22.51-31-16.77-24.09-31.75-21.45zm8.1 47.2c-10.3 1.81-20.3-6-22.33-17.51s4.7-22.28 15-24.09 20.32 6 22.35 17.5-4.74 22.27-15.02 24.1zM340 88.25a42.56 42.56 0 0 1-8.23 2.75 23.36 23.36 0 0 1 1.59 5.29c2 11.48-4.7 22.27-15 24.09s-20.31-6-22.35-17.52 4.7-22.27 15-24.08a17.24 17.24 0 0 1 8 .48c.21-.26.43-.52.64-.79l2.35-2.86a24.29 24.29 0 0 1-2.78-2.61 28.56 28.56 0 0 0-9 .16c-15 2.63-25.07 16.53-22.51 31s16.78 24.09 31.75 21.45 25.08-16.53 22.52-31a25.24 25.24 0 0 0-1.98-6.36z"/><path d="M316.66 82c.33-.35.67-.72 1-1.11a15.09 15.09 0 0 0-9.07.54c-5.88 2.19-10.13 8.18-10.8 14.7-1.09 10.48 4.85 16.31 4.85 16.31s-6-8.93-2.46-18.48c2.53-6.79 5.92-9.38 10.41-11.1a14 14 0 0 1 6.07-.86zm25.08 5.44a28.15 28.15 0 0 1 2.5 14.54c-1.08 8.48-5.61 18.14-17.86 23.63-16 7.21-28.82-2.92-28.82-2.92a29.91 29.91 0 0 0 15.26 6.64c7 .72 14.83-.91 20.54-5a28.59 28.59 0 0 0 12.2-23.57 28.92 28.92 0 0 0-3.47-13.53z" class="icls-1"/></g></g></symbol><symbol viewBox="0 0 300 258.33" id="icon--gsk" xmlns="http://www.w3.org/2000/svg"><path d="M199.06 236.33c-18.64 13.72-38.58 22-61.87 22-47.89 0-89.31-34.43-112.6-74.29a55.08 55.08 0 0 0 17.34 9 92.76 92.76 0 0 0 25.37 3.89c27.44 0 38.83-10.36 39.35-24.59.26-12.41-9.06-19.41-26.41-20.45l-17.86-1c-8.28-.52-10.09-3.11-10.09-6.48a8 8 0 0 1 3.21-6.07 12.43 12.43 0 0 1 5.49-2.54 50.08 50.08 0 0 0 5.8.33c20.19 0 31.57-12.16 31.57-26.66a26.6 26.6 0 0 0-6.47-17.34 120.91 120.91 0 0 1 15.28 1V82.84c-4.66 1.29-10.35 1.54-15.28 1.54a42.14 42.14 0 0 1-11.65-1.81 52.17 52.17 0 0 0-14-2.33c-20.27 0-32.81 12.45-32.81 28.53a26.71 26.71 0 0 0 17.51 24.79c-7.76 3.63-11.91 8.8-11.91 14.77 0 6.71 5.44 13.71 16.06 14.74 6.72.51 10.09.78 19.67 1.3s12.68.78 16.3 2.07a8.88 8.88 0 0 1 5.71 7.76c0 6.21-4.41 9.57-8.81 11.4-4.4 1.54-11.4 2.32-19.16 2.32-27.95 0-48.4-14.49-59.78-39.85C2.33 133.04 0 118.77 0 103.02c0-10.35 2.59-22.78 7-31.58C36.5 10.36 128.39 0 187.92 0c14.23 0 27.18.26 41.41 2.58C268.65 8.77 300 27.96 300 71.19c0 57.71-56.43 132-100.94 165.14M67.24 127.86c-12.68 0-19.62-9.32-19.62-21.23.03-10.61 6.54-17.86 17.42-17.86 12.41 0 19.09 9.26 19.09 20.9 0 10.63-5.76 18.19-16.89 18.19zm189.28 31.84c-4.4 0-11.65-3.09-21.22-13.45-12.43-13.72-25.65-29.26-25.65-29.26l22-20.7c13-12.16 16.58-12.94 17.61-13.2h-20.45a75.28 75.28 0 0 1-8.79 9.58l-23.56 22V45.3l-17.81 4.65c2.34 3.12 3.1 8.29 3.1 19.94v71.71c0 14.48-.76 16-2.32 20.18h19.16c-1.3-3.37-2.08-5.7-2.08-20.18v-20.72s10.62 12.68 23.82 28.47c8.28 9.83 15 14.23 23 14.23 6.22 0 11.91-1.54 15.8-4.4a8.84 8.84 0 0 1-2.61.52zM147.8 117.77c-10.35-5.17-20.15-9.84-20.15-18.12 0-7 7.5-10.09 15.27-10.09a34.79 34.79 0 0 1 21.73 7.77V85.68a44.15 44.15 0 0 0-21.48-5.44c-14 0-29.51 7-29.51 23 0 13.2 11.66 18.89 22.52 24.07 9.84 4.66 18.9 8.8 18.9 17.34S146.02 155 138.77 155c-6.73 0-17.34-2.85-25.88-7.49v11.9a65.23 65.23 0 0 0 25.36 5.18c14.5 0 31.84-6 31.84-23.31-.03-11.86-11.44-18.06-22.29-23.51z"/></symbol><symbol viewBox="0 0 300 145.22" id="icon--lbg" xmlns="http://www.w3.org/2000/svg"><path d="M91.56 128.89a60.21 60.21 0 0 0 8.25-15.57h6.67a88.92 88.92 0 0 1-11.92 21.1v10.51h-5.91v-10.41a90.58 90.58 0 0 1-11.91-21.11h6.66a55.54 55.54 0 0 0 8.16 15.48M152.65 126.26c-2.91-.94-4.6-1.4-5.63-2.15a2.55 2.55 0 0 1-1.41-2.35 2.94 2.94 0 0 1 1.88-2.72 9.29 9.29 0 0 1 3.94-.75 21.58 21.58 0 0 1 6.85 1.31l2-4.59a20.63 20.63 0 0 0-8.82-2 13.85 13.85 0 0 0-8 2.15 7.74 7.74 0 0 0-3.66 6.76c0 5.44 4.59 7.5 9.1 9a36.74 36.74 0 0 1 5.16 1.88 3.54 3.54 0 0 1 2.06 3.09 3.35 3.35 0 0 1-1.88 3 10 10 0 0 1-4.69.94 15.91 15.91 0 0 1-9.38-3.1l-2.06 4.78a20.41 20.41 0 0 0 11.72 3.57c7 0 12.2-3.66 12.2-9.57 0-5.16-4.22-7.69-9.38-9.29M120.17 139.4h-4.31v-20.55h3.79c6.57 0 10.79 3.57 10.79 10 0 6.19-3.85 10.51-10.23 10.51m-.66-26.08h-9.47v31.61h10c9.28 0 16.23-6.57 16.23-16 0-9.29-6.57-15.57-16.8-15.57M191.18 140.15h-5.06v-9.2h5.25c4.51 0 6.85 1.22 6.85 4.41 0 4.22-4 4.79-7 4.79m-5.06-22h4.49c4.22 0 6.19 1 6.19 3.75s-2 4.32-5.72 4.32h-5zm10.88 10.23c3.38-1.13 5.44-3.47 5.44-7.13 0-5.54-4.88-7.79-9.66-7.79h-12.33v31.52h11.45c5.91 0 11.91-2.44 11.91-9 0-4.4-2.72-7-6.85-7.59M265.85 113.32h-5.53v22.8h-.09l-13.33-22.8h-7.22v31.61h5.44v-23.54h.1l13.6 23.54h7.03v-31.61zM284.15 128.52l14.63-15.2h-7.41l-13.13 14.17h-.19v-14.17h-5.54v31.61h5.54v-15.29h.19l13.97 15.29H300l-15.85-16.41zM24.39 144.93h17.73l1.88-5.62H30.11v-25.99h-5.72v31.61zM0 144.93h17.73l1.97-5.62H5.82v-25.99H0v31.61zM60.98 139.87c-6.38 0-10-4.7-10-10.7s3.66-10.69 10-10.69 10.13 4.88 10.13 10.78-3.75 10.61-10.13 10.61m.09-26.83c-9.66 0-16 7.13-16 16.13s6.19 16 15.95 16 16-7.22 16-16.13-6.38-16-16-16M220.73 138.21a24.4 24.4 0 0 0 6.57-.75l2.91 7.5h6.57l-13.61-31.55h-4.78l-13.74 31.52h6.57l2.91-7.5a24.37 24.37 0 0 0 6.56.75m0-4.79a21.17 21.17 0 0 1-4.87-.47l4.87-12.47 4.96 12.47a21.25 21.25 0 0 1-4.88.47M202.77 52.15c-4.12-3.09-7.79-7.69-11.82-11.94-1.59-1.78-2.91-2.63-5.07-2.63-1.22 0-2.9.38-4.22.38a23.13 23.13 0 0 0-5.81.47c-1.41-1.13-1.22-2.25-.47-2.72 1.78-.94.09-1.6.09-2.91a1.34 1.34 0 0 1 2-1.13c.85-2.06-.84-4.41-1.22-6a4.27 4.27 0 0 0 3.19-2.35c-1.22-.65-3.94-2.25-4-4.87 2.16-.28 3.84-2.07 3.37-4.13a1.27 1.27 0 0 1-1.5 0c-.75-.38-.56-.75-1.59-1.5s-3.19-.94-3.66-2.44c1.22-1.88 1.13-4 0-4.88a1.92 1.92 0 0 1-1.5 1c-1.69 0-2-1-3.47-2.34-.47-.38-1.31-1-3.66-1-1.5 0-2.72-.94-3.85-.85.57.66.29 2-.75 1.78-.37 0-.93-1.12-2-1.78-.75-.56-1.4-.47-2.15-1-.57-.47-.47-1.31-1.13-1.31s-.47.84-.47 1.31c0 .94.47 1.22.38 2.53-.94-.56-1.32-1.69-2.35-1.69-.19 0-.28 0-.37.19 0 0-.19.28.09 1.13s1.5 1.31 1.5 2.44c0 2-2.63 3.28-2.63 5.25 0 .37.29.56.29.94.09.94-.94 1.78-1.51 3.09-.93 1.88-.84 2.63-1.87 4.6-.47.94-1.22 1.22-1.22 2.25 0 2 .84 4.32 2.81 4.32.94 0 2 .84 2.82.37 2.44-1.31.75-1.87 1.87-3 1.69-1.69 3.29-3.28 5-3.28.54 0 .82.7.84 1.85 0 3.84-3 9.14-6.19 11.84a30.05 30.05 0 0 1-3.57 2.44 16.57 16.57 0 0 1-9.47 3.38c-5.07 0-7.13-1.22-11.91-1.22a16.51 16.51 0 0 0-9.2 3c-7.31-.75-7.6-10.13-15.66-10.13-5.54 0-9.85 4.69-9.85 10.88 0 5.72 2.81 9.2 7.69 12.67.84.65 1.69 1 1.69 2.43 0 2.91-5.16 3-5.16 6.85a3.21 3.21 0 0 0 3.28 3.29 1.83 1.83 0 0 0 1.78-.94 1.47 1.47 0 0 1-1-1.22c0-2.53 8.44-1 8.44-8.07 0-6.1-7.5-7.13-7.5-11.72 0-.66.28-1.32.75-1.32s.47 1.22 1.41 1.41c.37-1.31 1.87-3.28 3.47-3.28.37 0 .65.18.37.46a2.73 2.73 0 0 0-.84 2.07 1.7 1.7 0 0 0 .94 1.41 3 3 0 0 1 2.45-1.69c1.31 0 1.31.56 3.38.37.47 0 .47.28.47.38a12.84 12.84 0 0 0-2.72 6c-.75 4.69.37 6.94.37 8.07a4.91 4.91 0 0 1-.47 3.28c-.75 1.31-.37.56-1.59 2.44-2.07 3.28-6 3.47-5.54 7.22.94 6.48 0 11.92-.18 15.2a30.78 30.78 0 0 1-.47 3.19c0 2.44 2.72 2.35 3.19 4.69.28 1.22-.1 1.88.46 2.91a1.56 1.56 0 0 0 1.1.62h5.16c.66 0 .84-.66.84-1.13-.18-1.88-1.68-3.1-3-3.94-2.06-1.41-2.53-2.25-3.19-4.78-.47-3.94.28-7.88.66-11.82a6.23 6.23 0 0 1 1.78-4 5.88 5.88 0 0 1 2.07-1.5 15 15 0 0 0 7.41-2.91c.09 2.91-2.82 3.38-2.82 6.29 0 2.34 1.78 3.28 3.19 5.06 2.53 3.48 3.85 4.6 6.85 9.38 1 1.79 0 2.54 1.41 3.94.84.66 1.31.47 2 1.22.93 1.13.47 2.26 1.12 3.48a1.25 1.25 0 0 0 1.22.75h4.79c.75 0 1-.38 1-1.13 0-1.59-1.5-3.38-3.85-4.6s-4.59-5.06-6-7.41c-1.5-2.81-4.41-5.16-5.26-8.44-.65-2.63 0-4 2.35-5.07 4.41-2.06 7.32-7.31 8.72-11.25a71.35 71.35 0 0 1 9.29 1 37.17 37.17 0 0 0 13.6-.75c2.44-.66 3.76-1.69 5.54-2.07h-.19c2.16-.37 2.53.85 4.6.19 5.53-1.59 9.94-5.34 13.22-6.56a6 6 0 0 1 1.88-.38c1.22 0 1.41.56 2.63 1.88 2.34 2.53 3.56 6.75 4.59 11 .29.75 1.6.66 1.6 1.5 0 1.41-1.13 2-1.13 3.38 0 1.78 4 3.47 5.63 3.47 1.13 0 1.22-1.22 1.22-2.06 0-2.82-1.13-4.22-2.53-6.48a102 102 0 0 1-6.85-14.44c-.84-2-1.88-3.85-3.94-3.85s-4.69.28-6.75.28l-2.16.1.37-.47a16.18 16.18 0 0 0 3.66-1.31c2.44-1 3.85-2.63 5.54-2.63a7.62 7.62 0 0 0 1.5-.1c.94-.09 3 .94 5 2.91 2.34 2.35 4.31 4.51 4.88 5.82.56 1.12.65 1.41 1.4 1.87s1.6 0 2.07.76-.38 2.06.28 2.9a5.16 5.16 0 0 0 4.13 1.6c2.06 0 3-.75 3-1.5 0-2.54-2.25-3.66-4.41-5.26zm-46.72-40c-1.87-.66-2.81.65-3.94 2.44a12.59 12.59 0 0 0-2.06 5.34c-.28 2.35 1.12 2.91.19 3.66s-1.32.57-.94-.19c.47-1 .37-2.53-.85-2.06s-2.15.28-1.68-.28a9.33 9.33 0 0 0 1.5-3 38.09 38.09 0 0 1 2.62-5.26c.85-1.68-.37-1.5-.09-2.53a14 14 0 0 1 1.78-2.53c.66-.66 1.32-1 1.79-.85s.46.66.28 1.88c-.38 1.22-.19 1.69.75 2.06s1.4 1.64.65 1.27zM108.4 37.52a9.34 9.34 0 0 0-2.35-.31c-3.19 0-3.84 1.78-4.59 1.78a.35.35 0 0 1-.38-.37c0-.85 1.13-1.41 1.13-2.07 0-.37-.19-.75-1.13-.75-3.28 0-4.88 4.79-5.72 4.79-.38 0-.38-.47-.47-1.13a8 8 0 0 1 7.51-6.85 7 7 0 0 1 6.75 4.32c.37 1.06-.38.68-.75.59zm3.75 59.19c.28.38.66 1.22.09 1.22h-1.21c-.85 0-1-2.16-1.22-3a5 5 0 0 1 2.34 1.78zm24.86 0c.19.38.47 1.22-.09 1.22h-1c-.84 0-.93-2.16-1.12-3a4.76 4.76 0 0 1 2.21 1.78zm15.64-59.38a18.18 18.18 0 0 1-2 2.35 9.94 9.94 0 0 0-2.54 4.31c-.75 3.38-1.5 4.41-6 4.88-3 .38-4-.47-3.94-.94-.19-1.12 1.78-1.22 1.78-2.34 0-.57-2-2.07-6.56-2.07a20.35 20.35 0 0 0-15 6.2c-2.82 2.72-3.57 5.72-4.32 5.72-.28 0-.37 0-.47-.85-.56-5.16 3.66-14 14.92-14 3.75 0 7.31 1.22 11.44 1.22a21.15 21.15 0 0 0 9.95-3.29c.65-.47 2.25-1.5 2.72-1.87.42-.07.23.21.02.68zm20.54 9.48c-.66 1.69-.19-5.16-8.35-8.91-2.63-1.22-3.66-1.69-1.59-3.85 6.47-6.19 8.72-19 1.59-23.73-1.41-.94-2.53-1.32-2.53-1.51s1-.18 2.25.29c10.69 4.5 8.44 17.54 4.88 26.17-.85 2.16 0 1.5 2.25 4.13a7.16 7.16 0 0 1 1.53 7.41zm21.48 21.29a4.55 4.55 0 0 1 1.41 3.19c0 .47-.09.94-.47.94s-1.88-.47-1.88-.94c.03-.66.78-1.69.97-3.19zm9.98-10.41c-1 0-.29-1.88-1-3.38 1.13.38 2.44 1.88 2.44 2.72-.04.47-.88.66-1.44.66z"/></symbol><symbol viewBox="-1 11 80 80" id="icon--linkedin" xmlns="http://www.w3.org/2000/svg"><path d="M73.08 11.06H4.9c-3.26 0-5.9 2.58-5.9 5.76V85.3c0 3.17 2.64 5.76 5.9 5.76h68.18c3.26 0 5.92-2.6 5.92-5.77V16.8c0-3.18-2.66-5.76-5.92-5.76zM22.73 79.23H10.86V41.05h11.87v38.18zm-5.93-43.4c-3.8 0-6.9-3.08-6.9-6.88s3.1-6.88 6.9-6.88c3.8 0 6.87 3.1 6.87 6.88 0 3.8-3.08 6.88-6.88 6.88zm50.37 43.4H55.3V60.66c0-4.43-.07-10.12-6.15-10.12-6.18 0-7.13 4.82-7.13 9.8v18.9H30.17v-38.2h11.38v5.23h.16c1.6-3 5.46-6.17 11.24-6.17 12 0 14.23 7.9 14.23 18.2v20.93z"/></symbol><symbol viewBox="0 0 78 102" id="icon--note" xmlns="http://www.w3.org/2000/svg"><path d="M2 2h74v98H2zm15 29h44M17 45h44M17 58h44M17 71h25" fill="none" stroke="#333" stroke-width="4" stroke-linecap="round" stroke-linejoin="round" stroke-miterlimit="10"/></symbol><symbol viewBox="17.313 -212.174 836.345 150" preserveAspectRatio="xMinYMin meet" id="icon--patrick" xmlns="http://www.w3.org/2000/svg"><path d="M17.313-211.096h60.06c35.073 0 56.284 21.05 56.284 51.469v.424c0 34.461-26.482 52.327-59.426 52.327H49.624v44.667H17.313v-148.887zM75.27-136.01c16.168 0 25.62-9.792 25.62-22.551v-.436c0-14.684-10.074-22.551-26.253-22.551H49.648v45.538H75.27zm100.274-76.164h29.815l63.023 149.966h-33.83L221.12-95.582h-62.163l-13.43 33.374h-33.008l63.023-149.953v-.013zm34.022 87.638l-19.551-48.286-19.512 48.286h39.063zm78.647-56.371h-44.739v-30.213h121.791v30.213h-44.728v118.724h-32.348v-118.749l.024.025zm93.258-30.189h67.205c18.689 0 33.197 5.301 42.854 15.082 8.184 8.304 12.593 19.997 12.593 34.039v.436c0 24.04-12.795 39.146-31.498 46.166l35.908 53.166h-37.81l-31.499-47.621H413.82v47.621h-32.349v-148.889zm65.127 72.313c15.738 0 24.758-8.509 24.758-21.049v-.436c0-14.043-9.654-21.28-25.401-21.28h-32.148v42.765H446.598zm76.659-72.313h32.309v148.888h-32.309v-148.888zM793.775-147.948l59.883-63.148h-39.064l-59.641 65.074v-65.074h-32.35v148.888h32.35v-45.501l17.016-17.879 23.188 32.293 22.135-22.423M573.229-136.179v-.409c0-40.928 29.495-74.415 71.778-74.415 25.937 0 41.48 9.054 54.267 22.2l-19.266 23.229c-10.619-10.07-21.439-16.247-35.2-16.247-23.208 0-39.926 20.154-39.926 44.81v.421c0 24.678 16.325 45.218 39.926 45.218 15.729 0 25.363-6.574 36.185-16.867l19.257 20.388c-14.119 15.801-29.863 25.675-56.416 25.675-40.506 0-70.594-32.692-70.594-74.005h-.011z"/></symbol><symbol viewBox="0 0 36.8 53" id="icon--pb" xmlns="http://www.w3.org/2000/svg"><path d="M17.2 0H0v39.2L14 53V40h3.2c10.8 0 19.6-9.2 19.6-20S28 0 17.2 0zm.8 28h-7V12.4l5-5.7V12h2c4.4 0 8 3.6 8 8s-3.6 8-8 8z"/></symbol><symbol viewBox="11.751 0 51.998 214.1" id="icon--pencil" xmlns="http://www.w3.org/2000/svg"><path fill="#333" d="M61.75 0c-1.1 0-2 .9-2 2v182.8c0 3.2-2.8 6-6 6-3.25 0-6-2.75-6-6V122c0-1.1-.9-2-2-2s-2 .9-2 2v62.8c0 3.3-2.7 6-6 6s-6-2.7-6-6V84c0-1.1-.9-2-2-2s-2 .9-2 2v100.8c0 3.3-2.7 6-6 6-1.6 0-3.05-.63-4.13-1.65l-.06-.07c-.02 0-.03-.02-.05-.04a6.048 6.048 0 0 1-1.75-4.24V99c0-1.1-.9-2-2-2s-2 .9-2 2v85.8c0 2.8 1.15 5.3 3 7.13l21.6 21.5a1.992 1.992 0 0 0 2.8-.01l21.5-21.4c.12-.1.2-.24.3-.36 1.72-1.8 2.8-4.23 2.8-6.86V2c0-1.1-.9-2-2-2zm-24 209.18l-3-3c1.9-1.08 4.2-1.1 6.06-.05l-3.05 3.05zm5.97-5.94c-3.52-2.54-8.3-2.52-11.9.05l-8.63-8.62c2.66-.38 5-1.82 6.55-3.9a9.952 9.952 0 0 0 8 4.02c3.3 0 6.2-1.6 8.03-4.04 1.56 2.06 3.9 3.52 6.53 3.92l-8.58 8.56z"/></symbol><symbol viewBox="0 0 47 14" id="icon--rbs" xmlns="http://www.w3.org/2000/svg"><g fill-rule="evenodd"><path d="M13.147 6.753h-2.163c-.46 0-.887-.272-1.022-.68-.392-1.141-1.517-1.55-1.517-1.55a1.092 1.092 0 0 1-.715-1.02V1.34c0-.594.494-1.07 1.09-1.07.596 0 1.073.442 1.073 1.07l-.016 1.736 2.503-2.5a1.08 1.08 0 0 1 1.533 0 1.097 1.097 0 0 1 0 1.547l-2.47 2.45h1.704c.596 0 1.09.494 1.09 1.09 0 .596-.494 1.089-1.09 1.089m-.017 2.62l-1.738-.017 2.504 2.501a1.077 1.077 0 0 1 0 1.531 1.078 1.078 0 0 1-1.533 0l-2.47-2.467v1.703c0 .646-.494 1.088-1.09 1.088-.596 0-1.09-.493-1.09-1.088v-2.162c0-.46.29-.885.698-1.021 1.142-.392 1.534-1.514 1.534-1.514a1.11 1.11 0 0 1 1.022-.714h2.163c.596 0 1.09.493 1.09 1.089 0 .594-.443 1.07-1.09 1.07m-6.965 4.323c-.596 0-1.074-.391-1.057-1.071l.017-1.737-2.504 2.501c-.426.427-1.124.427-1.532 0-.426-.424-.426-1.123 0-1.53L3.54 9.39H1.855c-.614 0-1.09-.494-1.09-1.088 0-.596.476-1.09 1.09-1.09h2.163c.46 0 .869.273 1.022.681.392 1.156 1.499 1.548 1.499 1.548.426.153.716.544.716 1.02v2.163c0 .595-.477 1.071-1.09 1.071m.39-9.155c-1.14.409-1.532 1.515-1.532 1.515a1.112 1.112 0 0 1-1.022.715H1.838c-.597 0-1.09-.493-1.09-1.09 0-.595.408-1.071 1.09-1.071l1.737.017-2.504-2.502a1.077 1.077 0 0 1 0-1.53 1.08 1.08 0 0 1 1.533 0l2.47 2.466V1.358a1.082 1.082 0 0 1 2.164 0V3.52c0 .46-.273.886-.682 1.021M41.74 13.78c-1.158 0-2.622-.187-3.354-.408l.58-2.383c.526.239 1.702.614 2.775.614 1.294 0 2.265-.563 2.265-1.703 0-.97-.596-1.479-2.265-2.126-1.703-.663-3.116-1.48-3.116-3.897 0-2.365 1.872-3.675 4.717-3.675 1.209 0 2.436.239 3.168.477l-.562 2.313c-.494-.272-1.448-.613-2.606-.613-1.38 0-1.993.528-1.993 1.43 0 .919.681 1.26 2.163 1.906 2.044.868 3.322 1.736 3.322 4.015 0 2.519-2.01 4.05-5.093 4.05m-9.146-5.954h-1.566v3.81h1.651c1.295 0 2.3-.51 2.3-1.924 0-1.29-.937-1.886-2.385-1.886m.016-5.43H31.03v3.455h1.464c1.107 0 2.06-.595 2.06-1.787 0-1.123-.68-1.668-1.942-1.668m.137 11.265h-4.291V.373h4.513c2.59 0 4.292 1.257 4.292 3.47 0 1.566-1.039 2.45-2.027 2.842 1.363.358 2.47 1.293 2.47 3.045 0 2.314-1.79 3.931-4.957 3.931M21.884 2.413h-1.312v3.795h1.022c1.38 0 2.383-.595 2.383-1.889 0-1.14-.732-1.906-2.093-1.906m2.468 11.248c-.8-1.617-2.247-4.17-3.098-5.495h-.682v5.495h-2.555V.373h4.207c2.775 0 4.428 1.325 4.428 3.98 0 1.821-1.312 2.945-2.692 3.404.886 1.207 2.59 4.168 3.44 5.904h-3.048"/></g></symbol><symbol viewBox="0 0 69.18 77.02" id="icon--speech" xmlns="http://www.w3.org/2000/svg"><g data-name="Layer 2"><path d="M67.18 11.57H58.5V2a2 2 0 0 0-2-2H2a2 2 0 0 0-2 2v54.5a2 2 0 0 0 2 2h8.69v9.57a2 2 0 0 0 2 2h20.88l6.37 6.37a2 2 0 0 0 2.83 0l6.37-6.37h18a2 2 0 0 0 2-2v-54.5a2 2 0 0 0-1.96-2zm-56.49 2V54.5H4V4h50.5v7.57H12.69a2 2 0 0 0-2 2zm54.49 52.5H48.31a2 2 0 0 0-1.42.58l-5.54 5.54-5.54-5.54a2 2 0 0 0-1.41-.58H14.69v-50.5h50.49zM21.94 28.91a2 2 0 0 1 2-2h32a2 2 0 0 1 0 4h-32a2 2 0 0 1-2-2zm0 12.22a2 2 0 0 1 2-2h32a2 2 0 0 1 0 4h-32a2 2 0 0 1-2-2zm0 12.22a2 2 0 0 1 2-2h32a2 2 0 0 1 0 4h-32a2 2 0 0 1-2-2z" data-name="Layer 1"/></g></symbol><symbol viewBox="80 15 250 80" id="icon--universal" xmlns="http://www.w3.org/2000/svg"><path fill="#fff" fill-rule="evenodd" d="M206.704 34.734c.344-.517 1.386-.172 2.12-.155.983.02.75 1.47 2.113 1.19 1.36-.29 1.377 1.29 3.32 1.23 1.95-.06-.39.68-.39.68s-1.204-.59-1.98-.19c-.416.21.15-.12-.544-.69-1.068-.88-.922.16-2.714-1.36-1.28-1.08-2.49.13-1.93-.72"/><path fill="#fff" d="M192.072 36.742c-1.152-1.862-.292-4.18 1.015-6.435.958-1.66 3.522-2.393 5.75-1.523 2.504-1.973 3.104.15 5.32-.808 2.914-1.262 1.285 3.35 4.1 4.51 1.166-3.106-2.652-5.44-.26-6.902 1.713-1.046 3.006-1.695 3.708-3.09.998-1.995 1.386-3.452 2.16-3.712 1.773-.61 1.39-2.296 1.39-2.296s1.893.552 3.358-.825c-1.12-.6-2.763-1.12-2.326-2.33.508-1.42 4.313 1.47 5.438-.86-2.264-.98-4.577-3.13-5.96-3.62-.943 1.04-1.54.62-2.762-.34-2.07-1.64-2.242-.08-3.54-1.2-1.03 2.07.53 1.91 1.002 2.43 1.33 1.46-1.346-1.3-1.086 2.41.06.96-1.36 1.14-2.42-.95-.55-1.09-4.95-.86-5.62-1.9.61-1.21 5.78-5.52 13.72-4.48-11.54-4.53-27.13.42-27.29 2.14-1.56.98-1.02 2.1-1.8 2.35-1.35.45-2.81 4.56-2.81 4.56s.83.56-1.78 3.48c-2.15 2.41-2.78 6.06-2.78 6.06s1.42 2.6 1.14 5.59c-.2 2.29-.3.59.69 2.25.58.97 1.21 4.35 1.59 3.03.73-2.51-1.34-4.84-1-7.35.08.32.79-.99.77.19-.08 3.09 3.8 9.05 3.8 9.05s-1.45 1.48.07 1.48l-.39.92s1.12-.062 1.85.53c.73.59 1.35 1.324 2.01 1.324h11.17s.79-3.39 1.44-3.966c.65-.574-1.3 0-1.87-.574-.58-.58-.94.5-1.23 1.07-.29.58-.65 1.59-1.518 1.875-.863.29-2.95.43-3.38.43-.43 0-1.73-2.46-1.73-2.46M244.37 73c-.434-.575.07-1.444.07-1.444h-31.47l3.51 3.063a4.068 4.068 0 0 1 2.182 2.26c1.05 2.78-.512.53-.512 4.74 0 3.87-1.09 3.24-1.09 3.24s-.233 4.58-2.604 7.39c-1.505 1.51-.335 2.77-.335 2.77s-.5.28-1.24 3.6c-.24 1.07 1.14 2.73 2.33 2.31.9-.31-2.17-.61 1.16-2.01 1.28-.55.24-1.57.24-1.57s2.15-.17 3.37-3.42c2.15.31 1.35-1 5.77-1.96 1.17-.25 1.41-.6 1.27-1.7-.14-1.1 1.44.16 5.82-4.3 3.45-3.52 2.21-4.32 4.59-5.59 2.52-1.34 2.75.11 3.59-.98 1.93-2.51 1.25-2.35 2.05-3.95l.57-.88s1.2-1.04.78-1.62m-22-33.59l-.7.42-.14-.694.85.28zm-2.51-.55c-1.12.24-2.31 0-3.36.834l-.7-.56h-.42c.98-.8-.56-1.64 1.12-1.68 1.3.035 2.24.94 3.36 1.4"/><path fill="#fff" fill-rule="evenodd" d="M152.24 39.85C159.51 17.365 176.72 0 205.482 0c26.726 0 46.364 17.603 53.49 40.34-7.435-21.192-28.556-36.478-53.45-36.478-24.71 0-45.7 15.052-53.282 35.988m106.61 34.394c-7.233 22.542-27.582 40.08-53.368 40.08-27.354 0-45.734-17.3-53.128-39.59 7.694 20.763 28.586 35.656 53.167 35.656 24.77 0 45.8-15.127 53.33-36.146"/><path fill="#fff" d="M109.274 45.354h-8.77l1.31 1.558v11.52c0 2.587-1.713 3.678-4.277 3.678-2.556 0-4.273-1.09-4.273-3.677v-11.52l1.31-1.56h-8.77l1.31 1.56v11.705c0 5.743 3.215 7.96 10.423 7.96s10.42-2.217 10.42-7.96V46.912l1.317-1.558m30.44 0h-7.4l1.307 1.558V57.4l-10.6-12.046h-6.64l1.31 1.558v17.696l-1.31 1.563h7.4l-1.31-1.56V53.94l11.26 12.233h4.69V46.915l1.31-1.558zm17.04 20.816l-1.31-1.558V46.917l1.31-1.563h-8.83l1.314 1.563v17.695l-1.315 1.56h8.832zm29.126-20.816h-7.43l1.31 1.558-5.243 11.455-5.054-11.455 1.31-1.558h-8.734l9.7 20.817h4.34l9.8-20.81zm24.806 20.816v-5.65l-1.563 1.312H198.48v-3.995h6.746l1.527 1.315v-6.775l-1.527 1.31h-6.745v-3.994h10.65l1.57 1.31v-5.65h-19.6l1.31 1.564v17.695l-1.3 1.56h19.6z"/><path fill="#fff" fill-rule="evenodd" d="M233.343 52.094c0 1.497-1.435 2.715-3.434 2.715h-3.96v-5.12h4.71c1.37 0 2.68.68 2.68 2.4m7.17 14.07l-5.65-8.21c2.77-1.12 4.71-3.28 4.71-6.31 0-3.47-2.13-6.31-8.06-6.31h-12.98l1.31 1.56v17.7l-1.31 1.56h8.7l-1.31-1.56v-5.9h2.62l3.99 5.89-1.31 1.56h9.26"/><path fill="#fff" d="M266.885 60.084c0-3.306-2.657-5.152-6.493-6.4-2.498-.778-6.025-1.338-6.025-2.993 0-.81.966-1.37 2.653-1.37 2.25 0 5.928.94 8.8 2.31v-6.96l-1.654 1.6c-1.748-.72-4.776-1.47-6.864-1.47-7.084 0-9.362 3.12-9.362 5.97 0 3.87 2.56 5.56 6.586 6.96 2.992 1.03 5.773 1.12 5.773 2.84 0 1.48-1.72 1.66-2.6 1.66-2.21 0-6.15-.78-9.64-3.06v7.71l1.65-1.81c1.62.62 5.27 1.69 8.26 1.69 6.15 0 8.9-2.71 8.9-6.64"/><path fill="#fff" fill-rule="evenodd" d="M287.997 58.68h-6.895l3.435-7.455 3.46 7.455zm10.016 7.49l-10.24-20.816h-7.02l.747 1.563-9.265 19.254h7.64l-1.306-1.56 1.02-2.18h9.92l1 2.19-1.32 1.57H298z"/><path fill="#fff" d="M322.678 66.17v-5.65l-1.562 1.312h-10.02V46.917l1.31-1.563H303.7l1.315 1.563v17.695l-1.315 1.56h18.98zm-4.392-16.314c0-2.29 1.863-4.15 4.154-4.15 2.29 0 4.153 1.86 4.153 4.15a4.154 4.154 0 0 1-8.307 0m.393 0a3.758 3.758 0 0 0 3.76 3.766c2.08 0 3.76-1.69 3.76-3.766 0-2.08-1.69-3.765-3.77-3.765-2.09 0-3.76 1.69-3.76 3.77"/><path fill="#fff" fill-rule="evenodd" d="M324.002 48.232a2.165 2.165 0 0 0-1.44-.512c-1.22 0-2.13.95-2.13 2.15 0 1.21.89 2.162 2.123 2.162.55 0 1.077-.203 1.5-.57v-.542c-.384.455-.93.737-1.522.737-.976 0-1.695-.847-1.695-1.787s.728-1.77 1.703-1.77c.59 0 1.08.242 1.47.67v-.538"/></symbol><symbol viewBox="0 0 115 20" id="icon--vodafone" xmlns="http://www.w3.org/2000/svg"><g fill-rule="evenodd"><path d="M13.537.864A9.535 9.535 0 0 0 9.562 0C4.277 0 0 4.303 0 9.62c0 5.36 4.277 9.662 9.562 9.662 5.285 0 9.602-4.303 9.602-9.661A9.63 9.63 0 0 0 13.62.903l.062-.03a9.284 9.284 0 0 0-.146-.01zm0 0l.084.039c-1.665.835-2.796 2.369-2.854 4.137 2.475.425 4.366 2.527 4.366 5.06 0 2.863-2.378 5.162-5.29 5.162-3.22 0-5.415-2.834-5.359-6.01 0-4.642 3.851-8.4 8.61-8.4.149 0 .296.004.443.012zM73.844 15.944h3.07V7.696h2.804V4.851h-2.803v-.437c0-1.66 1.917-1.474 3.19-1.224V.52c-4.29-.936-6.224.39-6.26 3.539v11.885zM24.506 4.814h3.29l2.788 6.942 2.789-6.942h3.288L32.23 15.85l-.016.04h-3.258l-.016-.04-4.433-11.035zm85.14 2.426c1.016 0 1.887.804 2.253 1.944h-4.507c.366-1.14 1.237-1.944 2.253-1.944zm-.222-2.597c2.884 0 5.222 2.572 5.222 5.742 0 .404-.038.797-.11 1.176h-7.151c.18.392.326.747.526 1.052.966.936 1.701 1.098 3.105 1.098 1.218 0 2.112-.167 2.78-.456l.359-.07.01 2.041c-1.439 1.068-3.466.93-4.74.93-2.884 0-5.222-2.6-5.222-5.77 0-3.171 2.338-5.743 5.221-5.743zM92.5 15.935v.07h2.962v-.07h.069V7.866a8.76 8.76 0 0 1 2.176-.292c1.605.068 2.383 1.017 2.333 2.714v5.717h3.138v-5.823c.115-3.465-1.7-5.268-5.443-5.406-1.732.022-3.49.22-5.235.77v10.389zm-6.85-8.683c1.347 0 2.439 1.403 2.439 3.133s-1.092 3.134-2.438 3.134-2.438-1.404-2.438-3.134 1.092-3.133 2.438-3.133zm0-2.609c3.152 0 5.708 2.571 5.708 5.742s-2.556 5.743-5.707 5.743c-3.15 0-5.707-2.572-5.707-5.743 0-3.17 2.556-5.742 5.707-5.742zm-16.74 2.97v4.795c-.006.338-.733 1.098-2.051 1.085-1.319-.013-2.35-1.29-2.35-3.02 0-2.21 2.073-3.748 4.4-2.86zm.214 8.392h2.803V5.404c-1.732-.406-3-.673-5.09-.673-3.15 0-5.706 2.572-5.706 5.742 0 3.171 2.473 5.668 4.795 5.668 2.321 0 2.547-.73 3.19-.982l.008.846zm-12.166-2.842V7.608a3.156 3.156 0 0 0-1.46-.356 3.143 3.143 0 0 0-3.152 3.133 3.143 3.143 0 0 0 3.152 3.134c.527 0 1.023-.13 1.46-.356zm0-12.691h3.018v15.212a27.75 27.75 0 0 1-5.09.444c-3.151 0-5.707-2.572-5.707-5.743 0-3.17 2.556-5.742 5.707-5.742.73 0 1.43.138 2.072.39V.472zm-14.662 6.78c1.346 0 2.438 1.403 2.438 3.133s-1.092 3.134-2.438 3.134-2.438-1.404-2.438-3.134 1.092-3.133 2.438-3.133zm0-2.609c3.152 0 5.707 2.571 5.707 5.742s-2.555 5.743-5.707 5.743c-3.15 0-5.707-2.572-5.707-5.743 0-3.17 2.556-5.742 5.707-5.742z"/></g></symbol></svg>