<svg width="0" height="0" style="position:absolute"><symbol viewBox="0 0 300 86.219" id="icon--bbc" xmlns="http://www.w3.org/2000/svg"><g fill="#fff"><path d="M162.5 55.573c0 9.26-11.521 8.71-11.521 8.71h-11.523V47.55h11.523c11.865-.069 11.522 8.024 11.522 8.024m-23.045-33.538h8.78c9.121.48 8.778 7.27 8.778 7.27 0 8.436-10.082 8.573-10.082 8.573h-7.476V22.035zm20.92 19.135s7.886-3.36 7.818-12.277c0 0 1.199-14.608-18.159-16.391h-21.484v61.246h24.623s20.575.069 20.575-17.284c0 0 .48-11.796-13.374-15.294M104.784.5h90.432v85.22h-90.432V.5zM58.217 55.573c0 9.26-11.522 8.71-11.522 8.71H35.172V47.55h11.523c11.865-.069 11.522 8.024 11.522 8.024M35.172 22.035h8.78c9.121.48 8.778 7.27 8.778 7.27 0 8.436-10.082 8.573-10.082 8.573h-7.476V22.035zm20.92 19.135s7.886-3.36 7.818-12.277c0 0 1.199-14.608-18.159-16.391H24.267v61.246H48.89s20.575.069 20.575-17.284c0 0 .48-11.796-13.374-15.294M.5.5h90.432v85.22H.5V.5zM281.05 16.892V28.21s-11.042-6.79-23.25-6.928c0 0-22.77-.444-23.799 21.829 0 0-.823 20.489 23.525 21.655 0 0 10.22 1.234 24.073-7.613V68.88s-18.586 11.042-40.122 2.537c0 0-18.107-6.617-18.793-28.307 0 0-.755-22.308 23.388-29.716 0 0 6.447-2.469 18.038-1.372 0 0 6.927.687 16.94 4.87M209.068 85.72H299.5V.5h-90.432v85.22z"/></g></symbol><symbol viewBox="22.994 -210.616 767.01 150" preserveAspectRatio="xMinYMin meet" id="icon--bower" xmlns="http://www.w3.org/2000/svg"><path d="M154.833-135.215v-.4c0-41.25 32.52-75 77.27-75 44.75 0 76.86 33.35 76.86 74.6v.4c0 41.23-32.52 75-77.27 75s-76.9-33.38-76.9-74.6h.04zm120.781 0v-.4c0-24.88-18.25-45.6-43.92-45.6-25.68 0-43.5 20.321-43.5 45.2v.4c0 24.88 18.23 45.6 43.899 45.6 25.7 0 43.5-20.32 43.5-45.199h.021v-.001zm30-72.901h34.2l30.029 98.2 32.52-98.64h27.381l32.5 98.629 30.049-98.189h33.4l-49.6 146.04h-27.75l-32.721-94.899-32.75 94.899h-27.75l-49.5-146.06v.02h-.008zm231.9 0h109.4v28.38h-77.701v29.399h68.381v28.381h-68.381v30.47h78.73v28.37h-110.43v-145zm127.14 0h66.299c18.441 0 32.75 5.16 42.25 14.7 8.1 8.08 12.461 19.46 12.461 33.14v.42c0 23.43-12.65 38.131-31.08 44.971l35.42 51.77h-37.301l-31.08-46.38h-25.049v46.38h-31.9v-145h-.02zm64.229 70.42c15.541 0 24.451-8.279 24.451-20.5v-.42c0-13.68-9.52-20.7-25.061-20.7h-31.699v41.601h32.299v.02h.01zm-608.999-1.23c10.37-5.819 19.35-14.949 19.35-31.299v-.39c0-9.96-3.6-18.04-10.23-24.68-7.3-7.3-18.45-11.92-32.3-12.87l-27.91 27.55h17.25c13.47 0 20.7 5.84 20.7 15.38v.399c0 10.781-8.68 15.471-22.75 15.471h-29.75v-16.58l-31.25 31.08v71.75h69.5c32.73 0 54.25-13.25 54.25-39.75v-.42c0-19.5-10.07-29.23-26.85-35.63l-.01-.011zm-4.4 32.1c0 10.76-8.93 16.2-23 16.2h-38.24v-32.49h37.2c16.38 0 24.05 6.15 24.05 15.88v.42l-.01-.01z"/></symbol><symbol viewBox="0 0 84.8 112.9" id="icon--bracket" xmlns="http://www.w3.org/2000/svg"><path d="M35 111c-40 0-8.4-54.5-33-54.5C26.6 56.5-5 2 35 2m14.7 0c40 0 8.5 54.5 33 54.5-24.5 0 7 54.4-33 54.4" fill="none" stroke="#333" stroke-width="4" stroke-linecap="round" stroke-linejoin="round" stroke-miterlimit="10"/></symbol><symbol viewBox="0 0 59 26" id="icon--bupa" xmlns="http://www.w3.org/2000/svg"><path d="M29.853 13.8c1.484 0 2.28-.651 2.762-1.397l-.026.113c-.14.698.444 1.127.994 1.127h.478l1.328-7.501h-1.643l-.219 1.145c-.297-.592-1.135-1.3-2.488-1.3-2.388 0-3.805 1.955-4.041 4.038-.272 2.382 1.275 3.776 2.855 3.776zm1.423-6.59c2.753.151 1.857 5.379-.942 5.224-2.53-.139-1.744-5.373.942-5.225zM8.627 5.634c0-1.696-1.096-2.485-3.02-2.485-1.186 0-3.05-.004-3.728-.004L0 13.643l3.412-.002c.78 0 1.522-.025 1.94-.112 1.915-.402 2.693-1.786 2.847-2.801.213-1.405-.68-2.334-1.694-2.558.761-.165 2.122-.944 2.122-2.535zm-4.003 6.718c-.213.053-.555.08-1.27.08H2.112l.628-3.519H4.58c2.43 0 2.21 2.905.043 3.439zm.723-4.784c-.235.077-.546.099-1.113.099h-1.27l.596-3.36h1.663c1.996 0 1.84 2.7.124 3.26zm10.534-1.42h-.492s-.724 4.122-.805 4.591c-.175 1.01-.665 1.7-2.041 1.7-.781 0-1.545-.47-1.366-1.522.07-.406.59-3.401.634-3.642.144-.81-.55-1.126-1.123-1.126h-.434c-.107.625-.582 3.26-.764 4.293-.074.415-.1.837-.069 1.11.163 1.399 1.4 2.253 2.93 2.253 2.64 0 3.633-1.372 3.949-3 .103-.538.604-3.257.643-3.53.115-.81-.558-1.126-1.062-1.126zm2.715 10.453l.766-4.137c.298.59 1.147 1.341 2.5 1.341 2.437 0 3.945-1.89 4.097-4.104.16-2.352-1.23-3.706-2.843-3.706-1.4 0-2.352.676-2.838 1.38l.021-.1c.152-.724-.469-1.126-.995-1.126h-.522s-1.42 8.07-1.616 9.043c-.23 1.143.704 1.409 1 1.409h.43zm3.973-9.26c2.53.14 1.742 5.388-.944 5.24-2.752-.15-1.856-5.395.944-5.24zm35.395 9.457c-.705 0-1.664-.04-2.238-.234-.675-.23-1.27-.686-1.902-1.17-.317-.241-.644-.492-.997-.725-.43-.284-.789-.417-1.132-.417-.46 0-.909.248-1.452.807-.737.754-1.912 2.464-2.38 3.164-.032.043-.07.092-.13.092-.116 0-.118-.15-.118-.2-.024-1.957-.332-12.64-.547-15.83C46.972.877 46.532 0 45.916 0c-.493 0-1.233.653-1.697 2.493-1.179 4.686-3.694 15.1-4.775 20.39-.033.146-.196.146-.228 0-.12-.54-.227-1.154-.329-1.67-.322-1.632-.601-3.042-1.153-3.817-.629-.88-1.559-.936-2.685-.194a7.85 7.85 0 0 0-.742.587c-.723.618-1.54 1.32-2.899 1.32H18.135l-.326 1.749h13.968c1.427 0 2.753-.818 3.544-1.382.4-.286.68-.452.902-.452.306 0 .443.31.557.775.057.228.125.543.203.908.265 1.208.662 3.112 1.166 4.378.235.59.583.915.983.915.61 0 1.233-.717 1.584-1.827.471-1.48 3.295-13.641 4.487-18.734.049-.21.076-.326.08-.336.02-.09.08-.149.15-.149.062 0 .132.053.135.168v.019c.091 5.153.349 14.205.735 15.135.213.513.54.786.947.786.47 0 1.035-.378 1.436-.96.203-.292.46-.674.734-1.078.674-.996 1.439-2.123 1.663-2.365.338-.354.724-.354 1.274.017.079.054.175.123.286.203.586.422 1.566 1.003 2.667 1.305.73.198 1.67.24 2.329.24.426 0 .878-.016 1.01-.024l.302-1.621c-.159.008-.588.02-.987.02z" fill-rule="evenodd"/></symbol><symbol viewBox="0 0 41.551 41.551" id="icon--close" xmlns="http://www.w3.org/2000/svg"><path fill="none" stroke="#fff" stroke-width="4" stroke-linecap="round" stroke-linejoin="round" stroke-miterlimit="10" d="M2 39.6L39.6 2M2 2l37.6 37.6"/></symbol><symbol viewBox="50 40 300 20" id="icon--fifa" xmlns="http://www.w3.org/2000/svg"><path fill-rule="evenodd" d="M81.363 12.92v80.696h25.488V64.48h17.71l6.89-17.64h-24.6V30.47h29.94l6.53-17.548H81.36m69.748-.002l-.046 80.696h25.192V12.92H151.11m124.01 54.338l9.705-33.6 10.053 33.6H275.12zm23.194-54.338h-26.158l-29.004 80.704h24.35l3.133-10.852h28.383l3.282 10.852h25.094l-29.08-80.704m-104.662 0v80.696h25.473V64.48h17.69l6.935-17.64h-24.625V30.47h29.947l6.578-17.548h-61.998" fill="#fff"/></symbol><symbol viewBox="-1 11 80 80" id="icon--github" xmlns="http://www.w3.org/2000/svg"><path d="M39 11C17 11-1 29.4-1 52c0 18 11.5 33.5 27.4 39 2 .3 2.7-1 2.7-2v-7.7c-11 2.5-13.4-4.8-13.4-4.8-2-4.8-4.5-6-4.5-6-3.5-2.6.4-2.5.4-2.5 4 .3 6 4.2 6 4.2 3.7 6.3 9.5 4.5 11.8 3.4.3-2.6 1.4-4.4 2.5-5.5-9-1-18.2-4.4-18.2-20 0-4.6 1.5-8.3 4-11-.3-1.2-1.7-5.3.5-11 0 0 3.3-1 11 4.2 3.2-1 6.6-1.3 10-1.4 3.4 0 6.8.5 10 1.4C56.6 27 60 28 60 28c2.2 5.7.8 9.8.4 11 2.6 2.7 4 6.4 4 11 0 15.6-9.2 19-18.2 20 1.5 1.4 2.8 4 2.8 7.7V89c0 1 .6 2.3 2.7 2C67.5 85.4 79 70 79 52c0-22.6-18-41-40-41z"/></symbol><symbol viewBox="-1 11 80 80" id="icon--linkedin" xmlns="http://www.w3.org/2000/svg"><path d="M73.08 11.06H4.9c-3.26 0-5.9 2.58-5.9 5.76V85.3c0 3.17 2.64 5.76 5.9 5.76h68.18c3.26 0 5.92-2.6 5.92-5.77V16.8c0-3.18-2.66-5.76-5.92-5.76zM22.73 79.23H10.86V41.05h11.87v38.18zm-5.93-43.4c-3.8 0-6.9-3.08-6.9-6.88s3.1-6.88 6.9-6.88c3.8 0 6.87 3.1 6.87 6.88 0 3.8-3.08 6.88-6.88 6.88zm50.37 43.4H55.3V60.66c0-4.43-.07-10.12-6.15-10.12-6.18 0-7.13 4.82-7.13 9.8v18.9H30.17v-38.2h11.38v5.23h.16c1.6-3 5.46-6.17 11.24-6.17 12 0 14.23 7.9 14.23 18.2v20.93z"/></symbol><symbol viewBox="0 0 78 102" id="icon--note" xmlns="http://www.w3.org/2000/svg"><path d="M2 2h74v98H2zm15 29h44M17 45h44M17 58h44M17 71h25" fill="none" stroke="#333" stroke-width="4" stroke-linecap="round" stroke-linejoin="round" stroke-miterlimit="10"/></symbol><symbol viewBox="17.313 -212.174 836.345 150" preserveAspectRatio="xMinYMin meet" id="icon--patrick" xmlns="http://www.w3.org/2000/svg"><path d="M17.313-211.096h60.06c35.073 0 56.284 21.05 56.284 51.469v.424c0 34.461-26.482 52.327-59.426 52.327H49.624v44.667H17.313v-148.887zM75.27-136.01c16.168 0 25.62-9.792 25.62-22.551v-.436c0-14.684-10.074-22.551-26.253-22.551H49.648v45.538H75.27zm100.274-76.164h29.815l63.023 149.966h-33.83L221.12-95.582h-62.163l-13.43 33.374h-33.008l63.023-149.953v-.013zm34.022 87.638l-19.551-48.286-19.512 48.286h39.063zm78.647-56.371h-44.739v-30.213h121.791v30.213h-44.728v118.724h-32.348v-118.749l.024.025zm93.258-30.189h67.205c18.689 0 33.197 5.301 42.854 15.082 8.184 8.304 12.593 19.997 12.593 34.039v.436c0 24.04-12.795 39.146-31.498 46.166l35.908 53.166h-37.81l-31.499-47.621H413.82v47.621h-32.349v-148.889zm65.127 72.313c15.738 0 24.758-8.509 24.758-21.049v-.436c0-14.043-9.654-21.28-25.401-21.28h-32.148v42.765H446.598zm76.659-72.313h32.309v148.888h-32.309v-148.888zM793.775-147.948l59.883-63.148h-39.064l-59.641 65.074v-65.074h-32.35v148.888h32.35v-45.501l17.016-17.879 23.188 32.293 22.135-22.423M573.229-136.179v-.409c0-40.928 29.495-74.415 71.778-74.415 25.937 0 41.48 9.054 54.267 22.2l-19.266 23.229c-10.619-10.07-21.439-16.247-35.2-16.247-23.208 0-39.926 20.154-39.926 44.81v.421c0 24.678 16.325 45.218 39.926 45.218 15.729 0 25.363-6.574 36.185-16.867l19.257 20.388c-14.119 15.801-29.863 25.675-56.416 25.675-40.506 0-70.594-32.692-70.594-74.005h-.011z"/></symbol><symbol viewBox="0 0 36.8 53" id="icon--pb" xmlns="http://www.w3.org/2000/svg"><path d="M17.2 0H0v39.2L14 53V40h3.2c10.8 0 19.6-9.2 19.6-20S28 0 17.2 0zm.8 28h-7V12.4l5-5.7V12h2c4.4 0 8 3.6 8 8s-3.6 8-8 8z"/></symbol><symbol viewBox="11.751 0 51.998 214.1" id="icon--pencil" xmlns="http://www.w3.org/2000/svg"><path fill="#333" d="M61.75 0c-1.1 0-2 .9-2 2v182.8c0 3.2-2.8 6-6 6-3.25 0-6-2.75-6-6V122c0-1.1-.9-2-2-2s-2 .9-2 2v62.8c0 3.3-2.7 6-6 6s-6-2.7-6-6V84c0-1.1-.9-2-2-2s-2 .9-2 2v100.8c0 3.3-2.7 6-6 6-1.6 0-3.05-.63-4.13-1.65l-.06-.07c-.02 0-.03-.02-.05-.04a6.048 6.048 0 0 1-1.75-4.24V99c0-1.1-.9-2-2-2s-2 .9-2 2v85.8c0 2.8 1.15 5.3 3 7.13l21.6 21.5a1.992 1.992 0 0 0 2.8-.01l21.5-21.4c.12-.1.2-.24.3-.36 1.72-1.8 2.8-4.23 2.8-6.86V2c0-1.1-.9-2-2-2zm-24 209.18l-3-3c1.9-1.08 4.2-1.1 6.06-.05l-3.05 3.05zm5.97-5.94c-3.52-2.54-8.3-2.52-11.9.05l-8.63-8.62c2.66-.38 5-1.82 6.55-3.9a9.952 9.952 0 0 0 8 4.02c3.3 0 6.2-1.6 8.03-4.04 1.56 2.06 3.9 3.52 6.53 3.92l-8.58 8.56z"/></symbol><symbol viewBox="0 0 47 14" id="icon--rbs" xmlns="http://www.w3.org/2000/svg"><g fill-rule="evenodd"><path d="M13.147 6.753h-2.163c-.46 0-.887-.272-1.022-.68-.392-1.141-1.517-1.55-1.517-1.55a1.092 1.092 0 0 1-.715-1.02V1.34c0-.594.494-1.07 1.09-1.07.596 0 1.073.442 1.073 1.07l-.016 1.736 2.503-2.5a1.08 1.08 0 0 1 1.533 0 1.097 1.097 0 0 1 0 1.547l-2.47 2.45h1.704c.596 0 1.09.494 1.09 1.09 0 .596-.494 1.089-1.09 1.089m-.017 2.62l-1.738-.017 2.504 2.501a1.077 1.077 0 0 1 0 1.531 1.078 1.078 0 0 1-1.533 0l-2.47-2.467v1.703c0 .646-.494 1.088-1.09 1.088-.596 0-1.09-.493-1.09-1.088v-2.162c0-.46.29-.885.698-1.021 1.142-.392 1.534-1.514 1.534-1.514a1.11 1.11 0 0 1 1.022-.714h2.163c.596 0 1.09.493 1.09 1.089 0 .594-.443 1.07-1.09 1.07m-6.965 4.323c-.596 0-1.074-.391-1.057-1.071l.017-1.737-2.504 2.501c-.426.427-1.124.427-1.532 0-.426-.424-.426-1.123 0-1.53L3.54 9.39H1.855c-.614 0-1.09-.494-1.09-1.088 0-.596.476-1.09 1.09-1.09h2.163c.46 0 .869.273 1.022.681.392 1.156 1.499 1.548 1.499 1.548.426.153.716.544.716 1.02v2.163c0 .595-.477 1.071-1.09 1.071m.39-9.155c-1.14.409-1.532 1.515-1.532 1.515a1.112 1.112 0 0 1-1.022.715H1.838c-.597 0-1.09-.493-1.09-1.09 0-.595.408-1.071 1.09-1.071l1.737.017-2.504-2.502a1.077 1.077 0 0 1 0-1.53 1.08 1.08 0 0 1 1.533 0l2.47 2.466V1.358a1.082 1.082 0 0 1 2.164 0V3.52c0 .46-.273.886-.682 1.021M41.74 13.78c-1.158 0-2.622-.187-3.354-.408l.58-2.383c.526.239 1.702.614 2.775.614 1.294 0 2.265-.563 2.265-1.703 0-.97-.596-1.479-2.265-2.126-1.703-.663-3.116-1.48-3.116-3.897 0-2.365 1.872-3.675 4.717-3.675 1.209 0 2.436.239 3.168.477l-.562 2.313c-.494-.272-1.448-.613-2.606-.613-1.38 0-1.993.528-1.993 1.43 0 .919.681 1.26 2.163 1.906 2.044.868 3.322 1.736 3.322 4.015 0 2.519-2.01 4.05-5.093 4.05m-9.146-5.954h-1.566v3.81h1.651c1.295 0 2.3-.51 2.3-1.924 0-1.29-.937-1.886-2.385-1.886m.016-5.43H31.03v3.455h1.464c1.107 0 2.06-.595 2.06-1.787 0-1.123-.68-1.668-1.942-1.668m.137 11.265h-4.291V.373h4.513c2.59 0 4.292 1.257 4.292 3.47 0 1.566-1.039 2.45-2.027 2.842 1.363.358 2.47 1.293 2.47 3.045 0 2.314-1.79 3.931-4.957 3.931M21.884 2.413h-1.312v3.795h1.022c1.38 0 2.383-.595 2.383-1.889 0-1.14-.732-1.906-2.093-1.906m2.468 11.248c-.8-1.617-2.247-4.17-3.098-5.495h-.682v5.495h-2.555V.373h4.207c2.775 0 4.428 1.325 4.428 3.98 0 1.821-1.312 2.945-2.692 3.404.886 1.207 2.59 4.168 3.44 5.904h-3.048"/></g></symbol><symbol viewBox="80 15 250 80" id="icon--universal" xmlns="http://www.w3.org/2000/svg"><path fill="#fff" fill-rule="evenodd" d="M206.704 34.734c.344-.517 1.386-.172 2.12-.155.983.02.75 1.47 2.113 1.19 1.36-.29 1.377 1.29 3.32 1.23 1.95-.06-.39.68-.39.68s-1.204-.59-1.98-.19c-.416.21.15-.12-.544-.69-1.068-.88-.922.16-2.714-1.36-1.28-1.08-2.49.13-1.93-.72"/><path fill="#fff" d="M192.072 36.742c-1.152-1.862-.292-4.18 1.015-6.435.958-1.66 3.522-2.393 5.75-1.523 2.504-1.973 3.104.15 5.32-.808 2.914-1.262 1.285 3.35 4.1 4.51 1.166-3.106-2.652-5.44-.26-6.902 1.713-1.046 3.006-1.695 3.708-3.09.998-1.995 1.386-3.452 2.16-3.712 1.773-.61 1.39-2.296 1.39-2.296s1.893.552 3.358-.825c-1.12-.6-2.763-1.12-2.326-2.33.508-1.42 4.313 1.47 5.438-.86-2.264-.98-4.577-3.13-5.96-3.62-.943 1.04-1.54.62-2.762-.34-2.07-1.64-2.242-.08-3.54-1.2-1.03 2.07.53 1.91 1.002 2.43 1.33 1.46-1.346-1.3-1.086 2.41.06.96-1.36 1.14-2.42-.95-.55-1.09-4.95-.86-5.62-1.9.61-1.21 5.78-5.52 13.72-4.48-11.54-4.53-27.13.42-27.29 2.14-1.56.98-1.02 2.1-1.8 2.35-1.35.45-2.81 4.56-2.81 4.56s.83.56-1.78 3.48c-2.15 2.41-2.78 6.06-2.78 6.06s1.42 2.6 1.14 5.59c-.2 2.29-.3.59.69 2.25.58.97 1.21 4.35 1.59 3.03.73-2.51-1.34-4.84-1-7.35.08.32.79-.99.77.19-.08 3.09 3.8 9.05 3.8 9.05s-1.45 1.48.07 1.48l-.39.92s1.12-.062 1.85.53c.73.59 1.35 1.324 2.01 1.324h11.17s.79-3.39 1.44-3.966c.65-.574-1.3 0-1.87-.574-.58-.58-.94.5-1.23 1.07-.29.58-.65 1.59-1.518 1.875-.863.29-2.95.43-3.38.43-.43 0-1.73-2.46-1.73-2.46M244.37 73c-.434-.575.07-1.444.07-1.444h-31.47l3.51 3.063a4.068 4.068 0 0 1 2.182 2.26c1.05 2.78-.512.53-.512 4.74 0 3.87-1.09 3.24-1.09 3.24s-.233 4.58-2.604 7.39c-1.505 1.51-.335 2.77-.335 2.77s-.5.28-1.24 3.6c-.24 1.07 1.14 2.73 2.33 2.31.9-.31-2.17-.61 1.16-2.01 1.28-.55.24-1.57.24-1.57s2.15-.17 3.37-3.42c2.15.31 1.35-1 5.77-1.96 1.17-.25 1.41-.6 1.27-1.7-.14-1.1 1.44.16 5.82-4.3 3.45-3.52 2.21-4.32 4.59-5.59 2.52-1.34 2.75.11 3.59-.98 1.93-2.51 1.25-2.35 2.05-3.95l.57-.88s1.2-1.04.78-1.62m-22-33.59l-.7.42-.14-.694.85.28zm-2.51-.55c-1.12.24-2.31 0-3.36.834l-.7-.56h-.42c.98-.8-.56-1.64 1.12-1.68 1.3.035 2.24.94 3.36 1.4"/><path fill="#fff" fill-rule="evenodd" d="M152.24 39.85C159.51 17.365 176.72 0 205.482 0c26.726 0 46.364 17.603 53.49 40.34-7.435-21.192-28.556-36.478-53.45-36.478-24.71 0-45.7 15.052-53.282 35.988m106.61 34.394c-7.233 22.542-27.582 40.08-53.368 40.08-27.354 0-45.734-17.3-53.128-39.59 7.694 20.763 28.586 35.656 53.167 35.656 24.77 0 45.8-15.127 53.33-36.146"/><path fill="#fff" d="M109.274 45.354h-8.77l1.31 1.558v11.52c0 2.587-1.713 3.678-4.277 3.678-2.556 0-4.273-1.09-4.273-3.677v-11.52l1.31-1.56h-8.77l1.31 1.56v11.705c0 5.743 3.215 7.96 10.423 7.96s10.42-2.217 10.42-7.96V46.912l1.317-1.558m30.44 0h-7.4l1.307 1.558V57.4l-10.6-12.046h-6.64l1.31 1.558v17.696l-1.31 1.563h7.4l-1.31-1.56V53.94l11.26 12.233h4.69V46.915l1.31-1.558zm17.04 20.816l-1.31-1.558V46.917l1.31-1.563h-8.83l1.314 1.563v17.695l-1.315 1.56h8.832zm29.126-20.816h-7.43l1.31 1.558-5.243 11.455-5.054-11.455 1.31-1.558h-8.734l9.7 20.817h4.34l9.8-20.81zm24.806 20.816v-5.65l-1.563 1.312H198.48v-3.995h6.746l1.527 1.315v-6.775l-1.527 1.31h-6.745v-3.994h10.65l1.57 1.31v-5.65h-19.6l1.31 1.564v17.695l-1.3 1.56h19.6z"/><path fill="#fff" fill-rule="evenodd" d="M233.343 52.094c0 1.497-1.435 2.715-3.434 2.715h-3.96v-5.12h4.71c1.37 0 2.68.68 2.68 2.4m7.17 14.07l-5.65-8.21c2.77-1.12 4.71-3.28 4.71-6.31 0-3.47-2.13-6.31-8.06-6.31h-12.98l1.31 1.56v17.7l-1.31 1.56h8.7l-1.31-1.56v-5.9h2.62l3.99 5.89-1.31 1.56h9.26"/><path fill="#fff" d="M266.885 60.084c0-3.306-2.657-5.152-6.493-6.4-2.498-.778-6.025-1.338-6.025-2.993 0-.81.966-1.37 2.653-1.37 2.25 0 5.928.94 8.8 2.31v-6.96l-1.654 1.6c-1.748-.72-4.776-1.47-6.864-1.47-7.084 0-9.362 3.12-9.362 5.97 0 3.87 2.56 5.56 6.586 6.96 2.992 1.03 5.773 1.12 5.773 2.84 0 1.48-1.72 1.66-2.6 1.66-2.21 0-6.15-.78-9.64-3.06v7.71l1.65-1.81c1.62.62 5.27 1.69 8.26 1.69 6.15 0 8.9-2.71 8.9-6.64"/><path fill="#fff" fill-rule="evenodd" d="M287.997 58.68h-6.895l3.435-7.455 3.46 7.455zm10.016 7.49l-10.24-20.816h-7.02l.747 1.563-9.265 19.254h7.64l-1.306-1.56 1.02-2.18h9.92l1 2.19-1.32 1.57H298z"/><path fill="#fff" d="M322.678 66.17v-5.65l-1.562 1.312h-10.02V46.917l1.31-1.563H303.7l1.315 1.563v17.695l-1.315 1.56h18.98zm-4.392-16.314c0-2.29 1.863-4.15 4.154-4.15 2.29 0 4.153 1.86 4.153 4.15a4.154 4.154 0 0 1-8.307 0m.393 0a3.758 3.758 0 0 0 3.76 3.766c2.08 0 3.76-1.69 3.76-3.766 0-2.08-1.69-3.765-3.77-3.765-2.09 0-3.76 1.69-3.76 3.77"/><path fill="#fff" fill-rule="evenodd" d="M324.002 48.232a2.165 2.165 0 0 0-1.44-.512c-1.22 0-2.13.95-2.13 2.15 0 1.21.89 2.162 2.123 2.162.55 0 1.077-.203 1.5-.57v-.542c-.384.455-.93.737-1.522.737-.976 0-1.695-.847-1.695-1.787s.728-1.77 1.703-1.77c.59 0 1.08.242 1.47.67v-.538"/></symbol><symbol viewBox="0 0 115 20" id="icon--vodafone" xmlns="http://www.w3.org/2000/svg"><g fill-rule="evenodd"><path d="M13.537.864A9.535 9.535 0 0 0 9.562 0C4.277 0 0 4.303 0 9.62c0 5.36 4.277 9.662 9.562 9.662 5.285 0 9.602-4.303 9.602-9.661A9.63 9.63 0 0 0 13.62.903l.062-.03a9.284 9.284 0 0 0-.146-.01zm0 0l.084.039c-1.665.835-2.796 2.369-2.854 4.137 2.475.425 4.366 2.527 4.366 5.06 0 2.863-2.378 5.162-5.29 5.162-3.22 0-5.415-2.834-5.359-6.01 0-4.642 3.851-8.4 8.61-8.4.149 0 .296.004.443.012zM73.844 15.944h3.07V7.696h2.804V4.851h-2.803v-.437c0-1.66 1.917-1.474 3.19-1.224V.52c-4.29-.936-6.224.39-6.26 3.539v11.885zM24.506 4.814h3.29l2.788 6.942 2.789-6.942h3.288L32.23 15.85l-.016.04h-3.258l-.016-.04-4.433-11.035zm85.14 2.426c1.016 0 1.887.804 2.253 1.944h-4.507c.366-1.14 1.237-1.944 2.253-1.944zm-.222-2.597c2.884 0 5.222 2.572 5.222 5.742 0 .404-.038.797-.11 1.176h-7.151c.18.392.326.747.526 1.052.966.936 1.701 1.098 3.105 1.098 1.218 0 2.112-.167 2.78-.456l.359-.07.01 2.041c-1.439 1.068-3.466.93-4.74.93-2.884 0-5.222-2.6-5.222-5.77 0-3.171 2.338-5.743 5.221-5.743zM92.5 15.935v.07h2.962v-.07h.069V7.866a8.76 8.76 0 0 1 2.176-.292c1.605.068 2.383 1.017 2.333 2.714v5.717h3.138v-5.823c.115-3.465-1.7-5.268-5.443-5.406-1.732.022-3.49.22-5.235.77v10.389zm-6.85-8.683c1.347 0 2.439 1.403 2.439 3.133s-1.092 3.134-2.438 3.134-2.438-1.404-2.438-3.134 1.092-3.133 2.438-3.133zm0-2.609c3.152 0 5.708 2.571 5.708 5.742s-2.556 5.743-5.707 5.743c-3.15 0-5.707-2.572-5.707-5.743 0-3.17 2.556-5.742 5.707-5.742zm-16.74 2.97v4.795c-.006.338-.733 1.098-2.051 1.085-1.319-.013-2.35-1.29-2.35-3.02 0-2.21 2.073-3.748 4.4-2.86zm.214 8.392h2.803V5.404c-1.732-.406-3-.673-5.09-.673-3.15 0-5.706 2.572-5.706 5.742 0 3.171 2.473 5.668 4.795 5.668 2.321 0 2.547-.73 3.19-.982l.008.846zm-12.166-2.842V7.608a3.156 3.156 0 0 0-1.46-.356 3.143 3.143 0 0 0-3.152 3.133 3.143 3.143 0 0 0 3.152 3.134c.527 0 1.023-.13 1.46-.356zm0-12.691h3.018v15.212a27.75 27.75 0 0 1-5.09.444c-3.151 0-5.707-2.572-5.707-5.743 0-3.17 2.556-5.742 5.707-5.742.73 0 1.43.138 2.072.39V.472zm-14.662 6.78c1.346 0 2.438 1.403 2.438 3.133s-1.092 3.134-2.438 3.134-2.438-1.404-2.438-3.134 1.092-3.133 2.438-3.133zm0-2.609c3.152 0 5.707 2.571 5.707 5.742s-2.555 5.743-5.707 5.743c-3.15 0-5.707-2.572-5.707-5.743 0-3.17 2.556-5.742 5.707-5.742z"/></g></symbol></svg>