<svg width="0" height="0" style="position:absolute"><symbol viewBox="0 0 84.8 112.9" id="icon--brackett"><path d="M35 111c-40 0-8.4-54.5-33-54.5C26.6 56.5-5 2 35 2m14.7 0c40 0 8.5 54.5 33 54.5-24.5 0 7 54.4-33 54.4" fill="none" stroke="#333" stroke-width="4" stroke-linecap="round" stroke-linejoin="round" stroke-miterlimit="10"/></symbol><symbol viewBox="0 0 41.551 41.551" id="icon--close"><path fill="none" stroke="#fff" stroke-width="4" stroke-linecap="round" stroke-linejoin="round" stroke-miterlimit="10" d="M2 39.6L39.6 2M2 2l37.6 37.6"/></symbol><symbol viewBox="0 0 78 102" id="icon--note"><path d="M2 2h74v98H2zm15 29h44M17 45h44M17 58h44M17 71h25" fill="none" stroke="#333" stroke-width="4" stroke-linecap="round" stroke-linejoin="round" stroke-miterlimit="10"/></symbol><symbol viewBox="0 0 36.8 53" id="icon--pb"><path fill="#434A54" d="M17.2 0H0v39.2L14 53V40h3.2c10.8 0 19.6-9.2 19.6-20S28 0 17.2 0zm.8 28h-7V12.4l5-5.7V12h2c4.4 0 8 3.6 8 8s-3.6 8-8 8z"/></symbol><symbol viewBox="0 0 75.5 214.1" id="icon--pencil"><path fill="none" stroke="#333" stroke-width="4" stroke-linecap="round" stroke-linejoin="round" stroke-miterlimit="10" d="M4.4 190.5L26 212l21.5-21.4m28 8.9"/><path fill="none" stroke="#333" stroke-width="4" stroke-linecap="round" stroke-linejoin="round" stroke-miterlimit="10" d="M18 184.8c0 4.4-3.6 8-8 8s-8-3.6-8-8V99m32 85.8c0 4.4-3.6 8-8 8s-8-3.6-8-8V84m16 38v62.8c0 4.4 3.7 8 8 8s8-3.7 8-8V2M20.4 205.6c3.2-3 8.2-3 11.3 0"/></symbol></svg>