<svg width="0" height="0" style="position:absolute"><symbol viewBox="0 0 84.8 112.9" id="_svg--bracket"><path d="M35 111c-40 0-8.4-54.5-33-54.5C26.6 56.5-5 2 35 2m14.7 0c40 0 8.5 54.5 33 54.5-24.5 0 7 54.4-33 54.4" fill="none" stroke="#333" stroke-width="4" stroke-linecap="round" stroke-linejoin="round" stroke-miterlimit="10"/></symbol><symbol viewBox="0 0 41.551 41.551" id="_svg--close"><path fill="none" stroke="#fff" stroke-width="4" stroke-linecap="round" stroke-linejoin="round" stroke-miterlimit="10" d="M2 39.6L39.6 2M2 2l37.6 37.6"/></symbol><symbol viewBox="-9 -9 50 50" id="_svg--email"><path d="M36.805 36.85h-41.66V10.8l20.83 13.55 20.83-13.55v26.05zM-6.903 41h45.805C41 41 41 41 41 38.9V7.65L15.975-9-9 7.65V38.9C-9 41-9 41-6.903 41z"/></symbol><symbol viewBox="0 0 78 102" id="_svg--note"><path d="M2 2h74v98H2zm15 29h44M17 45h44M17 58h44M17 71h25" fill="none" stroke="#333" stroke-width="4" stroke-linecap="round" stroke-linejoin="round" stroke-miterlimit="10"/></symbol><symbol viewBox="0 0 36.8 53" id="_svg--pb"><path fill="#434A54" d="M17.2 0H0v39.2L14 53V40h3.2c10.8 0 19.6-9.2 19.6-20S28 0 17.2 0zm.8 28h-7V12.4l5-5.7V12h2c4.4 0 8 3.6 8 8s-3.6 8-8 8z"/></symbol><symbol viewBox="0 0 75.5 214.1" id="_svg--pencil"><path fill="none" stroke="#333" stroke-width="4" stroke-linecap="round" stroke-linejoin="round" stroke-miterlimit="10" d="M4.4 190.5L26 212l21.5-21.4m28 8.9"/><path fill="none" stroke="#333" stroke-width="4" stroke-linecap="round" stroke-linejoin="round" stroke-miterlimit="10" d="M18 184.8c0 4.4-3.6 8-8 8s-8-3.6-8-8V99m32 85.8c0 4.4-3.6 8-8 8s-8-3.6-8-8V84m16 38v62.8c0 4.4 3.7 8 8 8s8-3.7 8-8V2M20.4 205.6c3.2-3 8.2-3 11.3 0"/></symbol><symbol viewBox="0 0 32 32" overflow="visible" id="_svg--vodafone"><path fill-rule="evenodd" clip-rule="evenodd" d="M22.17 1.233c-2.828.64-4.958 3.24-4.958 6.35 0 .067.02.147.02.213 4.47.983 6.724 4.097 6.724 8.204 0 4.616-3.65 8.354-8.115 8.354-4.464 0-8.633-3.848-8.633-9.556 0-6.968 5.778-13.505 14.014-13.71.148-.005.385 0 .625.012A15.98 15.98 0 0 0 16 0C7.165 0 0 7.164 0 16c0 8.837 7.164 16 16 16s16-7.163 16-16c0-6.65-4.06-12.352-9.83-14.767z"/></symbol></svg>