<?xml version="1.0" encoding="utf-8"?>
<!-- Generator: Adobe Illustrator 15.0.0, SVG Export Plug-In . SVG Version: 6.00 Build 0)  -->
<!DOCTYPE svg PUBLIC "-//W3C//DTD SVG 1.1//EN" "http://www.w3.org/Graphics/SVG/1.1/DTD/svg11.dtd">
<svg version="1.1" id="Layer_1" xmlns="http://www.w3.org/2000/svg" xmlns:xlink="http://www.w3.org/1999/xlink" x="0px" y="0px"
	 width="767.01px" height="150px" viewBox="22.994 -210.616 767.01 150" enable-background="new 22.994 -210.616 767.01 150"
	 xml:space="preserve" preserveAspectRatio="xMinYMin meet">
<path d="M154.833-135.215v-0.4c0-41.25,32.52-75,77.27-75c44.75,0,76.86,33.35,76.86,74.6v0.4c0,41.23-32.52,75-77.27,75
	s-76.9-33.38-76.9-74.6H154.833L154.833-135.215z M275.614-135.215v-0.4c0-24.88-18.25-45.6-43.92-45.6
	c-25.68,0-43.5,20.321-43.5,45.2v0.4c0,24.88,18.23,45.6,43.899,45.6c25.7,0,43.5-20.32,43.5-45.199H275.614L275.614-135.215z
	 M305.614-208.116h34.2l30.029,98.2l32.52-98.64h27.381l32.5,98.629l30.049-98.189h33.4l-49.6,146.04h-27.75l-32.721-94.899
	l-32.75,94.899h-27.75l-49.5-146.06v0.02H305.614z M537.514-208.116h109.4v28.38h-77.701v29.399h68.381v28.381h-68.381v30.47h78.73
	v28.37h-110.43V-208.116z M664.654-208.116h66.299c18.441,0,32.75,5.16,42.25,14.7c8.1,8.08,12.461,19.46,12.461,33.14v0.42
	c0,23.43-12.65,38.131-31.08,44.971l35.42,51.77h-37.301l-31.08-46.38h-25.049v46.38h-31.9v-145H664.654z M728.883-137.696
	c15.541,0,24.451-8.279,24.451-20.5v-0.42c0-13.68-9.52-20.7-25.061-20.7h-31.699v41.601h32.299v0.02H728.883z M119.884-138.926
	c10.37-5.819,19.35-14.949,19.35-31.299v-0.39c0-9.96-3.6-18.04-10.23-24.68c-7.3-7.3-18.45-11.92-32.3-12.87l-27.91,27.55h17.25
	c13.47,0,20.7,5.84,20.7,15.38v0.399c0,10.781-8.68,15.471-22.75,15.471h-29.75v-16.58l-31.25,31.08v71.75h69.5
	c32.73,0,54.25-13.25,54.25-39.75v-0.42c0-19.5-10.07-29.23-26.85-35.63L119.884-138.926z M115.484-106.826
	c0,10.76-8.93,16.2-23,16.2h-38.24v-32.49h37.2c16.38,0,24.05,6.15,24.05,15.88v0.42L115.484-106.826z"/>
</svg>
