<svg id="Layer_1" data-name="Layer 1" xmlns="http://www.w3.org/2000/svg" viewBox="0 0 225.74 300"><defs><style>.cls-1{fill-rule:evenodd;}</style></defs><title>Untitled-4</title><path class="cls-1" d="M174.57,35.36c0,6.54-2.32,15.57-11.58,15.57-11.17,0-11.17-12.54-11.17-15.17s0-16,11.49-16c10.46,0,11.26,11.57,11.26,15.57ZM152,.39h-7.51V48.61l-.16,7.19h7.26l.16-6.07a12.87,12.87,0,0,0,3.92,4.07,15.81,15.81,0,0,0,8.94,2.56,16.94,16.94,0,0,0,14-6.87c2-2.64,3.83-6.87,3.83-14.62,0-8.78-2.71-12.77-4.71-15.08-3.67-4.16-8.7-5.11-12.69-5.11-9.1,0-12.06,5-13.09,6.86V.39Z" transform="translate(-0.48 -0.39)"/><path class="cls-1" d="M195.41,37c0-3.59,0-16.29,12-16.29,8.86,0,11,7.51,11,14.7,0,2.87-.4,8.62-3.27,12.53-2.56,3.51-6.56,3.91-8.47,3.91-10.53,0-11.25-10-11.25-14.85ZM188.23,71.2h7.42V51.32c2.15,3.52,6.46,6,12.29,6,9.59,0,18.28-6.55,18.28-21.47S218,15.08,209.38,15.08c-3.27,0-9.9,1-13.65,7.26l-.16-6.62H188c.17,3.83.25,4.79.25,6.54V71.2Z" transform="translate(-0.48 -0.39)"/><path class="cls-1" d="M113.32,71.21a162.24,162.24,0,0,1,13.79,25.08,111.85,111.85,0,0,0-13.79,18.51A111.14,111.14,0,0,0,99.55,96.29a163.76,163.76,0,0,1,13.77-25.08Z" transform="translate(-0.48 -0.39)"/><path class="cls-1" d="M113.32,256.8a112.21,112.21,0,0,0,13.79,18.5,160,160,0,0,1-13.79,25.09A162.49,162.49,0,0,1,99.55,275.3a110.52,110.52,0,0,0,13.77-18.5Z" transform="translate(-0.48 -0.39)"/><path class="cls-1" d="M74.14,78.12A162.53,162.53,0,0,1,95.67,97a110.89,110.89,0,0,0-6.62,22.09,111.86,111.86,0,0,0-19.28-12.67,161.66,161.66,0,0,1,4.37-28.29Z" transform="translate(-0.48 -0.39)"/><path class="cls-1" d="M137.62,252.53a112.35,112.35,0,0,0,19.27,12.67,161.18,161.18,0,0,1-4.37,28.29A165.19,165.19,0,0,1,131,274.62a111.58,111.58,0,0,0,6.64-22.09Z" transform="translate(-0.48 -0.39)"/><path class="cls-1" d="M39.67,98a162.12,162.12,0,0,1,26.69,10.37c-.07,1.77-.14,3.54-.14,5.28a107.05,107.05,0,0,0,1.45,17.73,111.43,111.43,0,0,0-22.43-5.3A163.33,163.33,0,0,1,39.67,98Z" transform="translate(-0.48 -0.39)"/><path class="cls-1" d="M160.44,258A108.59,108.59,0,0,0,159,240.2a110.66,110.66,0,0,0,22.42,5.3A162.53,162.53,0,0,1,187,273.58a160.83,160.83,0,0,1-26.68-10.36c.07-1.77.13-3.54.13-5.27Z" transform="translate(-0.48 -0.39)"/><path class="cls-1" d="M42.71,129.13a112.47,112.47,0,0,0,9.11,21.14A110.8,110.8,0,0,0,28.94,153,160.68,160.68,0,0,1,14.1,128.5a161.21,161.21,0,0,1,28.61.63Z" transform="translate(-0.48 -0.39)"/><path class="cls-1" d="M197.73,218.61a162.51,162.51,0,0,1,14.84,24.49,163.06,163.06,0,0,1-28.62-.62,111.36,111.36,0,0,0-9.11-21.15,109.69,109.69,0,0,0,22.89-2.72Z" transform="translate(-0.48 -0.39)"/><path class="cls-1" d="M27.59,156.68A110.5,110.5,0,0,0,43.4,173.47a111,111,0,0,0-20.6,10.36A161.69,161.69,0,0,1,.48,165.9a162.59,162.59,0,0,1,27.11-9.22Z" transform="translate(-0.48 -0.39)"/><path class="cls-1" d="M203.87,187.77a162,162,0,0,1,22.31,17.93,161.51,161.51,0,0,1-27.11,9.21,110.32,110.32,0,0,0-15.82-16.77,112.2,112.2,0,0,0,20.62-10.37Z" transform="translate(-0.48 -0.39)"/><path class="cls-1" d="M22.8,187.77a111.74,111.74,0,0,0,20.6,10.37,110.75,110.75,0,0,0-15.81,16.77A161.84,161.84,0,0,1,.48,205.7,161.69,161.69,0,0,1,22.8,187.77Z" transform="translate(-0.48 -0.39)"/><path class="cls-1" d="M199.07,156.68a162.26,162.26,0,0,1,27.11,9.22,163.49,163.49,0,0,1-22.31,17.93,111.51,111.51,0,0,0-20.62-10.36,109.57,109.57,0,0,0,15.82-16.79Z" transform="translate(-0.48 -0.39)"/><path class="cls-1" d="M28.94,218.61a109.45,109.45,0,0,0,22.88,2.72,112,112,0,0,0-9.11,21.15,163,163,0,0,1-28.61.62,162,162,0,0,1,14.84-24.49Z" transform="translate(-0.48 -0.39)"/><path class="cls-1" d="M212.57,128.5A161.51,161.51,0,0,1,197.73,153a111.13,111.13,0,0,0-22.89-2.72A111.64,111.64,0,0,0,184,129.12a162.07,162.07,0,0,1,28.62-.62Z" transform="translate(-0.48 -0.39)"/><path class="cls-1" d="M67.67,240.2A107.48,107.48,0,0,0,66.22,258c0,1.73.07,3.5.14,5.27a161.87,161.87,0,0,1-26.69,10.36,163.51,163.51,0,0,1,5.57-28.08,111.08,111.08,0,0,0,22.43-5.3Z" transform="translate(-0.48 -0.39)"/><path class="cls-1" d="M187,98a162.35,162.35,0,0,1-5.57,28.08A110.82,110.82,0,0,0,159,131.4a108.29,108.29,0,0,0,1.44-17.74c0-1.74-.06-3.5-.14-5.27A161.44,161.44,0,0,1,187,98Z" transform="translate(-0.48 -0.39)"/><path class="cls-1" d="M89,252.53a112,112,0,0,0,6.63,22.09,163.29,163.29,0,0,1-21.53,18.87,162.31,162.31,0,0,1-4.37-28.29A112.35,112.35,0,0,0,89,252.53Z" transform="translate(-0.48 -0.39)"/><path class="cls-1" d="M152.52,78.11a161.8,161.8,0,0,1,4.37,28.3,111.76,111.76,0,0,0-19.27,12.67A111.65,111.65,0,0,0,131,97a164.67,164.67,0,0,1,21.54-18.88Z" transform="translate(-0.48 -0.39)"/><path class="cls-1" d="M98.15,99.75a104.59,104.59,0,0,1,13.29,18.37,77.42,77.42,0,0,0-6.9,17.8A77.94,77.94,0,0,0,92,121.56a104.76,104.76,0,0,1,6.19-21.81Z" transform="translate(-0.48 -0.39)"/><path class="cls-1" d="M122.13,235.69A77.19,77.19,0,0,0,134.71,250a105.68,105.68,0,0,1-6.2,21.82,104.87,104.87,0,0,1-13.29-18.38,78.31,78.31,0,0,0,6.91-17.79Z" transform="translate(-0.48 -0.39)"/><path class="cls-1" d="M69.54,113.67c0-1.17.06-2.36.09-3.55a105.16,105.16,0,0,1,18.78,12.73,81.39,81.39,0,0,0-.86,11.43,74,74,0,0,0,.45,7.65,78,78,0,0,0-16.73-9.2,101.64,101.64,0,0,1-1.73-19.06Z" transform="translate(-0.48 -0.39)"/><path class="cls-1" d="M139.11,237.32a74.48,74.48,0,0,0-.45-7.66,77.23,77.23,0,0,0,16.74,9.21A102.66,102.66,0,0,1,157.11,258c0,1.16-.05,2.35-.07,3.53a105.31,105.31,0,0,1-18.8-12.72,80.3,80.3,0,0,0,.87-11.44Z" transform="translate(-0.48 -0.39)"/><path class="cls-1" d="M46.39,129.64a106.71,106.71,0,0,1,22,5.52,77.55,77.55,0,0,0,6.15,18.09,77.39,77.39,0,0,0-18.87-2.93,105.41,105.41,0,0,1-9.27-20.68Z" transform="translate(-0.48 -0.39)"/><path class="cls-1" d="M152.12,218.35A77.88,77.88,0,0,0,171,221.29,104.88,104.88,0,0,1,180.27,242a104.82,104.82,0,0,1-22-5.54,77.18,77.18,0,0,0-6.16-18.08Z" transform="translate(-0.48 -0.39)"/><path class="cls-1" d="M53.76,153.58a78,78,0,0,0,12,14.9A78.13,78.13,0,0,0,47,172.18a104.63,104.63,0,0,1-15.79-16.27,106.35,106.35,0,0,1,22.55-2.33Z" transform="translate(-0.48 -0.39)"/><path class="cls-1" d="M179.66,199.41a105.29,105.29,0,0,1,15.8,16.29A106.35,106.35,0,0,1,172.91,218a79.23,79.23,0,0,0-12-14.91,77.58,77.58,0,0,0,18.73-3.71Z" transform="translate(-0.48 -0.39)"/><path class="cls-1" d="M46.35,175.91a77.42,77.42,0,0,0,16.33,9.9,76.74,76.74,0,0,0-16.33,9.88A105,105,0,0,1,26,185.81a104,104,0,0,1,20.4-9.9Z" transform="translate(-0.48 -0.39)"/><path class="cls-1" d="M180.31,175.91a104.19,104.19,0,0,1,20.4,9.89,104.74,104.74,0,0,1-20.4,9.89A76.74,76.74,0,0,0,164,185.81a77.67,77.67,0,0,0,16.33-9.9Z" transform="translate(-0.48 -0.39)"/><path class="cls-1" d="M47,199.41a77.58,77.58,0,0,0,18.73,3.71,78,78,0,0,0-12,14.91,106.22,106.22,0,0,1-22.55-2.33A105.25,105.25,0,0,1,47,199.41Z" transform="translate(-0.48 -0.39)"/><path class="cls-1" d="M195.46,155.91a105.12,105.12,0,0,1-15.8,16.27,78,78,0,0,0-18.73-3.7,79.16,79.16,0,0,0,12-14.9,106.35,106.35,0,0,1,22.55,2.33Z" transform="translate(-0.48 -0.39)"/><path class="cls-1" d="M74.53,218.35a77.62,77.62,0,0,0-6.15,18.08,105,105,0,0,1-22,5.54,104.88,104.88,0,0,1,9.27-20.68,77.88,77.88,0,0,0,18.87-2.94Z" transform="translate(-0.48 -0.39)"/><path class="cls-1" d="M180.27,129.63A105.24,105.24,0,0,1,171,150.32a77.4,77.4,0,0,0-18.88,2.93,77.1,77.1,0,0,0,6.16-18.09,105,105,0,0,1,22-5.53Z" transform="translate(-0.48 -0.39)"/><path class="cls-1" d="M104.54,235.69a77.35,77.35,0,0,0,6.9,17.79,104.65,104.65,0,0,1-13.29,18.38A104.67,104.67,0,0,1,92,250a77.88,77.88,0,0,0,12.58-14.35Z" transform="translate(-0.48 -0.39)"/><path class="cls-1" d="M88,229.66a74.68,74.68,0,0,0-.45,7.67,83.23,83.23,0,0,0,.85,11.43,105,105,0,0,1-18.77,12.72c0-1.18-.09-2.37-.09-3.54a101.75,101.75,0,0,1,1.73-19.07A77.15,77.15,0,0,0,88,229.66Z" transform="translate(-0.48 -0.39)"/><path class="cls-1" d="M128.5,99.74a105.2,105.2,0,0,1,6.21,21.81,77.94,77.94,0,0,0-12.58,14.37,78.09,78.09,0,0,0-6.91-17.8A105.32,105.32,0,0,1,128.5,99.74Z" transform="translate(-0.48 -0.39)"/><path class="cls-1" d="M157,110.12c0,1.19.09,2.37.09,3.54a102.55,102.55,0,0,1-1.71,19.07,78.08,78.08,0,0,0-16.74,9.21,74.15,74.15,0,0,0,.45-7.66,80.3,80.3,0,0,0-.87-11.44A106.39,106.39,0,0,1,157,110.12Z" transform="translate(-0.48 -0.39)"/><path class="cls-1" d="M90.88,134.28a77.94,77.94,0,0,1,.55-8.67,72.17,72.17,0,0,1,12.11,14.87,64.34,64.34,0,0,0-1,11.33c0,1.64.11,3.29.23,4.92a65.51,65.51,0,0,0-11-11.94,67.07,67.07,0,0,1-.82-10.51Z" transform="translate(-0.48 -0.39)"/><path class="cls-1" d="M124.15,219.79c0-1.65-.12-3.28-.25-4.93a66,66,0,0,0,11.06,12,66.64,66.64,0,0,1,.83,10.5,77.83,77.83,0,0,1-.56,8.67,72.29,72.29,0,0,1-12.12-14.87,64.45,64.45,0,0,0,1-11.33Z" transform="translate(-0.48 -0.39)"/><path class="cls-1" d="M72.16,136.74a71.53,71.53,0,0,1,16.47,9.82,65.74,65.74,0,0,0,4.82,15.56A64.42,64.42,0,0,0,79,154.67a72.45,72.45,0,0,1-6.81-17.93Z" transform="translate(-0.48 -0.39)"/><path class="cls-1" d="M133.2,209.48a64.53,64.53,0,0,0,14.49,7.46,72.39,72.39,0,0,1,6.82,17.92A71.25,71.25,0,0,1,138,225a65.33,65.33,0,0,0-4.84-15.56Z" transform="translate(-0.48 -0.39)"/><path class="cls-1" d="M57.86,153.78a72.12,72.12,0,0,1,18.83,3.59,65.75,65.75,0,0,0,9.86,13,64.89,64.89,0,0,0-16.19-2.09,72.15,72.15,0,0,1-12.5-14.48Z" transform="translate(-0.48 -0.39)"/><path class="cls-1" d="M140.1,201.26a65.38,65.38,0,0,0,16.21,2.08,71.94,71.94,0,0,1,12.49,14.49,72.36,72.36,0,0,1-18.84-3.6,64.28,64.28,0,0,0-9.86-13Z" transform="translate(-0.48 -0.39)"/><path class="cls-1" d="M69.18,171.61a65,65,0,0,0,13.66,8.8A65.66,65.66,0,0,0,67,184a71.71,71.71,0,0,1-16.74-9.35,72.23,72.23,0,0,1,18.93-3.07Z" transform="translate(-0.48 -0.39)"/><path class="cls-1" d="M159.66,187.56a71.76,71.76,0,0,1,16.74,9.37A71.72,71.72,0,0,1,157.48,200a65,65,0,0,0-13.68-8.8,64.76,64.76,0,0,0,15.86-3.63Z" transform="translate(-0.48 -0.39)"/><path class="cls-1" d="M67,187.56a65.67,65.67,0,0,0,15.86,3.64A65,65,0,0,0,69.18,200a71.73,71.73,0,0,1-18.93-3.06A72.16,72.16,0,0,1,67,187.56Z" transform="translate(-0.48 -0.39)"/><path class="cls-1" d="M157.48,171.61a72.16,72.16,0,0,1,18.92,3.07A71.31,71.31,0,0,1,159.66,184a65.31,65.31,0,0,0-15.86-3.62,64.36,64.36,0,0,0,13.68-8.8Z" transform="translate(-0.48 -0.39)"/><path class="cls-1" d="M86.56,201.26a65.07,65.07,0,0,0-9.87,13,72.12,72.12,0,0,1-18.83,3.6,71.94,71.94,0,0,1,12.5-14.49,65.49,65.49,0,0,0,16.2-2.08Z" transform="translate(-0.48 -0.39)"/><path class="cls-1" d="M168.8,153.78a72.43,72.43,0,0,1-12.49,14.48,64.92,64.92,0,0,0-16.21,2.09,65,65,0,0,0,9.86-13,72.35,72.35,0,0,1,18.84-3.59Z" transform="translate(-0.48 -0.39)"/><path class="cls-1" d="M113.32,216.73a65.9,65.9,0,0,0,6.31,15,71.59,71.59,0,0,1-6.31,18.11,72.34,72.34,0,0,1-6.3-18.11,64.56,64.56,0,0,0,6.3-15Z" transform="translate(-0.48 -0.39)"/><path class="cls-1" d="M102.75,214.86c-.12,1.65-.23,3.28-.23,4.93a64.34,64.34,0,0,0,1,11.33A72.17,72.17,0,0,1,91.43,246a75.43,75.43,0,0,1-.55-8.66,66.88,66.88,0,0,1,.82-10.51,66,66,0,0,0,11-12Z" transform="translate(-0.48 -0.39)"/><path class="cls-1" d="M93.45,209.48A65.74,65.74,0,0,0,88.63,225a71.46,71.46,0,0,1-16.47,9.82A72.07,72.07,0,0,1,79,216.94a64.46,64.46,0,0,0,14.48-7.46Z" transform="translate(-0.48 -0.39)"/><path class="cls-1" d="M113.32,121.76a72,72,0,0,1,6.32,18.1,65.38,65.38,0,0,0-6.32,15,64.88,64.88,0,0,0-6.3-15,72.27,72.27,0,0,1,6.3-18.1Z" transform="translate(-0.48 -0.39)"/><path class="cls-1" d="M135.23,125.61a78,78,0,0,1,.56,8.67,68.2,68.2,0,0,1-.82,10.51,65.94,65.94,0,0,0-11.07,11.94c.13-1.63.25-3.28.25-4.92a64.36,64.36,0,0,0-1-11.33,72.56,72.56,0,0,1,12.12-14.87Z" transform="translate(-0.48 -0.39)"/><path class="cls-1" d="M154.51,136.74a72.46,72.46,0,0,1-6.82,17.93,64.49,64.49,0,0,0-14.49,7.45A65.33,65.33,0,0,0,138,146.56a70.9,70.9,0,0,1,16.47-9.82Z" transform="translate(-0.48 -0.39)"/></svg>