<?xml version="1.0" encoding="UTF-8" standalone="no"?>
<svg width="59" height="26" viewBox="0 0 59 26" version="1.1" xmlns="http://www.w3.org/2000/svg" xmlns:xlink="http://www.w3.org/1999/xlink">
    <title>bupa</title>
    <g id="Designs" stroke="none" stroke-width="1" fill-rule="evenodd">
        <g id="Homepage-v9" transform="translate(-1077.000000, -4319.000000)">
            <g id="Partner--05" transform="translate(-237.000000, 3290.000000)">
                <g id="brands_logos" transform="translate(611.000000, 1029.000000)">
                    <g id="bupa" transform="translate(703.000000, 0.000000)">
                        <path d="M29.8528368,13.800537 C31.337083,13.800537 32.1324577,13.1486229 32.615121,12.4032565 L32.5890617,12.5158496 C32.4485681,13.2139269 33.0332025,13.6429066 33.5827135,13.6429066 L34.0608448,13.6429066 L35.3887353,6.14195392 L33.7458673,6.14195392 L33.5271959,7.28702581 C33.2303467,6.69478607 32.3919175,5.98657544 31.0391007,5.98657544 C28.6507106,5.98657544 27.2344451,7.94231769 26.9976455,10.0252901 C26.7257226,12.4066343 28.2734175,13.800537 29.8528368,13.800537 L29.8528368,13.800537 Z M31.2759003,7.20933657 C34.0291204,7.36133726 33.1329076,12.5890352 30.334367,12.4336567 C27.8032173,12.2951672 28.5895279,7.06071367 31.2759003,7.20933657 L31.2759003,7.20933657 Z M8.62698272,5.63528495 C8.62698272,3.93850684 7.53135974,3.1503551 5.6063717,3.1503551 C4.42124074,3.1503551 2.55743537,3.14585138 1.87876095,3.14585138 L0.000226415093,13.6429066 C0.231360942,13.6429066 2.26398516,13.6417807 3.41172671,13.6406548 C4.19123923,13.6406548 4.93449536,13.6158843 5.35257693,13.5291876 C7.26736786,13.1272302 8.04461435,11.7434609 8.19870404,10.7278711 C8.41171037,9.32270916 7.51889661,8.39381604 6.50485052,8.16975576 C7.26623485,8.00536983 8.62698272,7.22622553 8.62698272,5.63528495 L8.62698272,5.63528495 Z M4.62404996,12.3525896 C4.41104363,12.4055084 4.06887389,12.4336567 3.35394308,12.4336567 L2.1121615,12.4336567 L2.73985036,8.91399619 L4.58099549,8.91399619 C7.01130706,8.91399619 6.79036964,11.8188983 4.62404996,12.3525896 L4.62404996,12.3525896 Z M5.34691186,7.56850857 C5.1123783,7.64619782 4.80079989,7.66759051 4.2342937,7.66759051 L2.9630538,7.66759051 L3.56015133,4.30893816 L5.22341351,4.30893816 C7.21864832,4.30893816 7.06229262,7.00779491 5.34691186,7.56850857 L5.34691186,7.56850857 Z M15.880528,6.14983544 L15.3888006,6.14983544 C15.3888006,6.14983544 14.6648057,10.2707431 14.5843618,10.7402564 C14.4087449,11.7490906 13.9192836,12.4404123 12.5426735,12.4404123 C11.762028,12.4404123 10.9983776,11.970899 11.1773936,10.9181535 C11.2465074,10.5116924 11.76656,7.51671575 11.8107475,7.2757665 C11.9546401,6.46622207 11.2612365,6.14983544 10.6879323,6.14983544 L10.2539885,6.14983544 C10.1474853,6.77472718 9.67162014,9.41053179 9.49033816,10.4430106 C9.41555934,10.8584791 9.38950006,11.2795773 9.4212244,11.5520527 C9.58437819,12.951585 10.8204947,13.8061666 12.3500614,13.8061666 C14.9911133,13.8061666 15.9836321,12.4336567 16.2997426,10.8055604 C16.4028467,10.2684913 16.9036382,7.54936775 16.9432936,7.2757665 C17.0577279,6.46622207 16.3847185,6.14983544 15.880528,6.14983544 L15.880528,6.14983544 Z M18.5963587,16.6018535 L19.3622751,12.4651827 C19.6602573,13.0551706 20.5088836,13.8061666 21.8628334,13.8061666 C24.29881,13.8061666 25.8068495,11.9157284 25.9586732,9.70214793 C26.1195609,7.35007795 24.7293547,5.99558289 23.1159451,5.99558289 C21.7166748,5.99558289 20.7638114,6.67226745 20.2777491,7.37597436 L20.2992763,7.2757665 C20.4511,6.55179283 19.8302092,6.14983544 19.3044914,6.14983544 L18.7821727,6.14983544 C18.7821727,6.14983544 17.3613752,14.2205093 17.1664971,15.1933137 C16.9364956,16.3361337 17.8700978,16.6018535 18.165814,16.6018535 L18.5963587,16.6018535 Z M22.5687001,7.3410705 C25.0987168,7.48181188 24.3112732,12.7297765 21.6249008,12.5822796 C18.8728137,12.4314048 19.7690265,7.18681795 22.5687001,7.3410705 L22.5687001,7.3410705 Z M57.9640071,16.7988914 C57.2592734,16.7988914 56.2996119,16.7583579 55.7263076,16.5646977 C55.0510322,16.3350078 54.4550677,15.8790057 53.8239798,15.3948554 C53.5067363,15.1539061 53.1804288,14.9028235 52.8269289,14.6697558 C52.3963842,14.3860211 52.0383523,14.2531613 51.6950495,14.2531613 C51.2350465,14.2531613 50.7863736,14.5008661 50.2425277,15.0604538 C49.5060696,15.8137017 48.3311358,17.523991 47.8632016,18.2243201 C47.8314773,18.2671055 47.7929549,18.3155205 47.7329052,18.3155205 C47.617338,18.3155205 47.6150719,18.1657717 47.6150719,18.1162307 C47.5912787,16.1593625 47.2830993,5.47652867 47.0678269,2.28676598 C46.9715209,0.875974363 46.5319121,0 45.9155533,0 C45.422693,0 44.6828359,0.653040014 44.2194338,2.49281136 C43.0399679,7.17893643 40.5246804,17.5926728 39.4437866,22.8834228 C39.4109292,23.0286679 39.2477755,23.0286679 39.2160511,22.8834228 C39.0959518,22.3429759 38.9894486,21.7293435 38.8874775,21.2125411 C38.564569,19.581067 38.2858479,18.1714014 37.7340709,17.3956349 C37.105249,16.5162827 36.1750459,16.4599861 35.0488316,17.2019747 C34.8007018,17.3663606 34.5605032,17.5712801 34.3067084,17.7885848 C33.5838465,18.4067209 32.7669446,19.108176 31.4084628,19.108176 L18.1352227,19.108176 L17.8089151,20.8578729 L31.7766918,20.8578729 C33.2042874,20.8578729 34.5299119,20.0404469 35.3207545,19.4763554 C35.7218409,19.190369 36.000562,19.0237312 36.2226324,19.0237312 C36.5285457,19.0237312 36.6656402,19.3333622 36.7800745,19.7994977 C36.8367251,20.0269357 36.9047058,20.3421964 36.9828837,20.7069981 C37.2480086,21.9151221 37.6445629,23.8190715 38.1487534,25.084618 C38.38442,25.6746059 38.7322548,26 39.1322082,26 C39.7429019,26 40.3649257,25.2827819 40.7161595,24.1726139 C41.1874927,22.6931405 44.0109595,10.5319591 45.2028886,5.43937294 C45.2516081,5.22994977 45.2788004,5.11285294 45.2821994,5.10271956 C45.3025936,5.013771 45.3626433,4.95409666 45.4328901,4.95409666 C45.4952058,4.95409666 45.5654525,5.00701542 45.5677185,5.12186038 L45.5688516,5.14100121 C45.6594925,10.2943877 45.9166864,19.3457474 46.3030436,20.2757665 C46.5160499,20.7891911 46.8434905,21.0616664 47.2502419,21.0616664 C47.7204421,21.0616664 48.2846822,20.6844795 48.6857686,20.1023731 C48.8885778,19.809631 49.1469047,19.4279404 49.4199607,19.0237312 C50.094103,18.0284081 50.8588864,16.9013511 51.0832228,16.6592759 C51.4208605,16.3046077 51.8072178,16.3046077 52.3567288,16.6761649 C52.4360396,16.7302096 52.5323457,16.7988914 52.6433809,16.8788325 C53.2291483,17.3010566 54.209204,17.8820371 55.3104921,18.1837866 C56.040152,18.3819505 56.9805523,18.4247358 57.6388325,18.4247358 C58.0648452,18.4247358 58.5169171,18.4078469 58.6483465,18.3999654 L58.9508608,16.7786246 C58.7922391,16.7865061 58.3628274,16.7988914 57.9640071,16.7988914 L57.9640071,16.7988914 Z" id="Fill-1"></path>
                    </g>
                </g>
            </g>
        </g>
    </g>
</svg>
