<svg xmlns="http://www.w3.org/2000/svg" width="80" height="80" viewBox="-1 11 80 80">
  <path d="M39 11C17 11-1 29.4-1 52c0 18 11.5 33.5 27.4 39 2 .3 2.7-1 2.7-2v-7.7c-11 2.5-13.4-4.8-13.4-4.8-2-4.8-4.5-6-4.5-6-3.5-2.6.4-2.5.4-2.5 4 .3 6 4.2 6 4.2 3.7 6.3 9.5 4.5 11.8 3.4.3-2.6 1.4-4.4 2.5-5.5-9-1-18.2-4.4-18.2-20 0-4.6 1.5-8.3 4-11-.3-1.2-1.7-5.3.5-11 0 0 3.3-1 11 4.2 3.2-1 6.6-1.3 10-1.4 3.4 0 6.8.5 10 1.4C56.6 27 60 28 60 28c2.2 5.7.8 9.8.4 11 2.6 2.7 4 6.4 4 11 0 15.6-9.2 19-18.2 20 1.5 1.4 2.8 4 2.8 7.7V89c0 1 .6 2.3 2.7 2C67.5 85.4 79 70 79 52c0-22.6-18-41-40-41z"/>
</svg>
