<svg xmlns="http://www.w3.org/2000/svg" viewBox="0 0 500 129.78"><defs/><defs/><g id="Layer_2" data-name="Layer 2"><g id="Layer_1-2" data-name="Layer 1"><path d="M114.59 127.56l1.38 1.43h28.7l5.84-13.68-2.57 1.03-4.75 11.22h-28.6zM126.44 118.29v-14.37h2.25a14.64 14.64 0 013.43.76c1 .46 4.78 2 4.78 2l5.8-9.82h2.58l-6.72 11.25-4.93-2a10.86 10.86 0 00-3.82-.68H128v12.81zM126.44 94.74V80.87h2a22 22 0 012.66.2 14.88 14.88 0 012.9.93c.77.38 5.09 2.64 5.09 2.64l5.63-10.56 1.47 1.81L140.73 86l-5-2.5a6.23 6.23 0 00-1.92-.69 19.44 19.44 0 00-3.06-.36c-1.15-.06-2.74 0-2.74 0v12.29zM464.08 127.56l1.37 1.43h28.72l5.83-13.68-2.58 1.03-4.75 11.22h-28.59zM475.92 118.29v-14.37h2.25a14.53 14.53 0 013.43.76c1 .46 4.78 2 4.78 2l5.8-9.82h2.59l-6.77 11.3-4.92-2a11 11 0 00-3.83-.68h-1.83v12.81zM475.92 94.74V80.87h2a21.85 21.85 0 012.65.2 15.22 15.22 0 012.84.9c.77.38 5.09 2.64 5.09 2.64l5.64-10.56 1.45 1.81L490.21 86l-5-2.5a6.23 6.23 0 00-1.91-.69 19.72 19.72 0 00-3.06-.36c-1.15-.06-2.75 0-2.75 0v12.29zM77.09 98l-1.52.43V80.87a29.07 29.07 0 013.09.84 11.15 11.15 0 013.58 2.19s-2-.83-3.21-1.2a12.43 12.43 0 00-1.94-.4V98zM87.19 103.57s5.23-2.62 7.26-6.91c4.43-9.38-.43-16.2-.43-16.2s6.63 6.44 2.26 17.14c-2 5-7.92 7.75-7.92 7.75l-1.17-1.78zM63.54 129.16l.57-1.49h13.6l-1.31-3.43a12.15 12.15 0 01-.63-2.23c-.11-.92-.22-2.18-.22-2.18v-11.84l1.45 1.77v11.56a6.27 6.27 0 00.23 2.24c.35.91 1.89 5.6 1.89 5.6zM94.05 127.56l1.51 1.43h9.21l-1.37-1.43h-9.35zM14.5 111.14S10 107 13 94.65c1.78-7.32 7.56-11.65 15.23-11.78A32.35 32.35 0 0147 88.7V75.77h-.12l-1.37-.34v11.44S36 81.38 28.12 81.15c-6-.18-13.85 1.72-16.7 12.13-3.49 12.72 3.08 17.86 3.08 17.86zM8.44 122.36s6.63 6 19.45 5.94a56.77 56.77 0 0022-4.52 13.47 13.47 0 01-.92-2.69 19.14 19.14 0 01-.45-4.81v-9.73a11.67 11.67 0 01.51-3.31 20.16 20.16 0 011.2-3.32h2s-1.31 1.89-1.94 6.24c-.33 2.34-.17 12.42-.17 12.42a15.63 15.63 0 00.45 4.17 18.13 18.13 0 01.75 2.81s-1.38 1.19-9.72 2.92c-22.65 4.69-33.12-6.12-33.12-6.12zM171.87 127.52H185l-1-2.62a14.09 14.09 0 01-.65-1.9 10.41 10.41 0 01-.25-2v-18.68l16-28.18h2.5l-17 29.86.05 18.26a7.58 7.58 0 00.12 1.51c.13.82.28 1.63.28 1.63l1.55 3.6h-15l.27-1.48zM177.15 89.62l-.19.46-7.41-13.23a1.7 1.7 0 01-.23-.55 4.27 4.27 0 010-1c0-.24.09-1.12.09-1.12h1.73s-.24 1.88-.28 2.35-.05 1.2-.05 1.2a5 5 0 00.15.84c.08.22 6.22 11.1 6.22 11.1zM241 111.14s-4.46-4.13-1.48-16.49C241.25 87.33 247 83 254.7 82.87a32.33 32.33 0 0118.75 5.83V75.77h-.11l-1.34-.34v11.44s-9.49-5.49-17.38-5.72c-6-.18-13.84 1.72-16.7 12.13C234.4 106 241 111.14 241 111.14zM234.91 122.36s6.63 6 19.43 5.94a56.88 56.88 0 0022-4.52 12.71 12.71 0 01-.92-2.69 19.14 19.14 0 01-.45-4.81v-9.73a11.67 11.67 0 01.51-3.31 19.09 19.09 0 011.2-3.32h2s-1.32 1.89-2 6.24c-.33 2.34-.16 12.42-.16 12.42a14.94 14.94 0 00.46 4.17 18.7 18.7 0 01.74 2.81s-1.38 1.19-9.73 2.92c-22.65 4.69-33.11-6.12-33.11-6.12zM391.11 84.87s-6.93-6.59-16.14-3.16c-5.88 2.21-10.14 8.19-10.81 14.72-1.09 10.48 4.87 16.31 4.87 16.31s-6-8.94-2.46-18.49c2.51-6.79 5.91-9.37 10.41-11.1 7.14-2.75 14.13 1.72 14.13 1.72zM405.86 83.49s6 8.88 4.74 18.77c-1.08 8.49-5.6 18.14-17.83 23.64-16 7.2-28.83-2.92-28.83-2.92a29.8 29.8 0 0015.27 6.63c7 .73 14.8-.9 20.53-5a28.54 28.54 0 0012.18-23.57 29.41 29.41 0 00-6.06-17.58zM432.13 90.8a5.25 5.25 0 01-1.77-5.41c.32-1.77 2.26-3.93 6.12-3.79 4.46.17 8.21 3.67 8.21 3.67a13.05 13.05 0 00-5.84-2.12c-3.55-.25-5.86 1-6.77 3.43a5.38 5.38 0 00.05 4.22zM449.75 89.79l-1.46-1.46v-11.5l1.43 1.22.03 11.74zM422.18 127.45v-.89a37.57 37.57 0 009.63 1.74c3.29.07 9.58-.79 13.9-4.52s4.67-7.24 5.06-11.35c.48-4.85-2.37-10-2.37-10a19.74 19.74 0 013.83 9.1c.8 7.43-3 19-20.7 18.07a37.14 37.14 0 01-9.35-2.16zM306.18.2a16.89 16.89 0 00-1.63 10.4s-1.55-1.27-3.13-5.78c0 0-.12-.31-.2-.07a17.28 17.28 0 00.27 8s-.54.6-.54 3.12a17.43 17.43 0 001.63 8.09 7.45 7.45 0 00-.48 2.86c0 5.33 4.13 11.88 4.63 12.5 0 0-.07.77-.07 1.64 0 9.55 10.63 14.37 12.37 29.29a21.71 21.71 0 005.44 5.1s-.41.45-3.47 4.21-5.44 6.41-7.82 6.87c-.13 0-.12.13 0 .2s1 1.06 4 1.09a5.22 5.22 0 01-2.11.68c-.13 0-.09.08.07.14s3.17 1.83 9.18 1.83c22.17-1.13 31.39-18 42.82-21.41a10.63 10.63 0 007.48-3.81 26.14 26.14 0 014.08-1.7c.81-.24 1.22-.72 1.22-.95s0-.61-.95-.61 0 .07-1.9.07c-3.35 0-5.86-1-7.41-1-3.76 0-5.16 3.06-6.32 4.08a12.07 12.07 0 01-5 1.9c-1.55.31-8.28 1.4-10.19 2.24A10.51 10.51 0 01350.5 64c2-2.68 6.75-7.53 8.63-11.29 1.75-4.14 2.92-7.36 3.6-9.31s1.09-6 4-10.26c.16-.19.44-.9-.2-.55s-4.61 3.94-5 6.19a3.37 3.37 0 01.34-3c.09-.13.19-.53-.27-.21s-1.1.6-3 3.27a54.3 54.3 0 01-3.2 5c-1.1 1.5-2.72 3.68-4.35 5.64a92.45 92.45 0 01-9 9.51c-2.93 2.64-4.21 3.67-4.21 3.67a59.44 59.44 0 01-5.51-6.66c-2.66-3.78-6.37-9.59-7.34-11.35s-5.74-10.09-9-17.33a152.11 152.11 0 01-7.55-19.51c-1.81-6.25-1.93-7.29-2-7.61s-.08-.29-.26 0z" class="cls-1"/><path d="M124.49 120.24V102h3.25a14.22 14.22 0 015.32 1c1.73.77 3 1.26 3 1.26l4.52-7.55h-16.09v-17.8h4.12a16.15 16.15 0 015.6 1c1.37.58 4 2 4 2l4.35-8.12h-28.83s.69 1.37 1.43 3.36a14.66 14.66 0 01.74 4.41l.07 36.69a15.78 15.78 0 01-.4 3.78 21.27 21.27 0 01-1.26 3.49h27.5l3.9-9.16a95.15 95.15 0 01-9.26 3.2c-3.19.9-11.96.68-11.96.68zM186.25 73.94a12.21 12.21 0 01.11 1.88 4.53 4.53 0 01-.45 2.06L177 94.08s-8.75-15.34-9.43-16.82a8.88 8.88 0 01-.11-3.32h-12a19.78 19.78 0 002.51 2.75 10.66 10.66 0 012.19 3.09l12.58 22.09v19.51a6.34 6.34 0 01-.23 2.23c-.35 1-.63 2-.63 2h10.41a20.74 20.74 0 01-.68-2 19.5 19.5 0 01-.35-2.12l-.06-19.69L197 73.94zM48.14 99.69H34.81a32.47 32.47 0 012 2.86 13.68 13.68 0 011.37 4.93l.46 10.41a22.26 22.26 0 01-10 2.06c-7.19-.35-19.78-5.61-20.12-18.31-.23-8.37 1.94-19.23 14.52-22 7.84-1.7 15.89 2 20.36 4.17V75.2S3.3 62.72.09 100.72c-1.48 17.57 15.44 25.76 27.45 25.52 12.58-.24 19.91-3.55 19.91-3.55a14.21 14.21 0 01-.86-4.45l-.11-11.85s.39-3 .63-4a23.25 23.25 0 011.03-2.7zM84.35 102.66s10.22-3.2 10-14.19C94 74.4 76.92 74.05 76.92 74.05h-13a31.82 31.82 0 00.92 3.1 12 12 0 01.46 2.73V120a12.3 12.3 0 01-.18 2.29 18.13 18.13 0 01-1 3.43H75s-.74-2.23-1.09-3.15a14.11 14.11 0 01-.34-3.26v-17.44S77.81 108 83 114c4.92 5.73 10.75 11.57 10.75 11.57h8.58s-5.26-6-11.9-14a66.36 66.36 0 01-6.08-8.91zm-10.75-1.88V78.64s12.52.36 12.52 10.17c0 11.19-12.52 11.97-12.52 11.97zM485.81 119.6c-3.18.86-11.95.64-11.95.64V102h3.26a14.25 14.25 0 015.32 1c1.72.77 3 1.26 3 1.26l4.52-7.55h-16.1v-17.8H478a16.19 16.19 0 015.61 1c1.36.58 4 2 4 2l4.36-8.12H463.1s.68 1.37 1.44 3.36a15 15 0 01.74 4.41l.05 36.69a16.08 16.08 0 01-.39 3.78 21.86 21.86 0 01-1.27 3.49h27.52l3.89-9.16a94.72 94.72 0 01-9.27 3.24zM274.6 99.69h-13.33a31 31 0 012 2.86 13.45 13.45 0 011.39 4.93l.46 10.41a22.26 22.26 0 01-10 2.06c-7.2-.35-19.79-5.61-20.13-18.31-.22-8.37 1.94-19.23 14.53-22 7.84-1.7 15.88 2 20.36 4.17V75.2s-40.15-12.48-43.36 25.52c-1.44 17.57 15.48 25.76 27.48 25.52 12.58-.24 19.9-3.55 19.9-3.55a14.41 14.41 0 01-.85-4.45l-.12-11.85s.4-3 .63-4a23.25 23.25 0 011.04-2.7zM443 99.81c-3-2.09-9.83-5.5-10.88-6.53s-4.22-2.4-3.77-7.66a7.12 7.12 0 017.21-6 15 15 0 0110.76 4.47v-8.21a24 24 0 00-10.58-2.62c-5.16 0-15.61 3.19-16 14.41-.31 10.07 5.83 11.57 11 15.11 4 2.79 9.27 5 9.27 9.84 0 3.67-2.47 7.78-9.21 7.1-3.59-.36-8.81-6-8.81-6v10.68s6.75 2.31 12.06 1.84c5.69-.48 12.55-3.83 14-9.14 1.67-6.48.75-13.3-5.05-17.29zM376.62 73.41c-15 2.64-25.08 16.53-22.52 31s16.77 24.1 31.76 21.45 25.07-16.54 22.51-31-16.77-24.09-31.75-21.45zm8.1 47.2c-10.3 1.81-20.3-6-22.33-17.51s4.7-22.28 15-24.09 20.32 6 22.35 17.5-4.74 22.27-15.02 24.1zM340 88.25a42.56 42.56 0 01-8.23 2.75 23.36 23.36 0 011.59 5.29c2 11.48-4.7 22.27-15 24.09s-20.31-6-22.35-17.52 4.7-22.27 15-24.08a17.24 17.24 0 018 .48c.21-.26.43-.52.64-.79l2.35-2.86a24.29 24.29 0 01-2.78-2.61 28.56 28.56 0 00-9 .16c-15 2.63-25.07 16.53-22.51 31s16.78 24.09 31.75 21.45 25.08-16.53 22.52-31a25.24 25.24 0 00-1.98-6.36z"/><path d="M316.66 82c.33-.35.67-.72 1-1.11a15.09 15.09 0 00-9.07.54c-5.88 2.19-10.13 8.18-10.8 14.7-1.09 10.48 4.85 16.31 4.85 16.31s-6-8.93-2.46-18.48c2.53-6.79 5.92-9.38 10.41-11.1a14 14 0 016.07-.86zM341.74 87.44a28.15 28.15 0 012.5 14.54c-1.08 8.48-5.61 18.14-17.86 23.63-16 7.21-28.82-2.92-28.82-2.92a29.91 29.91 0 0015.26 6.64c7 .72 14.83-.91 20.54-5a28.59 28.59 0 0012.2-23.57 28.92 28.92 0 00-3.47-13.53z" class="cls-1"/></g></g></svg>