<svg id="Layer_1" data-name="Layer 1" xmlns="http://www.w3.org/2000/svg" viewBox="0 0 300 258.33"><title>Untitled-3</title><path d="M199.41,237.56c-18.64,13.72-38.58,22-61.87,22-47.89,0-89.31-34.43-112.6-74.29a55.08,55.08,0,0,0,17.34,9,92.76,92.76,0,0,0,25.37,3.89c27.44,0,38.83-10.36,39.35-24.59.26-12.41-9.06-19.41-26.41-20.45l-17.86-1c-8.28-.52-10.09-3.11-10.09-6.48a8,8,0,0,1,3.21-6.07,12.43,12.43,0,0,1,5.49-2.54,50.08,50.08,0,0,0,5.8.33c20.19,0,31.57-12.16,31.57-26.66a26.6,26.6,0,0,0-6.47-17.34,120.91,120.91,0,0,1,15.28,1V84.07c-4.66,1.29-10.35,1.54-15.28,1.54A42.14,42.14,0,0,1,80.59,83.8a52.17,52.17,0,0,0-14-2.33c-20.27,0-32.81,12.45-32.81,28.53a26.71,26.71,0,0,0,17.51,24.79c-7.76,3.63-11.91,8.8-11.91,14.77,0,6.71,5.44,13.71,16.06,14.74,6.72.51,10.09.78,19.67,1.3s12.68.78,16.3,2.07a8.88,8.88,0,0,1,5.71,7.76c0,6.21-4.41,9.57-8.81,11.4-4.4,1.54-11.4,2.32-19.16,2.32-27.95,0-48.4-14.49-59.78-39.85C2.68,134.27.35,120,.35,104.25c0-10.35,2.59-22.78,7-31.58C36.85,11.59,128.74,1.23,188.27,1.23c14.23,0,27.18.26,41.41,2.58C269,10,300.35,29.19,300.35,72.42c0,57.71-56.43,132-100.94,165.14M67.59,129.09c-12.68,0-19.62-9.32-19.62-21.23C48,97.25,54.51,90,65.39,90c12.41,0,19.09,9.26,19.09,20.9C84.48,121.53,78.72,129.09,67.59,129.09Zm189.28,31.84c-4.4,0-11.65-3.09-21.22-13.45C223.22,133.76,210,118.22,210,118.22l22-20.7c13-12.16,16.58-12.94,17.61-13.2H229.16a75.28,75.28,0,0,1-8.79,9.58l-23.56,22V46.53L179,51.18c2.34,3.12,3.1,8.29,3.1,19.94v71.71c0,14.48-.76,16-2.32,20.18h19.16c-1.3-3.37-2.08-5.7-2.08-20.18V122.11s10.62,12.68,23.82,28.47c8.28,9.83,15,14.23,23,14.23,6.22,0,11.91-1.54,15.8-4.4A8.84,8.84,0,0,1,256.87,160.93ZM148.15,119C137.8,113.83,128,109.16,128,100.88c0-7,7.5-10.09,15.27-10.09A34.79,34.79,0,0,1,165,98.56V86.91a44.15,44.15,0,0,0-21.48-5.44c-14,0-29.51,7-29.51,23,0,13.2,11.66,18.89,22.52,24.07,9.84,4.66,18.9,8.8,18.9,17.34s-9.06,10.35-16.31,10.35c-6.73,0-17.34-2.85-25.88-7.49v11.9a65.23,65.23,0,0,0,25.36,5.18c14.5,0,31.84-6,31.84-23.31C170.41,130.65,159,124.45,148.15,119Z" transform="translate(-0.35 -1.23)"/></svg>