<svg id="Layer_1" data-name="Layer 1" xmlns="http://www.w3.org/2000/svg" viewBox="0 0 300 145.22"><title>Untitled-5</title><path d="M91.91,129.68a60.21,60.21,0,0,0,8.25-15.57h6.67a88.92,88.92,0,0,1-11.92,21.1v10.51H89V135.31A90.58,90.58,0,0,1,77.09,114.2h6.66a55.54,55.54,0,0,0,8.16,15.48" transform="translate(-0.35 -0.79)"/><path d="M153,127.05c-2.91-.94-4.6-1.4-5.63-2.15a2.55,2.55,0,0,1-1.41-2.35,2.94,2.94,0,0,1,1.88-2.72,9.29,9.29,0,0,1,3.94-.75,21.58,21.58,0,0,1,6.85,1.31l2-4.59a20.63,20.63,0,0,0-8.82-2,13.85,13.85,0,0,0-8,2.15,7.74,7.74,0,0,0-3.66,6.76c0,5.44,4.59,7.5,9.1,9a36.74,36.74,0,0,1,5.16,1.88,3.54,3.54,0,0,1,2.06,3.09,3.35,3.35,0,0,1-1.88,3,10,10,0,0,1-4.69.94,15.91,15.91,0,0,1-9.38-3.1l-2.06,4.78a20.41,20.41,0,0,0,11.72,3.57c7,0,12.2-3.66,12.2-9.57,0-5.16-4.22-7.69-9.38-9.29" transform="translate(-0.35 -0.79)"/><path d="M120.52,140.19h-4.31V119.64H120c6.57,0,10.79,3.57,10.79,10,0,6.19-3.85,10.51-10.23,10.51m-.66-26.08h-9.47v31.61h10c9.28,0,16.23-6.57,16.23-16,0-9.29-6.57-15.57-16.8-15.57" transform="translate(-0.35 -0.79)"/><path d="M191.53,140.94h-5.06v-9.2h5.25c4.51,0,6.85,1.22,6.85,4.41,0,4.22-4,4.79-7,4.79m-5.06-22H191c4.22,0,6.19,1,6.19,3.75s-2,4.32-5.72,4.32h-5Zm10.88,10.23h0c3.38-1.13,5.44-3.47,5.44-7.13,0-5.54-4.88-7.79-9.66-7.79H180.84v31.52h11.45c5.91,0,11.91-2.44,11.91-9,0-4.4-2.72-7-6.85-7.59" transform="translate(-0.35 -0.79)"/><polygon points="265.85 113.32 260.32 113.32 260.32 136.12 260.23 136.12 246.9 113.32 239.68 113.32 239.68 144.93 245.12 144.93 245.12 121.39 245.22 121.39 258.82 144.93 265.85 144.93 265.85 113.32"/><polygon points="284.15 128.52 298.78 113.32 291.37 113.32 278.24 127.49 278.05 127.49 278.05 113.32 272.51 113.32 272.51 144.93 278.05 144.93 278.05 129.64 278.24 129.64 292.21 144.93 300 144.93 284.15 128.52"/><polygon points="24.39 144.93 42.12 144.93 44 139.31 30.11 139.31 30.11 113.32 24.39 113.32 24.39 144.93"/><polygon points="0 144.93 17.73 144.93 19.7 139.31 5.82 139.31 5.82 113.32 0 113.32 0 144.93"/><path d="M61.33,140.66c-6.38,0-10-4.7-10-10.7s3.66-10.69,10-10.69,10.13,4.88,10.13,10.78-3.75,10.61-10.13,10.61m.09-26.83c-9.66,0-16,7.13-16,16.13s6.19,16,15.95,16,16-7.22,16-16.13-6.38-16-16-16" transform="translate(-0.35 -0.79)"/><path d="M221.08,139a24.4,24.4,0,0,0,6.57-.75l2.91,7.5h6.57L223.52,114.2h-4.78L205,145.72h6.57l2.91-7.5a24.37,24.37,0,0,0,6.56.75m0-4.79a21.17,21.17,0,0,1-4.87-.47l4.87-12.47L226,133.71a21.25,21.25,0,0,1-4.88.47" transform="translate(-0.35 -0.79)"/><path d="M203.12,52.94C199,49.85,195.33,45.25,191.3,41c-1.59-1.78-2.91-2.63-5.07-2.63-1.22,0-2.9.38-4.22.38a23.13,23.13,0,0,0-5.81.47c-1.41-1.13-1.22-2.25-.47-2.72,1.78-.94.09-1.6.09-2.91a1.34,1.34,0,0,1,2-1.13c.85-2.06-.84-4.41-1.22-6a4.27,4.27,0,0,0,3.19-2.35c-1.22-.65-3.94-2.25-4-4.87,2.16-.28,3.84-2.07,3.37-4.13a1.27,1.27,0,0,1-1.5,0c-.75-.38-.56-.75-1.59-1.5s-3.19-.94-3.66-2.44c1.22-1.88,1.13-4,0-4.88a1.92,1.92,0,0,1-1.5,1c-1.69,0-2-1-3.47-2.34-.47-.38-1.31-1-3.66-1-1.5,0-2.72-.94-3.85-.85.57.66.29,2-.75,1.78-.37,0-.93-1.12-2-1.78-.75-.56-1.4-.47-2.15-1-.57-.47-.47-1.31-1.13-1.31s-.47.84-.47,1.31c0,.94.47,1.22.38,2.53-.94-.56-1.32-1.69-2.35-1.69-.19,0-.28,0-.37.19,0,0-.19.28.09,1.13s1.5,1.31,1.5,2.44c0,2-2.63,3.28-2.63,5.25,0,.37.29.56.29.94.09.94-.94,1.78-1.51,3.09-.93,1.88-.84,2.63-1.87,4.6-.47.94-1.22,1.22-1.22,2.25,0,2,.84,4.32,2.81,4.32.94,0,2,.84,2.82.37,2.44-1.31.75-1.87,1.87-3,1.69-1.69,3.29-3.28,5-3.28.54,0,.82.7.84,1.85v0c0,3.84-3,9.14-6.19,11.84a30.05,30.05,0,0,1-3.57,2.44,16.57,16.57,0,0,1-9.47,3.38c-5.07,0-7.13-1.22-11.91-1.22a16.51,16.51,0,0,0-9.2,3c-7.31-.75-7.6-10.13-15.66-10.13-5.54,0-9.85,4.69-9.85,10.88,0,5.72,2.81,9.2,7.69,12.67.84.65,1.69,1,1.69,2.43,0,2.91-5.16,3-5.16,6.85a3.21,3.21,0,0,0,3.28,3.29,1.83,1.83,0,0,0,1.78-.94,1.47,1.47,0,0,1-1-1.22c0-2.53,8.44-1,8.44-8.07,0-6.1-7.5-7.13-7.5-11.72,0-.66.28-1.32.75-1.32s.47,1.22,1.41,1.41c.37-1.31,1.87-3.28,3.47-3.28.37,0,.65.18.37.46a2.73,2.73,0,0,0-.84,2.07,1.7,1.7,0,0,0,.94,1.41A3,3,0,0,1,111,45.63c1.31,0,1.31.56,3.38.37.47,0,.47.28.47.38a12.84,12.84,0,0,0-2.72,6c-.75,4.69.37,6.94.37,8.07a4.91,4.91,0,0,1-.47,3.28c-.75,1.31-.37.56-1.59,2.44-2.07,3.28-6,3.47-5.54,7.22.94,6.48,0,11.92-.18,15.2a30.78,30.78,0,0,1-.47,3.19c0,2.44,2.72,2.35,3.19,4.69.28,1.22-.1,1.88.46,2.91A1.56,1.56,0,0,0,109,100h5.16c.66,0,.84-.66.84-1.13-.18-1.88-1.68-3.1-3-3.94-2.06-1.41-2.53-2.25-3.19-4.78-.47-3.94.28-7.88.66-11.82a6.23,6.23,0,0,1,1.78-4,5.88,5.88,0,0,1,2.07-1.5,15,15,0,0,0,7.41-2.91c.09,2.91-2.82,3.38-2.82,6.29,0,2.34,1.78,3.28,3.19,5.06,2.53,3.48,3.85,4.6,6.85,9.38,1,1.79,0,2.54,1.41,3.94.84.66,1.31.47,2,1.22.93,1.13.47,2.26,1.12,3.48a1.25,1.25,0,0,0,1.22.75h4.79c.75,0,1-.38,1-1.13,0-1.59-1.5-3.38-3.85-4.6s-4.59-5.06-6-7.41c-1.5-2.81-4.41-5.16-5.26-8.44-.65-2.63,0-4,2.35-5.07,4.41-2.06,7.32-7.31,8.72-11.25a71.35,71.35,0,0,1,9.29,1,37.17,37.17,0,0,0,13.6-.75c2.44-.66,3.76-1.69,5.54-2.07h-.19c2.16-.37,2.53.85,4.6.19,5.53-1.59,9.94-5.34,13.22-6.56a6,6,0,0,1,1.88-.38c1.22,0,1.41.56,2.63,1.88,2.34,2.53,3.56,6.75,4.59,11,.29.75,1.6.66,1.6,1.5,0,1.41-1.13,2-1.13,3.38,0,1.78,4,3.47,5.63,3.47,1.13,0,1.22-1.22,1.22-2.06,0-2.82-1.13-4.22-2.53-6.48a102,102,0,0,1-6.85-14.44c-.84-2-1.88-3.85-3.94-3.85s-4.69.28-6.75.28l-2.16.1.37-.47a16.18,16.18,0,0,0,3.66-1.31c2.44-1,3.85-2.63,5.54-2.63a7.62,7.62,0,0,0,1.5-.1c.94-.09,3,.94,5,2.91,2.34,2.35,4.31,4.51,4.88,5.82.56,1.12.65,1.41,1.4,1.87s1.6,0,2.07.76-.38,2.06.28,2.9a5.16,5.16,0,0,0,4.13,1.6c2.06,0,3-.75,3-1.5C207.53,55.66,205.28,54.54,203.12,52.94Zm-46.72-40c-1.87-.66-2.81.65-3.94,2.44a12.59,12.59,0,0,0-2.06,5.34c-.28,2.35,1.12,2.91.19,3.66s-1.32.57-.94-.19c.47-1,.37-2.53-.85-2.06s-2.15.28-1.68-.28a9.33,9.33,0,0,0,1.5-3,38.09,38.09,0,0,1,2.62-5.26c.85-1.68-.37-1.5-.09-2.53a14,14,0,0,1,1.78-2.53c.66-.66,1.32-1,1.79-.85s.46.66.28,1.88c-.38,1.22-.19,1.69.75,2.06S157.15,13.26,156.4,12.89ZM108.75,38.31A9.34,9.34,0,0,0,106.4,38c-3.19,0-3.84,1.78-4.59,1.78a.35.35,0,0,1-.38-.37c0-.85,1.13-1.41,1.13-2.07,0-.37-.19-.75-1.13-.75-3.28,0-4.88,4.79-5.72,4.79-.38,0-.38-.47-.47-1.13a8,8,0,0,1,7.51-6.85,7,7,0,0,1,6.75,4.32C109.87,38.78,109.12,38.4,108.75,38.31ZM112.5,97.5c.28.38.66,1.22.09,1.22h-1.21c-.85,0-1-2.16-1.22-3A5,5,0,0,1,112.5,97.5Zm24.86,0c.19.38.47,1.22-.09,1.22h-1c-.84,0-.93-2.16-1.12-3A4.76,4.76,0,0,1,137.36,97.5ZM153,38.12a18.18,18.18,0,0,1-2,2.35,9.94,9.94,0,0,0-2.54,4.31c-.75,3.38-1.5,4.41-6,4.88-3,.38-4-.47-3.94-.94-.19-1.12,1.78-1.22,1.78-2.34,0-.57-2-2.07-6.56-2.07a20.35,20.35,0,0,0-15,6.2c-2.82,2.72-3.57,5.72-4.32,5.72-.28,0-.37,0-.47-.85-.56-5.16,3.66-14,14.92-14,3.75,0,7.31,1.22,11.44,1.22a21.15,21.15,0,0,0,9.95-3.29c.65-.47,2.25-1.5,2.72-1.87C153.4,37.37,153.21,37.65,153,38.12Zm20.54,9.48c-.66,1.69-.19-5.16-8.35-8.91-2.63-1.22-3.66-1.69-1.59-3.85,6.47-6.19,8.72-19,1.59-23.73-1.41-.94-2.53-1.32-2.53-1.51s1-.18,2.25.29c10.69,4.5,8.44,17.54,4.88,26.17-.85,2.16,0,1.5,2.25,4.13A7.16,7.16,0,0,1,173.57,47.6Zm21.48,21.29a4.55,4.55,0,0,1,1.41,3.19c0,.47-.09.94-.47.94s-1.88-.47-1.88-.94C194.11,71.42,194.86,70.39,195.05,68.89ZM205,58.48c-1,0-.29-1.88-1-3.38,1.13.38,2.44,1.88,2.44,2.72C206.4,58.29,205.56,58.48,205,58.48Z" transform="translate(-0.35 -0.79)"/></svg>