<svg xmlns="http://www.w3.org/2000/svg" width="80" height="80" viewBox="-1 11 80 80">
  <path fill="#1D1D1B" d="M73.08 11.06H4.9c-3.26 0-5.9 2.58-5.9 5.76V85.3c0 3.17 2.64 5.76 5.9 5.76h68.18c3.26 0 5.92-2.6 5.92-5.77V16.8c0-3.18-2.66-5.76-5.92-5.76zM22.73 79.23H10.86V41.05h11.87v38.18zm-5.93-43.4c-3.8 0-6.9-3.08-6.9-6.88s3.1-6.88 6.9-6.88c3.8 0 6.87 3.1 6.87 6.88 0 3.8-3.08 6.88-6.88 6.88zm50.37 43.4H55.3V60.66c0-4.43-.07-10.12-6.15-10.12-6.18 0-7.13 4.82-7.13 9.8v18.9H30.17v-38.2h11.38v5.23h.16c1.6-3 5.46-6.17 11.24-6.17 12 0 14.23 7.9 14.23 18.2v20.93z"/>
</svg>
