<?xml version="1.0" encoding="utf-8"?>
<!-- Generator: Adobe Illustrator 15.0.0, SVG Export Plug-In . SVG Version: 6.00 Build 0)  -->
<!DOCTYPE svg PUBLIC "-//W3C//DTD SVG 1.1//EN" "http://www.w3.org/Graphics/SVG/1.1/DTD/svg11.dtd">
<svg version="1.1" id="Layer_1" xmlns="http://www.w3.org/2000/svg" xmlns:xlink="http://www.w3.org/1999/xlink" x="0px" y="0px"
	 width="80px" height="80px" viewBox="-1 11 80 80" enable-background="new -1 11 80 80" xml:space="preserve">
<g>
	<path fill="#1D1D1B" d="M73.077,11.058H4.903c-3.259,0-5.905,2.582-5.905,5.766v68.464c0,3.182,2.646,5.77,5.905,5.77h68.174
		c3.264,0,5.925-2.588,5.925-5.77V16.823C79.002,13.64,76.341,11.058,73.077,11.058z M22.726,79.229H10.859V41.051h11.866V79.229z
		 M16.795,35.831c-3.803,0-6.881-3.083-6.881-6.882c0-3.794,3.078-6.877,6.881-6.877c3.795,0,6.877,3.083,6.877,6.877
		C23.672,32.748,20.59,35.831,16.795,35.831z M67.17,79.229H55.312V60.664c0-4.432-0.081-10.125-6.167-10.125
		c-6.175,0-7.121,4.822-7.121,9.803v18.887H30.168V41.051h11.383v5.216h0.158c1.583-3.002,5.453-6.167,11.227-6.167
		c12.015,0,14.234,7.908,14.234,18.187V79.229z"/>
</g>
</svg>
