<?xml version="1.0" encoding="utf-8"?>
<!-- Generator: Adobe Illustrator 15.0.0, SVG Export Plug-In . SVG Version: 6.00 Build 0)  -->
<!DOCTYPE svg PUBLIC "-//W3C//DTD SVG 1.1//EN" "http://www.w3.org/Graphics/SVG/1.1/DTD/svg11.dtd">
<svg version="1.1" id="Layer_1" xmlns="http://www.w3.org/2000/svg" xmlns:xlink="http://www.w3.org/1999/xlink" x="0px" y="0px"
	 width="836.345px" height="150px" viewBox="17.313 -212.174 836.345 150" enable-background="new 17.313 -212.174 836.345 150"
	 xml:space="preserve" preserveAspectRatio="xMinYMin meet">
<g>
	<g>
		<path d="M17.313-211.096h60.06c35.073,0,56.284,21.05,56.284,51.469v0.424c0,34.461-26.482,52.327-59.426,52.327H49.624v44.667
			H17.313V-211.096z M75.27-136.01c16.168,0,25.62-9.792,25.62-22.551v-0.436c0-14.684-10.074-22.551-26.253-22.551H49.648v45.538
			H75.27z M175.544-212.174h29.815l63.023,149.966h-33.83l-13.432-33.374h-62.163l-13.43,33.374h-33.008l63.023-149.953V-212.174z
			 M209.566-124.536l-19.551-48.286l-19.512,48.286H209.566L209.566-124.536z M288.213-180.907h-44.739v-30.213h121.791v30.213
			h-44.728v118.724h-32.348v-118.749L288.213-180.907z M381.471-211.096h67.205c18.689,0,33.197,5.301,42.854,15.082
			c8.184,8.304,12.593,19.997,12.593,34.039v0.436c0,24.04-12.795,39.146-31.498,46.166l35.908,53.166h-37.81l-31.499-47.621
			h-25.404v47.621h-32.349V-211.096z M446.598-138.783c15.738,0,24.758-8.509,24.758-21.049v-0.436
			c0-14.043-9.654-21.28-25.401-21.28h-32.148v42.765h32.767H446.598z M523.257-211.096h32.309v148.888h-32.309V-211.096z"/>
		<g>
			<path d="M793.775-147.948l59.883-63.148h-39.064l-59.641,65.074v-65.074h-32.35v148.888h32.35v-45.501l17.016-17.879
				l23.188,32.293l22.135-22.423"/>
		</g>
	</g>
	<path d="M573.229-136.179v-0.409c0-40.928,29.495-74.415,71.778-74.415c25.937,0,41.48,9.054,54.267,22.2l-19.266,23.229
		c-10.619-10.07-21.439-16.247-35.2-16.247c-23.208,0-39.926,20.154-39.926,44.81v0.421c0,24.678,16.325,45.218,39.926,45.218
		c15.729,0,25.363-6.574,36.185-16.867l19.257,20.388c-14.119,15.801-29.863,25.675-56.416,25.675
		c-40.506,0-70.594-32.692-70.594-74.005H573.229z"/>
</g>
</svg>
