<svg xmlns="http://www.w3.org/2000/svg" width="52" height="214.1" viewBox="11.751 0 51.998 214.1"><path fill="#333" d="M61.75 0c-1.1 0-2 .9-2 2v182.8c0 3.2-2.8 6-6 6-3.25 0-6-2.75-6-6V122c0-1.1-.9-2-2-2s-2 .9-2 2v62.8c0 3.3-2.7 6-6 6s-6-2.7-6-6V84c0-1.1-.9-2-2-2s-2 .9-2 2v100.8c0 3.3-2.7 6-6 6-1.6 0-3.05-.63-4.13-1.65l-.06-.07c-.02 0-.03-.02-.05-.04-1.08-1.1-1.75-2.6-1.75-4.24V99c0-1.1-.9-2-2-2s-2 .9-2 2v85.8c0 2.8 1.15 5.3 3 7.13l21.6 21.5c.38.38.9.57 1.4.57.5 0 1.02-.2 1.4-.58l21.5-21.4c.12-.1.2-.24.3-.36 1.72-1.8 2.8-4.23 2.8-6.86V2c0-1.1-.9-2-2-2zm-24 209.18l-3-3c1.9-1.08 4.2-1.1 6.06-.05l-3.05 3.05zm5.97-5.94c-3.52-2.54-8.3-2.52-11.9.05l-8.63-8.62c2.66-.38 5-1.82 6.55-3.9 1.83 2.45 4.73 4.02 8 4.02 3.3 0 6.2-1.6 8.03-4.04 1.56 2.06 3.9 3.52 6.53 3.92l-8.58 8.56z"/></svg>