<?xml version="1.0" encoding="UTF-8" standalone="no"?>
<svg width="47px" height="14px" viewBox="0 0 47 14" version="1.1" xmlns="http://www.w3.org/2000/svg" xmlns:xlink="http://www.w3.org/1999/xlink">
    <g id="Designs" stroke="none" stroke-width="1" fill-rule="evenodd">
        <g id="Homepage-v9" transform="translate(-374.000000, -4325.000000)">
            <g id="Partner--05" transform="translate(-237.000000, 3290.000000)">
                <g id="brands_logos" transform="translate(611.000000, 1029.000000)">
                    <g id="rbs" transform="translate(0.747740, 6.133008)">
                        <path d="M12.398817,6.6199399 L10.2359222,6.6199399 C9.77623868,6.6199399 9.3496568,6.34775441 9.21392621,5.93940699 C8.82203873,4.79884325 7.69741378,4.39049583 7.69741378,4.39049583 C7.28862923,4.23772878 6.98254288,3.84626323 6.98254288,3.36941971 L6.98254288,1.20847174 C6.98254288,0.613801107 7.47602055,0.137649473 8.07233493,0.137649473 C8.66844155,0.137649473 9.1453684,0.580037376 9.1453684,1.20847174 L9.12881758,2.9437753 L11.6326316,0.443529504 C12.0585902,0.018300219 12.739667,0.018300219 13.1652794,0.443529504 C13.5913072,0.867859345 13.5913072,1.56527412 13.1652794,1.99147203 L10.695675,4.44148736 L12.398817,4.44148736 C12.9949236,4.44148736 13.4893708,4.93542031 13.4893708,5.53099038 C13.4893708,6.12656046 12.9949236,6.6199399 12.398817,6.6199399 M12.3819199,9.23953495 L10.6446375,9.22272227 L13.1483823,11.7241443 C13.5744102,12.1494427 13.5744102,12.8305983 13.1483823,13.2552049 C12.7227699,13.6816796 12.0416932,13.6816796 11.6157345,13.2552049 L9.1453684,10.7883077 L9.1453684,12.490747 C9.1453684,13.1367551 8.65161373,13.5792814 8.0552301,13.5792814 C7.45912348,13.5792814 6.96529955,13.085902 6.96529955,12.490747 L6.96529955,10.3287612 C6.96529955,9.86914551 7.25462733,9.44384703 7.66361963,9.3076851 C8.80514165,8.91615036 9.19702913,7.79447493 9.19702913,7.79447493 C9.3496568,7.38605833 9.7583721,7.07976317 10.2190251,7.07976317 L12.3819199,7.07976317 C12.9780265,7.07976317 13.4724737,7.57314261 13.4724737,8.16871268 C13.4724737,8.76269144 13.0289948,9.23953495 12.3819199,9.23953495 M5.41693198,13.5620536 C4.82082536,13.5620536 4.3433445,13.1705189 4.36017233,12.490747 L4.37741565,10.7539905 L1.87367088,13.2552049 C1.44771225,13.6816796 0.749669177,13.6816796 0.340884626,13.2552049 C-0.0850047494,12.8305983 -0.0850047494,12.1322149 0.340884626,11.7241443 L2.79366118,9.25669357 L1.106793,9.25669357 C0.493512299,9.25669357 0.0169316996,8.76269144 0.0169316996,8.16871268 C0.0169316996,7.57314261 0.493512299,7.07976317 1.106793,7.07976317 L3.27031103,7.07976317 C3.72999455,7.07976317 4.1390561,7.35194866 4.29230703,7.76029608 C4.68412525,8.91615036 5.79129913,9.3076851 5.79129913,9.3076851 C6.21753476,9.4607289 6.50686253,9.85226364 6.50686253,10.3287612 L6.50686253,12.490747 C6.50686253,13.085902 6.03021268,13.5620536 5.41693198,13.5620536 M5.80819621,4.40737769 C4.66729743,4.81572511 4.27547921,5.92245594 4.27547921,5.92245594 C4.12188203,6.33087254 3.71309748,6.63702933 3.25341395,6.63702933 L1.08989593,6.63702933 C0.493512299,6.63702933 3.46251527e-05,6.14371908 3.46251527e-05,5.54787225 C3.46251527e-05,4.95230217 0.408749925,4.4758046 1.08989593,4.4758046 L2.82745533,4.49289403 L0.323710551,1.99147203 C-0.101971074,1.56527412 -0.101971074,0.884741211 0.323710551,0.460757309 C0.749669177,0.0351820845 1.43081518,0.0351820845 1.85642755,0.460757309 L4.32644743,2.92689344 L4.32644743,1.2253536 C4.32644743,0.631028912 4.80372053,0.137649473 5.41693198,0.137649473 C6.01331561,0.137649473 6.48996546,0.631028912 6.48996546,1.2253536 L6.48996546,3.38630158 C6.48996546,3.84626323 6.21753476,4.27176926 5.80819621,4.40737769" id="Fill-1"></path>
                        <path d="M40.9931058,13.6467743 C39.834202,13.6467743 38.3699043,13.4601743 37.6384133,13.2386344 L38.2182461,10.8558698 C38.7446177,11.0946375 39.9202109,11.4694979 40.9931058,11.4694979 C42.2873248,11.4694979 43.2583526,10.9074148 43.2583526,9.76664353 C43.2583526,8.79704326 42.6618997,8.28837328 40.9931058,7.64098142 C39.2898946,6.97767631 37.8773269,6.16056635 37.8773269,3.74369206 C37.8773269,1.37870875 39.7493704,0.0691879735 42.5943114,0.0691879735 C43.8030755,0.0691879735 45.0302601,0.30795567 45.7623051,0.545962299 L45.2004081,2.859193 C44.7059609,2.58700752 43.7521765,2.24646431 42.5943114,2.24646431 C41.2142221,2.24646431 40.6012184,2.77423017 40.6012184,3.67595703 C40.6012184,4.5949117 41.2824336,4.93538571 42.7637669,5.58187814 C44.8085206,6.4496337 46.0860503,7.31821952 46.0860503,9.59734055 C46.0860503,12.1157136 44.0758524,13.6467743 40.9931058,13.6467743 M31.8470796,7.69259564 L30.2815379,7.69259564 L30.2815379,11.502639 L31.9324652,11.502639 C33.2272381,11.502639 34.2319908,10.9927928 34.2319908,9.57949006 C34.2319908,8.28837328 33.2954497,7.69259564 31.8470796,7.69259564 M31.8636996,2.26334618 L30.2815379,2.26334618 L30.2815379,5.71817844 L31.7450739,5.71817844 C32.8519707,5.71817844 33.8057552,5.12260837 33.8057552,3.93126065 C33.8057552,2.80757878 33.1246784,2.26334618 31.8636996,2.26334618 M32.0000535,13.5282553 L27.7093046,13.5282553 L27.7093046,0.239528764 L32.221793,0.239528764 C34.8118236,0.239528764 36.5143424,1.49743531 36.5143424,3.70992833 C36.5143424,5.27606729 35.4752415,6.16056635 34.4869012,6.55210109 C35.8498164,6.90952616 36.9572673,7.8452935 36.9572673,9.59734055 C36.9572673,11.9114015 35.1681164,13.5282553 32.0000535,13.5282553 M21.1361349,2.28043561 L19.8242571,2.28043561 L19.8242571,6.07498082 L20.8461839,6.07498082 C22.2260654,6.07498082 23.2292946,5.47996425 23.2292946,4.18614915 C23.2292946,3.04634647 22.4971111,2.28043561 21.1361349,2.28043561 M23.6039388,13.5282553 C22.803336,11.9114015 21.3575281,9.35829611 20.5060264,8.03251616 L19.8242571,8.03251616 L19.8242571,13.5282553 L17.2694056,13.5282553 L17.2694056,0.239528764 L21.4763616,0.239528764 C24.2512906,0.239528764 25.9041569,1.56523952 25.9041569,4.22025882 C25.9041569,6.04121709 24.5921406,7.16476059 23.2126745,7.62409955 C24.0983167,8.83115294 25.8015279,11.7922598 26.6527527,13.5282553 L23.6039388,13.5282553" id="Fill-3"></path>
                    </g>
                </g>
            </g>
        </g>
    </g>
</svg>
