<svg xmlns="http://www.w3.org/2000/svg" viewBox="0 0 69.18 77.02">
  <defs/>
  <g data-name="Layer 2">
    <path d="M67.18 11.57H58.5V2a2 2 0 00-2-2H2a2 2 0 00-2 2v54.5a2 2 0 002 2h8.69v9.57a2 2 0 002 2h20.88l6.37 6.37a2 2 0 002.83 0l6.37-6.37h18a2 2 0 002-2v-54.5a2 2 0 00-1.96-2zm-56.49 2V54.5H4V4h50.5v7.57H12.69a2 2 0 00-2 2zm54.49 52.5H48.31a2 2 0 00-1.42.58l-5.54 5.54-5.54-5.54a2 2 0 00-1.41-.58H14.69v-50.5h50.49zM21.94 28.91a2 2 0 012-2h32a2 2 0 010 4h-32a2 2 0 01-2-2zm0 12.22a2 2 0 012-2h32a2 2 0 010 4h-32a2 2 0 01-2-2zm0 12.22a2 2 0 012-2h32a2 2 0 010 4h-32a2 2 0 01-2-2z" data-name="Layer 1"/>
  </g>
</svg>