<svg xmlns="http://www.w3.org/2000/svg" viewBox="0 0 85.53 95.32">
  <defs/>
  <g data-name="Layer 2">
    <g data-name="Layer 1">
      <path d="M83.53 14.47H72.17V2a2 2 0 00-2-2H2a2 2 0 00-2 2v68.16a2 2 0 002 2h11.37v12.48a2 2 0 002 2H41.7l8.11 8.11a2 2 0 002.83 0l8.11-8.11h22.78a2 2 0 002-2V16.48a2 2 0 00-2-2.01zm-70.16 2v51.69H4V4h64.16v10.47H15.37a2 2 0 00-2 2.01zm68.16 66.17H59.92a2 2 0 00-1.41.58l-7.29 7.29-7.28-7.29a2 2 0 00-1.41-.58H17.37V18.48h64.16z"/>
      <path d="M33.81 47.1a3.54 3.54 0 103.53 3.53 3.54 3.54 0 00-3.53-3.53zM49.3 47.1a3.54 3.54 0 103.53 3.53 3.54 3.54 0 00-3.53-3.53zM64.79 47.1a3.54 3.54 0 103.53 3.53 3.54 3.54 0 00-3.53-3.53z"/>
    </g>
  </g>
</svg>