<?xml version="1.0" encoding="UTF-8" standalone="no"?>
<svg xmlns="http://www.w3.org/2000/svg" viewBox="80 15 250 80" version="1.1">
  <path fill="#ffffff" fill-rule="evenodd" d="M206.704 34.734c.344-.517 1.386-.172 2.12-.155.983.02.75 1.47 2.113 1.19 1.36-.29 1.377 1.29 3.32 1.23 1.95-.06-.39.68-.39.68s-1.204-.59-1.98-.19c-.416.21.15-.12-.544-.69-1.068-.88-.922.16-2.714-1.36-1.28-1.08-2.49.13-1.93-.72"/>
  <path fill="#ffffff" d="M192.072 36.742c-1.152-1.862-.292-4.18 1.015-6.435.958-1.66 3.522-2.393 5.75-1.523 2.504-1.973 3.104.15 5.32-.808 2.914-1.262 1.285 3.35 4.1 4.51 1.166-3.106-2.652-5.44-.26-6.902 1.713-1.046 3.006-1.695 3.708-3.09.998-1.995 1.386-3.452 2.16-3.712 1.773-.61 1.39-2.296 1.39-2.296s1.893.552 3.358-.825c-1.12-.6-2.763-1.12-2.326-2.33.508-1.42 4.313 1.47 5.438-.86-2.264-.98-4.577-3.13-5.96-3.62-.943 1.04-1.54.62-2.762-.34-2.07-1.64-2.242-.08-3.54-1.2-1.03 2.07.53 1.91 1.002 2.43 1.33 1.46-1.346-1.3-1.086 2.41.06.96-1.36 1.14-2.42-.95-.55-1.09-4.95-.86-5.62-1.9.61-1.21 5.78-5.52 13.72-4.48-11.54-4.53-27.13.42-27.29 2.14-1.56.98-1.02 2.1-1.8 2.35-1.35.45-2.81 4.56-2.81 4.56s.83.56-1.78 3.48c-2.15 2.41-2.78 6.06-2.78 6.06s1.42 2.6 1.14 5.59c-.2 2.29-.3.59.69 2.25.58.97 1.21 4.35 1.59 3.03.73-2.51-1.34-4.84-1-7.35.08.32.79-.99.77.19-.08 3.09 3.8 9.05 3.8 9.05s-1.45 1.48.07 1.48l-.39.92s1.12-.062 1.85.53c.73.59 1.35 1.324 2.01 1.324h11.17s.79-3.39 1.44-3.966c.65-.574-1.3 0-1.87-.574-.58-.58-.94.5-1.23 1.07-.29.58-.65 1.59-1.518 1.875-.863.29-2.95.43-3.38.43-.43 0-1.73-2.46-1.73-2.46M244.37 73c-.434-.575.07-1.444.07-1.444h-31.47l3.51 3.063c.765.31 1.736 1.08 2.182 2.26 1.05 2.78-.512.53-.512 4.74 0 3.87-1.09 3.24-1.09 3.24s-.233 4.58-2.604 7.39c-1.505 1.51-.335 2.77-.335 2.77s-.5.28-1.24 3.6c-.24 1.07 1.14 2.73 2.33 2.31.9-.31-2.17-.61 1.16-2.01 1.28-.55.24-1.57.24-1.57s2.15-.17 3.37-3.42c2.15.31 1.35-1 5.77-1.96 1.17-.25 1.41-.6 1.27-1.7-.14-1.1 1.44.16 5.82-4.3 3.45-3.52 2.21-4.32 4.59-5.59 2.52-1.34 2.75.11 3.59-.98 1.93-2.51 1.25-2.35 2.05-3.95l.57-.88s1.2-1.04.78-1.62m-22-33.59l-.7.42-.14-.694.85.28zm-2.51-.55c-1.12.24-2.31 0-3.36.834l-.7-.56h-.42c.98-.8-.56-1.64 1.12-1.68 1.3.035 2.24.94 3.36 1.4"/>
  <path fill="#ffffff" fill-rule="evenodd" d="M152.24 39.85C159.51 17.365 176.72 0 205.482 0c26.726 0 46.364 17.603 53.49 40.34-7.435-21.192-28.556-36.478-53.45-36.478-24.71 0-45.7 15.052-53.282 35.988m106.61 34.394c-7.233 22.542-27.582 40.08-53.368 40.08-27.354 0-45.734-17.3-53.128-39.59 7.694 20.763 28.586 35.656 53.167 35.656 24.77 0 45.8-15.127 53.33-36.146"/>
  <path fill="#ffffff" d="M109.274 45.354h-8.77l1.31 1.558v11.52c0 2.587-1.713 3.678-4.277 3.678-2.556 0-4.273-1.09-4.273-3.677v-11.52l1.31-1.56h-8.77l1.31 1.56v11.705c0 5.743 3.215 7.96 10.423 7.96s10.42-2.217 10.42-7.96V46.912l1.317-1.558m30.44 0h-7.4l1.307 1.558V57.4l-10.6-12.046h-6.64l1.31 1.558v17.696l-1.31 1.563h7.4l-1.31-1.56V53.94l11.26 12.233h4.69V46.915l1.31-1.558zm17.04 20.816l-1.31-1.558V46.917l1.31-1.563h-8.83l1.314 1.563v17.695l-1.315 1.56h8.832zm29.126-20.816h-7.43l1.31 1.558-5.243 11.455-5.054-11.455 1.31-1.558h-8.734l9.7 20.817h4.34l9.8-20.81zm24.806 20.816v-5.65l-1.563 1.312H198.48v-3.995h6.746l1.527 1.315v-6.775l-1.527 1.31h-6.745v-3.994h10.65l1.57 1.31v-5.65h-19.6l1.31 1.564v17.695l-1.3 1.56h19.6z"/>
  <path fill="#ffffff" fill-rule="evenodd" d="M233.343 52.094c0 1.497-1.435 2.715-3.434 2.715h-3.96v-5.12h4.71c1.37 0 2.68.68 2.68 2.4m7.17 14.07l-5.65-8.21c2.77-1.12 4.71-3.28 4.71-6.31 0-3.47-2.13-6.31-8.06-6.31h-12.98l1.31 1.56v17.7l-1.31 1.56h8.7l-1.31-1.56v-5.9h2.62l3.99 5.89-1.31 1.56h9.26"/>
  <path fill="#ffffff" d="M266.885 60.084c0-3.306-2.657-5.152-6.493-6.4-2.498-.778-6.025-1.338-6.025-2.993 0-.81.966-1.37 2.653-1.37 2.25 0 5.928.94 8.8 2.31v-6.96l-1.654 1.6c-1.748-.72-4.776-1.47-6.864-1.47-7.084 0-9.362 3.12-9.362 5.97 0 3.87 2.56 5.56 6.586 6.96 2.992 1.03 5.773 1.12 5.773 2.84 0 1.48-1.72 1.66-2.6 1.66-2.21 0-6.15-.78-9.64-3.06v7.71l1.65-1.81c1.62.62 5.27 1.69 8.26 1.69 6.15 0 8.9-2.71 8.9-6.64"/>
  <path fill="#ffffff" fill-rule="evenodd" d="M287.997 58.68h-6.895l3.435-7.455 3.46 7.455zm10.016 7.49l-10.24-20.816h-7.02l.747 1.563-9.265 19.254h7.64l-1.306-1.56 1.02-2.18h9.92l1 2.19-1.32 1.57H298z"/>
  <path fill="#ffffff" d="M322.678 66.17v-5.65l-1.562 1.312h-10.02V46.917l1.31-1.563H303.7l1.315 1.563v17.695l-1.315 1.56h18.98zm-4.392-16.314c0-2.29 1.863-4.15 4.154-4.15 2.29 0 4.153 1.86 4.153 4.15s-1.862 4.15-4.153 4.15c-2.29 0-4.154-1.86-4.154-4.15m.393 0c0 2.075 1.67 3.766 3.76 3.766 2.08 0 3.76-1.69 3.76-3.766 0-2.08-1.69-3.765-3.77-3.765-2.09 0-3.76 1.69-3.76 3.77"/>
  <path fill="#ffffff" fill-rule="evenodd" d="M324.002 48.232c-.41-.35-.905-.512-1.44-.512-1.22 0-2.13.95-2.13 2.15 0 1.21.89 2.162 2.123 2.162.55 0 1.077-.203 1.5-.57v-.542c-.384.455-.93.737-1.522.737-.976 0-1.695-.847-1.695-1.787s.728-1.77 1.703-1.77c.59 0 1.08.242 1.47.67v-.538"/>
</svg>
