<?xml version="1.0" encoding="utf-8"?>
<!-- Generator: Adobe Illustrator 15.0.0, SVG Export Plug-In  -->
<!DOCTYPE svg PUBLIC "-//W3C//DTD SVG 1.1//EN" "http://www.w3.org/Graphics/SVG/1.1/DTD/svg11.dtd" [
	<!ENTITY ns_flows "http://ns.adobe.com/Flows/1.0/">
]>
<svg version="1.1"
	 xmlns="http://www.w3.org/2000/svg" xmlns:xlink="http://www.w3.org/1999/xlink" xmlns:a="http://ns.adobe.com/AdobeSVGViewerExtensions/3.0/"
	 x="0px" y="0px" width="32px" height="32px" viewBox="0 0 32 32" overflow="visible" enable-background="new 0 0 32 32"
	 xml:space="preserve">
<defs>
</defs>
<path fill-rule="evenodd" clip-rule="evenodd" d="M22.169,1.233c-2.827,0.639-4.957,3.239-4.957,6.35
	c0,0.067,0.019,0.147,0.019,0.213c4.471,0.983,6.725,4.097,6.725,8.204c0,4.616-3.651,8.354-8.115,8.354
	c-4.465,0-8.634-3.848-8.634-9.556c0-6.968,5.778-13.505,14.014-13.711c0.147-0.004,0.384,0.001,0.624,0.013
	C20.034,0.39,18.062,0,16.001,0C7.164,0,0,7.164,0,16c0,8.837,7.164,16,16.001,16C24.836,32,32,24.837,32,16
	C32,9.35,27.941,3.648,22.169,1.233L22.169,1.233z"/>
</svg>
