<?xml version="1.0" encoding="UTF-8"?>
<svg width="115px" height="20px" viewBox="0 0 115 20" version="1.1" xmlns="http://www.w3.org/2000/svg" xmlns:xlink="http://www.w3.org/1999/xlink">
    <!-- Generator: Sketch 41.2 (35397) - http://www.bohemiancoding.com/sketch -->
    <title>vodafone</title>
    <desc>Created with Sketch.</desc>
    <defs></defs>
    <g id="Designs---Desktop/Mobile---Nav-4" stroke="none" stroke-width="1" fill-rule="evenodd">
        <g id="Homepage-v9" transform="translate(-657.000000, -4169.000000)">
            <g id="Partner--05" transform="translate(-237.000000, 3290.000000)">
                <g id="quote" transform="translate(595.000000, 769.000000)">
                    <g id="vodafone" transform="translate(299.000000, 110.000000)">
                        <path d="M13.5372424,0.863693378 C12.3244834,0.308989197 10.9777723,0 9.56155155,0 C4.27653955,0 0,4.30301967 0,9.6207562 C0,14.9792159 4.27653955,19.2822356 9.56155155,19.2822356 C14.8465635,19.2822356 19.1635757,14.9792159 19.1635757,9.6207562 C19.1635757,5.76100202 16.8892695,2.43582516 13.6212623,0.902616484 C13.6416983,0.892367225 13.6622145,0.882223361 13.6828101,0.872185754 C13.6343813,0.868980531 13.5858606,0.866144952 13.5372424,0.863693378 Z M13.5372424,0.863693378 C13.5653211,0.876536293 13.593328,0.889510924 13.6212623,0.902616484 C11.9564942,1.73754714 10.8245193,3.2718966 10.7671143,5.03977286 C13.2416962,5.46531133 15.133139,7.56741163 15.133139,10.1006545 C15.133139,12.963232 12.7549115,15.2620365 9.84330004,15.2620365 C6.62238905,15.2620365 4.42777329,12.4280399 4.48439775,9.25237961 C4.48439775,4.6099379 8.33541837,0.852384578 13.09373,0.852384578 C13.242563,0.852384578 13.390348,0.856286224 13.5372424,0.863693378 Z" id="Combined-Shape"></path>
                        <g id="Group-3" transform="translate(24.506250, 0.226132)">
                            <path d="M49.3378799,15.717826 L52.4084087,15.717826 L52.4084087,7.47001627 L55.2120399,7.47001627 L55.2120399,4.62516298 L52.4084087,4.62516298 L52.4084087,4.18755546 C52.4092126,2.52772067 54.3257307,2.71376453 55.5979161,2.96411486 L55.5979161,0.294789897 C51.3078579,-0.641900498 49.3748597,0.684673118 49.3378799,3.83245435 L49.3378799,15.717826 Z M0,4.58795421 L3.28919199,4.58795421 L6.07795089,11.5294124 L8.86630783,4.58795421 L12.1550979,4.58795421 L7.72234591,15.6231862 L7.70626773,15.6624172 L7.70666969,15.6624172 L4.44923209,15.6624172 L4.43315391,15.6223774 L0,4.58795421 Z M85.139145,7.01420882 C86.1556874,7.01420882 87.0267223,7.81743296 87.3925007,8.95836716 L82.8857892,8.95836716 C83.2519696,7.81743296 84.1226026,7.01420882 85.139145,7.01420882 L85.139145,7.01420882 Z M84.9180701,4.41687474 C87.8016902,4.41687474 90.1398583,6.9887289 90.1398583,10.1591589 C90.1398583,10.5623888 90.1020746,10.9555076 90.0305268,11.3348753 L83.4051141,11.3348753 L82.878554,11.3348753 C83.0586295,11.7263763 83.2049409,12.0822862 83.4051141,12.386832 C84.3710103,13.3231179 85.1057828,13.4844907 86.5094072,13.4844907 C87.7277306,13.4844907 88.621275,13.3182646 89.290127,13.0290877 L89.6482682,12.9595235 L89.6587191,14.9999393 C88.2197227,16.0676693 86.1926672,15.9297542 84.9180701,15.9297542 C82.03445,15.9297542 79.6962819,13.329589 79.6962819,10.1591589 C79.6962819,6.9887289 82.03445,4.41687474 84.9180701,4.41687474 L84.9180701,4.41687474 Z M67.9933826,15.7089282 L67.9933826,15.7089282 L67.9933826,15.7784924 L70.9553838,15.7784924 L70.9553838,15.7089282 L71.0245199,15.7089282 L71.0245199,7.63988241 C71.7584885,7.44170525 72.4808003,7.3587944 73.2007005,7.34827888 C74.805704,7.41582089 75.5834855,8.36504902 75.5340452,10.0620926 L75.5340452,15.7784924 L78.6712984,15.7784924 L78.6712984,9.95572403 C78.7862573,6.4904549 76.9722376,4.68744723 73.2292392,4.5495321 C71.4972182,4.57218092 69.7382662,4.77035808 67.9933826,5.31999635 L67.9933826,5.3466896 L67.9933826,15.7089282 Z M61.1444834,7.02553322 C62.4906283,7.02553322 63.5823362,8.42895104 63.5823362,10.1591589 C63.5823362,11.8893669 62.4906283,13.2927847 61.1444834,13.2927847 C59.7987404,13.2927847 58.7070325,11.8893669 58.7070325,10.1591589 C58.7070325,8.42895104 59.7987404,7.02553322 61.1444834,7.02553322 L61.1444834,7.02553322 Z M61.1444834,4.41687474 C64.296207,4.41687474 66.8518324,6.98832445 66.8518324,10.1591589 C66.8518324,13.3299934 64.296207,15.9014432 61.1444834,15.9014432 C57.9939656,15.9014432 55.4379382,13.3299934 55.4379382,10.1591589 C55.4379382,6.98832445 57.9939656,4.41687474 61.1444834,4.41687474 L61.1444834,4.41687474 Z M44.403087,7.38670098 L44.403087,12.1813748 C44.3974596,12.5198938 43.6711282,13.2798425 42.3527181,13.2669003 C41.0339061,13.2543626 40.0032953,11.9775355 40.0032953,10.2473276 C40.0032953,8.03623672 42.0757716,6.49854377 44.403087,7.38670098 L44.403087,7.38670098 Z M44.6181325,15.7788969 L47.4209598,15.7788969 L47.4209598,5.17763235 C45.6889388,4.77197585 44.420371,4.50504335 42.3314146,4.50504335 C39.1800929,4.50504335 36.6244675,7.07649306 36.6244675,10.2473276 C36.6244675,13.4181621 39.0972903,15.9151942 41.4193803,15.9151942 C43.7410683,15.9151942 43.9669666,15.1847698 44.6088876,14.9332062 L44.6181325,15.7788969 Z M32.451378,12.9364702 L32.451378,7.38144322 C32.0148556,7.1545506 31.5184421,7.02553322 30.99148,7.02553322 C29.2514199,7.02553322 27.8397564,8.42895104 27.8397564,10.1591589 C27.8397564,11.8893669 29.2514199,13.2927847 30.99148,13.2927847 C31.5184421,13.2927847 32.0148556,13.1633629 32.451378,12.9364702 L32.451378,12.9364702 Z M32.451378,0.245447829 L35.4692509,0.245447829 L35.4692509,15.457769 C33.7376318,15.7776835 32.0586687,15.9014432 30.3797056,15.9014432 C27.2283839,15.9014432 24.6727585,13.3299934 24.6727585,10.1591589 C24.6727585,6.98832445 27.2283839,4.41687474 30.3797056,4.41687474 C31.1104585,4.41687474 31.809457,4.55519431 32.451378,4.80716241 L32.451378,0.245447829 Z M17.7900951,7.02553322 C19.1362401,7.02553322 20.2279479,8.42895104 20.2279479,10.1591589 C20.2279479,11.8893669 19.1362401,13.2927847 17.7900951,13.2927847 C16.4439502,13.2927847 15.3522423,11.8893669 15.3522423,10.1591589 C15.3522423,8.42895104 16.4439502,7.02553322 17.7900951,7.02553322 L17.7900951,7.02553322 Z M17.7900951,4.41687474 C20.9414168,4.41687474 23.4970422,6.98832445 23.4970422,10.1591589 C23.4970422,13.3299934 20.9414168,15.9014432 17.7900951,15.9014432 C14.6391754,15.9014432 12.083148,13.3299934 12.083148,10.1591589 C12.083148,6.98832445 14.6391754,4.41687474 17.7900951,4.41687474 L17.7900951,4.41687474 Z" id="Fill-1"></path>
                        </g>
                    </g>
                </g>
            </g>
        </g>
    </g>
</svg>
