<svg width="0" height="0" style="position:absolute"><symbol viewBox="0 0 84.8 112.9" id="icon--bracket"><path d="M35 111c-40 0-8.4-54.5-33-54.5C26.6 56.5-5 2 35 2m14.7 0c40 0 8.5 54.5 33 54.5-24.5 0 7 54.4-33 54.4" fill="none" stroke="#333" stroke-width="4" stroke-linecap="round" stroke-linejoin="round" stroke-miterlimit="10"/></symbol><symbol viewBox="0 0 41.551 41.551" id="icon--close"><path fill="none" stroke="#fff" stroke-width="4" stroke-linecap="round" stroke-linejoin="round" stroke-miterlimit="10" d="M2 39.6L39.6 2M2 2l37.6 37.6"/></symbol><symbol viewBox="-9 -9 50 50" id="icon--email"><path d="M36.805 36.85H-4.854V10.8l20.829 13.55 20.83-13.55v26.05zM-6.903 41h45.805C41 41 41 41 41 38.9V7.65L15.975-9-9 7.65V38.9C-9 41-9 41-6.903 41z"/></symbol><symbol viewBox="-1 11 80 80" id="icon--github"><path d="M39 11C17 11-1 29.4-1 52c0 18 11.5 33.5 27.4 39 2 .3 2.7-1 2.7-2v-7.7c-11 2.5-13.4-4.8-13.4-4.8-2-4.8-4.5-6-4.5-6-3.5-2.6.4-2.5.4-2.5 4 .3 6 4.2 6 4.2 3.7 6.3 9.5 4.5 11.8 3.4.3-2.6 1.4-4.4 2.5-5.5-9-1-18.2-4.4-18.2-20 0-4.6 1.5-8.3 4-11-.3-1.2-1.7-5.3.5-11 0 0 3.3-1 11 4.2 3.2-1 6.6-1.3 10-1.4 3.4 0 6.8.5 10 1.4C56.6 27 60 28 60 28c2.2 5.7.8 9.8.4 11 2.6 2.7 4 6.4 4 11 0 15.6-9.2 19-18.2 20 1.5 1.4 2.8 4 2.8 7.7V89c0 1 .6 2.3 2.7 2C67.5 85.4 79 70 79 52c0-22.6-18-41-40-41z"/></symbol><symbol viewBox="-1 11 80 80" id="icon--linkedin"><path fill="#1D1D1B" d="M73.08 11.06H4.9c-3.26 0-5.9 2.58-5.9 5.76V85.3c0 3.17 2.64 5.76 5.9 5.76h68.18c3.26 0 5.92-2.6 5.92-5.77V16.8c0-3.18-2.66-5.76-5.92-5.76zM22.73 79.23H10.86V41.05h11.87v38.18zm-5.93-43.4c-3.8 0-6.9-3.08-6.9-6.88s3.1-6.88 6.9-6.88c3.8 0 6.87 3.1 6.87 6.88 0 3.8-3.08 6.88-6.88 6.88zm50.37 43.4H55.3V60.66c0-4.43-.07-10.12-6.15-10.12-6.18 0-7.13 4.82-7.13 9.8v18.9H30.17v-38.2h11.38v5.23h.16c1.6-3 5.46-6.17 11.24-6.17 12 0 14.23 7.9 14.23 18.2v20.93z"/></symbol><symbol viewBox="-1 11 80 80" id="icon--note"><path fill="#1D1D1B" d="M73.077 11.058H4.903c-3.259 0-5.905 2.582-5.905 5.766v68.464c0 3.182 2.646 5.77 5.905 5.77h68.174c3.264 0 5.925-2.588 5.925-5.77V16.823c0-3.183-2.661-5.765-5.925-5.765zM22.726 79.229H10.859V41.051h11.866v38.178zm-5.931-43.398a6.88 6.88 0 1 1 6.877-6.882 6.883 6.883 0 0 1-6.877 6.882zM67.17 79.229H55.312V60.664c0-4.432-.081-10.125-6.167-10.125-6.175 0-7.121 4.822-7.121 9.803v18.887H30.168V41.051h11.383v5.216h.158c1.583-3.002 5.453-6.167 11.227-6.167 12.015 0 14.234 7.908 14.234 18.187v20.942z"/></symbol><symbol viewBox="0 0 36.8 53" id="icon--pb"><path d="M17.2 0H0v39.2L14 53V40h3.2c10.8 0 19.6-9.2 19.6-20S28 0 17.2 0zm.8 28h-7V12.4l5-5.7V12h2c4.4 0 8 3.6 8 8s-3.6 8-8 8z"/></symbol><symbol viewBox="11.751 0 51.998 214.1" id="icon--pencil"><path fill="#333" d="M61.75 0c-1.1 0-2 .9-2 2v182.8c0 3.2-2.8 6-6 6-3.25 0-6-2.75-6-6V122c0-1.1-.9-2-2-2s-2 .9-2 2v62.8c0 3.3-2.7 6-6 6s-6-2.7-6-6V84c0-1.1-.9-2-2-2s-2 .9-2 2v100.8c0 3.3-2.7 6-6 6-1.6 0-3.05-.63-4.13-1.65l-.06-.07c-.02 0-.03-.02-.05-.04a6.048 6.048 0 0 1-1.75-4.24V99c0-1.1-.9-2-2-2s-2 .9-2 2v85.8c0 2.8 1.15 5.3 3 7.13l21.6 21.5a1.992 1.992 0 0 0 2.8-.01l21.5-21.4c.12-.1.2-.24.3-.36 1.72-1.8 2.8-4.23 2.8-6.86V2c0-1.1-.9-2-2-2zm-24 209.18l-3-3c1.9-1.08 4.2-1.1 6.06-.05l-3.05 3.05zm5.97-5.94c-3.52-2.54-8.3-2.52-11.9.05l-8.63-8.62c2.66-.38 5-1.82 6.55-3.9a9.952 9.952 0 0 0 8 4.02c3.3 0 6.2-1.6 8.03-4.04 1.56 2.06 3.9 3.52 6.53 3.92l-8.58 8.56z"/></symbol></svg>