<svg width="0" height="0" style="position:absolute"><symbol viewBox="0 0 84.8 112.9" id="icon--bracket"><path d="M35 111c-40 0-8.4-54.5-33-54.5C26.6 56.5-5 2 35 2m14.7 0c40 0 8.5 54.5 33 54.5-24.5 0 7 54.4-33 54.4" fill="none" stroke="#333" stroke-width="4" stroke-linecap="round" stroke-linejoin="round" stroke-miterlimit="10"/></symbol><symbol viewBox="0 0 41.551 41.551" id="icon--close"><path fill="none" stroke="#fff" stroke-width="4" stroke-linecap="round" stroke-linejoin="round" stroke-miterlimit="10" d="M2 39.6L39.6 2M2 2l37.6 37.6"/></symbol><symbol viewBox="-9 -9 50 50" id="icon--email"><path d="M36.805 36.85h-41.66V10.8l20.83 13.55 20.83-13.55v26.05zM-6.903 41h45.805C41 41 41 41 41 38.9V7.65L15.975-9-9 7.65V38.9C-9 41-9 41-6.903 41z"/></symbol><symbol viewBox="0 0 78 102" id="icon--note"><path d="M2 2h74v98H2zm15 29h44M17 45h44M17 58h44M17 71h25" fill="none" stroke="#333" stroke-width="4" stroke-linecap="round" stroke-linejoin="round" stroke-miterlimit="10"/></symbol><symbol viewBox=".001 0 50 50" overflow="visible" id="icon--pb"><path d="M25 0L0 25l25 25 25.002-25L25 0zm.613 35.32H23.79v7.408l-7.975-7.863v-22.33h9.798c6.152 0 11.165 5.24 11.165 11.393 0 6.153-5.012 11.393-11.165 11.393z"/><path d="M26.07 19.37h-1.14v-3.926l-2.85 3.248v9.795h3.988a4.572 4.572 0 0 0 4.558-4.56 4.57 4.57 0 0 0-4.557-4.557z"/></symbol><symbol viewBox="11.751 0 51.998 214.1" id="icon--pencil"><path fill="#333" d="M61.75 0c-1.1 0-2 .9-2 2v182.8c0 3.2-2.8 6-6 6-3.25 0-6-2.75-6-6V122c0-1.1-.9-2-2-2s-2 .9-2 2v62.8c0 3.3-2.7 6-6 6s-6-2.7-6-6V84c0-1.1-.9-2-2-2s-2 .9-2 2v100.8c0 3.3-2.7 6-6 6-1.6 0-3.05-.63-4.13-1.65l-.06-.07c-.02 0-.03-.02-.05-.04a6.048 6.048 0 0 1-1.75-4.24V99c0-1.1-.9-2-2-2s-2 .9-2 2v85.8c0 2.8 1.15 5.3 3 7.13l21.6 21.5a1.992 1.992 0 0 0 2.8-.01l21.5-21.4c.12-.1.2-.24.3-.36 1.72-1.8 2.8-4.23 2.8-6.86V2c0-1.1-.9-2-2-2zm-24 209.18l-3-3c1.9-1.08 4.2-1.1 6.06-.05l-3.05 3.05zm5.97-5.94c-3.52-2.54-8.3-2.52-11.9.05l-8.63-8.62c2.66-.38 5-1.82 6.55-3.9a9.952 9.952 0 0 0 8 4.02c3.3 0 6.2-1.6 8.03-4.04 1.56 2.06 3.9 3.52 6.53 3.92l-8.58 8.56z"/></symbol></svg>