<?xml-stylesheet href="icon-styles.css" type="text/css"?>

<svg version="1.1" class="i-code" xmlns="http://www.w3.org/2000/svg" xmlns:xlink="http://www.w3.org/1999/xlink" x="0px" y="0px"
	 width="200px" height="200px" viewBox="0 0 300 300" enable-background="new 0 0 300 300" xml:space="preserve">
	<g>
		<path class="i-code-path" d="M82.335,42.539c3.171-8.462,8.078-15.54,15.857-20.598c7.783-5.052,18.568-8.121,33.622-8.123c1.104,0,2-0.896,2-2
			s-0.896-2-2-2c-13.851,0-24.565,2.515-32.822,6.998c-6.189,3.358-10.966,7.824-14.583,13.032
			c-5.431,7.818-8.278,17.247-9.797,27.276c-1.517,10.034-1.705,20.701-1.707,31.09c0,3.651,0.024,7.268,0.024,10.807
			c0,6.923-0.093,13.556-0.625,19.571c-0.398,4.511-1.044,8.672-2.062,12.338c-0.763,2.75-1.734,5.218-2.95,7.359
			c-1.831,3.214-4.178,5.689-7.323,7.422c-3.148,1.728-7.156,2.725-12.357,2.727c-0.527,0-1.042,0.213-1.414,0.586
			c-0.373,0.372-0.586,0.887-0.586,1.414s0.213,1.042,0.586,1.414c0.372,0.372,0.887,0.586,1.414,0.586
			c6.168,0.006,10.646,1.396,14.025,3.766c2.536,1.784,4.499,4.156,6.052,7.109c2.327,4.421,3.672,10.157,4.396,16.745
			c0.728,6.586,0.846,14.008,0.845,21.795c0,3.54-0.024,7.156-0.024,10.808c0.001,9.234,0.151,18.689,1.249,27.723
			c0.824,6.774,2.181,13.316,4.435,19.352c3.371,9.044,8.823,16.977,17.426,22.552c8.599,5.582,20.22,8.77,35.799,8.768
			c1.104,0,2-0.896,2-2s-0.896-2-2-2c-13.378,0-23.393-2.429-30.913-6.513c-5.643-3.067-9.912-7.063-13.208-11.8
			c-4.939-7.098-7.666-15.918-9.126-25.59c-1.464-9.667-1.663-20.154-1.662-30.491c0-3.634,0.024-7.249,0.024-10.808
			c0-6.959-0.09-13.693-0.641-19.922c-0.414-4.672-1.085-9.061-2.193-13.055c-0.832-2.995-1.91-5.771-3.325-8.265
			c-2.116-3.738-5.026-6.844-8.876-8.953c-0.835-0.459-1.72-0.861-2.638-1.224c1.701-0.672,3.268-1.496,4.681-2.49
			c3.123-2.192,5.508-5.117,7.293-8.522c2.679-5.116,4.069-11.307,4.83-18.166c0.756-6.861,0.869-14.406,0.87-22.235
			c0-3.558-0.024-7.173-0.024-10.807c0-9.189,0.155-18.496,1.219-27.241C78.92,54.415,80.228,48.176,82.335,42.539z"/>
		<path class="i-code-path" d="M254.633,149.021c-0.372-0.373-0.888-0.586-1.414-0.586c-6.168-0.005-10.646-1.396-14.026-3.766
			c-2.536-1.785-4.499-4.156-6.052-7.109c-2.327-4.422-3.673-10.158-4.396-16.746c-0.728-6.586-0.846-14.008-0.846-21.797
			c0-3.538,0.024-7.153,0.024-10.802c-0.001-9.235-0.151-18.69-1.248-27.724c-0.824-6.775-2.181-13.317-4.436-19.352
			c-3.37-9.045-8.823-16.977-17.426-22.553c-8.6-5.582-20.221-8.77-35.801-8.768c-1.104,0-2,0.896-2,2s0.896,2,2,2
			c13.379,0,23.394,2.429,30.914,6.513c5.642,3.067,9.912,7.064,13.208,11.8c4.939,7.098,7.666,15.918,9.127,25.591
			c1.464,9.667,1.662,20.154,1.661,30.492c0,3.632-0.024,7.246-0.024,10.802c0.001,6.959,0.091,13.695,0.641,19.924
			c0.414,4.672,1.085,9.061,2.193,13.055c0.831,2.995,1.91,5.771,3.325,8.265c2.116,3.738,5.026,6.844,8.877,8.954
			c0.835,0.459,1.72,0.861,2.639,1.225c-1.701,0.672-3.269,1.496-4.682,2.49c-3.123,2.192-5.508,5.117-7.293,8.523
			c-2.68,5.116-4.069,11.307-4.83,18.167c-0.756,6.861-0.869,14.406-0.87,22.235c0,3.557,0.024,7.171,0.024,10.803
			c0.001,9.189-0.155,18.496-1.219,27.241c-0.797,6.56-2.104,12.798-4.212,18.436c-3.171,8.462-8.077,15.54-15.856,20.598
			c-7.784,5.053-18.568,8.121-33.623,8.123c-1.104,0-2,0.896-2,2s0.896,2,2,2c13.852,0,24.565-2.515,32.822-6.998
			c6.19-3.357,10.967-7.824,14.584-13.032c5.432-7.818,8.278-17.247,9.798-27.276c1.516-10.034,1.704-20.701,1.706-31.091
			c0-3.649-0.024-7.264-0.024-10.803c0-6.923,0.093-13.557,0.625-19.571c0.398-4.511,1.045-8.673,2.063-12.338
			c0.763-2.75,1.733-5.219,2.949-7.36c1.831-3.214,4.178-5.689,7.324-7.423c3.147-1.728,7.156-2.725,12.357-2.727
			c0.526,0,1.042-0.213,1.414-0.586c0.373-0.372,0.586-0.887,0.586-1.414S255.006,149.394,254.633,149.021z"/>
	</g>
</svg>
