<?xml version="1.0" encoding="utf-8"?>
<!-- Generated by IcoMoon.io -->
<!DOCTYPE svg PUBLIC "-//W3C//DTD SVG 1.1//EN" "http://www.w3.org/Graphics/SVG/1.1/DTD/svg11.dtd">
<svg version="1.1" xmlns="http://www.w3.org/2000/svg" xmlns:xlink="http://www.w3.org/1999/xlink" width="128" height="32" viewBox="0 0 128 32">
<svg id="i-code" width="32" height="32" viewBox="0 0 32 32" x="0" y="0">
<path fill="#333333" d="M8.782 4.537c0.338-0.903 0.862-1.658 1.691-2.197s1.981-0.866 3.586-0.866c0.118 0 0.213-0.096 0.213-0.213s-0.096-0.213-0.213-0.213c-1.477 0-2.62 0.268-3.501 0.746-0.66 0.358-1.17 0.835-1.556 1.39-0.579 0.834-0.883 1.84-1.045 2.909s-0.182 2.208-0.182 3.316c0 0.389 0.003 0.775 0.003 1.153 0 0.738-0.010 1.446-0.067 2.088-0.042 0.481-0.111 0.925-0.22 1.316-0.081 0.293-0.185 0.557-0.315 0.785-0.195 0.343-0.446 0.607-0.781 0.792s-0.763 0.291-1.318 0.291c-0.056 0-0.111 0.023-0.151 0.063s-0.063 0.095-0.063 0.151 0.023 0.111 0.063 0.151c0.040 0.040 0.095 0.063 0.151 0.063 0.658 0.001 1.136 0.149 1.496 0.402 0.271 0.19 0.48 0.443 0.646 0.758 0.248 0.472 0.392 1.083 0.469 1.786s0.090 1.494 0.090 2.325c0 0.378-0.003 0.763-0.003 1.153 0 0.985 0.016 1.994 0.133 2.957 0.088 0.723 0.233 1.42 0.473 2.064 0.36 0.965 0.941 1.811 1.859 2.406s2.157 0.935 3.819 0.935c0.118 0 0.213-0.096 0.213-0.213s-0.096-0.213-0.213-0.213c-1.427 0-2.495-0.259-3.297-0.695-0.602-0.327-1.057-0.753-1.409-1.259-0.527-0.757-0.818-1.698-0.973-2.73s-0.177-2.15-0.177-3.252c0-0.388 0.003-0.773 0.003-1.153 0-0.742-0.010-1.461-0.068-2.125-0.044-0.498-0.116-0.966-0.234-1.393-0.089-0.319-0.204-0.616-0.355-0.882-0.226-0.399-0.536-0.73-0.947-0.955-0.089-0.049-0.183-0.092-0.281-0.131 0.181-0.072 0.349-0.16 0.499-0.266 0.333-0.234 0.588-0.546 0.778-0.909 0.286-0.546 0.434-1.206 0.515-1.938s0.093-1.537 0.093-2.372c0-0.38-0.003-0.765-0.003-1.153 0-0.98 0.017-1.973 0.13-2.906 0.085-0.7 0.224-1.365 0.449-1.966z"></path>
<path fill="#333333" d="M27.161 15.896c-0.040-0.040-0.095-0.063-0.151-0.063-0.658-0.001-1.136-0.149-1.496-0.402-0.27-0.19-0.48-0.443-0.646-0.758-0.248-0.472-0.392-1.084-0.469-1.786s-0.090-1.494-0.090-2.325c0-0.377 0.003-0.763 0.003-1.152-0-0.985-0.016-1.994-0.133-2.957-0.088-0.723-0.233-1.42-0.473-2.064-0.359-0.965-0.941-1.811-1.859-2.406s-2.157-0.935-3.819-0.935c-0.118 0-0.213 0.096-0.213 0.213s0.096 0.213 0.213 0.213c1.427 0 2.495 0.259 3.297 0.695 0.602 0.327 1.057 0.753 1.409 1.259 0.527 0.757 0.818 1.698 0.974 2.73s0.177 2.15 0.177 3.252c0 0.387-0.003 0.773-0.003 1.152 0 0.742 0.010 1.461 0.068 2.125 0.044 0.498 0.116 0.966 0.234 1.393 0.089 0.319 0.204 0.616 0.355 0.882 0.226 0.399 0.536 0.73 0.947 0.955 0.089 0.049 0.183 0.092 0.282 0.131-0.181 0.072-0.349 0.16-0.499 0.266-0.333 0.234-0.588 0.546-0.778 0.909-0.286 0.546-0.434 1.206-0.515 1.938s-0.093 1.537-0.093 2.372c0 0.379 0.003 0.765 0.003 1.152 0 0.98-0.017 1.973-0.13 2.906-0.085 0.7-0.224 1.365-0.449 1.966-0.338 0.903-0.862 1.658-1.691 2.197s-1.981 0.866-3.586 0.866c-0.118 0-0.213 0.096-0.213 0.213s0.096 0.213 0.213 0.213c1.478 0 2.62-0.268 3.501-0.746 0.66-0.358 1.17-0.835 1.556-1.39 0.579-0.834 0.883-1.84 1.045-2.909s0.182-2.208 0.182-3.316c0-0.389-0.003-0.775-0.003-1.152 0-0.738 0.010-1.446 0.067-2.088 0.042-0.481 0.111-0.925 0.22-1.316 0.081-0.293 0.185-0.557 0.315-0.785 0.195-0.343 0.446-0.607 0.781-0.792s0.763-0.291 1.318-0.291c0.056 0 0.111-0.023 0.151-0.063s0.063-0.095 0.063-0.151-0.022-0.111-0.062-0.151z"></path>
</svg>
<svg id="i-pb" width="32" height="32" viewBox="0 0 32 32" x="48" y="0">
<path fill="#333333" d="M11.376 0.16h-7.536v17.455l6.16 6.211v-6.065h1.376c4.864 0 8.807-3.936 8.807-8.801 0-4.862-3.943-8.799-8.807-8.799zM11.744 12.8h-3.104v-7.232l2.56-2.548v2.5h0.544c1.995 0 3.612 1.645 3.612 3.64s-1.617 3.64-3.612 3.64z"></path>
</svg>
</svg>
